UbuntuSans-CondensedThinItalic.ufo
<glyph name="ampersand" format="2">
  <advance width="477"/>
  <unicode hex="0026"/>
  <outline>
    <contour>
      <point x="138" y="-8" type="curve" smooth="yes"/>
      <point x="212" y="-8"/>
      <point x="273" y="34"/>
      <point x="327" y="100" type="curve"/>
      <point x="343" y="68"/>
      <point x="359" y="32"/>
      <point x="370" y="0" type="curve"/>
      <point x="399" y="0" type="line"/>
      <point x="384" y="37"/>
      <point x="364" y="84"/>
      <point x="343" y="125" type="curve"/>
      <point x="378" y="184"/>
      <point x="414" y="264"/>
      <point x="429" y="344" type="curve"/>
      <point x="404" y="347" type="line"/>
      <point x="387" y="273"/>
      <point x="358" y="203"/>
      <point x="331" y="149" type="curve"/>
      <point x="224" y="371" type="line"/>
      <point x="230" y="374" type="line"/>
      <point x="318" y="433"/>
      <point x="393" y="511"/>
      <point x="393" y="604" type="curve" smooth="yes"/>
      <point x="393" y="660"/>
      <point x="368" y="706"/>
      <point x="297" y="706" type="curve" smooth="yes"/>
      <point x="216" y="706"/>
      <point x="152" y="622"/>
      <point x="152" y="516" type="curve" smooth="yes"/>
      <point x="152" y="464"/>
      <point x="169" y="419"/>
      <point x="191" y="377" type="curve"/>
      <point x="186" y="375" type="line"/>
      <point x="94" y="319"/>
      <point x="26" y="248"/>
      <point x="26" y="127" type="curve" smooth="yes"/>
      <point x="26" y="59"/>
      <point x="61" y="-8"/>
    </contour>
    <contour>
      <point x="143" y="18" type="curve" smooth="yes"/>
      <point x="85" y="18"/>
      <point x="55" y="65"/>
      <point x="55" y="128" type="curve" smooth="yes"/>
      <point x="55" y="222"/>
      <point x="106" y="300"/>
      <point x="197" y="354" type="curve"/>
      <point x="201" y="356" type="line"/>
      <point x="314" y="123" type="line"/>
      <point x="269" y="61"/>
      <point x="211" y="18"/>
    </contour>
    <contour>
      <point x="214" y="390" type="line"/>
      <point x="195" y="429"/>
      <point x="181" y="473"/>
      <point x="181" y="520" type="curve" smooth="yes"/>
      <point x="181" y="608"/>
      <point x="225" y="678"/>
      <point x="292" y="678" type="curve" smooth="yes"/>
      <point x="340" y="678"/>
      <point x="364" y="651"/>
      <point x="364" y="597" type="curve" smooth="yes"/>
      <point x="364" y="522"/>
      <point x="300" y="445"/>
      <point x="220" y="393" type="curve"/>
    </contour>
  </outline>
</glyph>
<glyph name="quotesingle" format="2">
  <advance width="143"/>
  <unicode hex="0027"/>
  <outline>
    <contour>
      <point x="127" y="534" type="curve"/>
      <point x="147" y="534" type="line"/>
      <point x="166" y="599"/>
      <point x="179" y="645"/>
      <point x="194" y="710" type="curve" smooth="yes"/>
      <point x="206" y="760" type="line"/>
      <point x="176" y="760" type="line"/>
      <point x="165" y="710" type="line" smooth="yes"/>
      <point x="151" y="646"/>
      <point x="139" y="599"/>
    </contour>
  </outline>
</glyph>
<glyph name="asterisk" format="2">
  <advance width="382"/>
  <unicode hex="002A"/>
  <outline>
    <contour>
      <point x="184" y="425" type="line"/>
      <point x="219" y="473"/>
      <point x="239" y="511"/>
      <point x="256" y="537" type="curve"/>
      <point x="272" y="511"/>
      <point x="294" y="474"/>
      <point x="328" y="424" type="curve"/>
      <point x="350" y="440" type="line"/>
      <point x="318" y="492"/>
      <point x="290" y="525"/>
      <point x="271" y="550" type="curve"/>
      <point x="299" y="558"/>
      <point x="341" y="567"/>
      <point x="396" y="588" type="curve"/>
      <point x="387" y="613" type="line"/>
      <point x="333" y="595"/>
      <point x="293" y="578"/>
      <point x="267" y="568" type="curve"/>
      <point x="268" y="599"/>
      <point x="273" y="643"/>
      <point x="271" y="707" type="curve"/>
      <point x="244" y="707" type="line"/>
      <point x="243" y="644"/>
      <point x="247" y="599"/>
      <point x="249" y="567" type="curve"/>
      <point x="221" y="578"/>
      <point x="182" y="596"/>
      <point x="126" y="614" type="curve"/>
      <point x="118" y="588" type="line"/>
      <point x="171" y="567"/>
      <point x="212" y="557"/>
      <point x="241" y="549" type="curve"/>
      <point x="223" y="526"/>
      <point x="194" y="493"/>
      <point x="162" y="441" type="curve"/>
    </contour>
  </outline>
</glyph>
<glyph name="comma" format="2">
  <advance width="183"/>
  <unicode hex="002C"/>
  <outline>
    <contour>
      <point x="-22" y="-131" type="line"/>
      <point x="25" y="-75"/>
      <point x="65" y="-1"/>
      <point x="72" y="67" type="curve"/>
      <point x="37" y="67" type="line"/>
      <point x="32" y="13"/>
      <point x="-1" y="-66"/>
      <point x="-38" y="-121" type="curve"/>
    </contour>
  </outline>
</glyph>
<glyph name="zero" format="2">
  <advance width="420"/>
  <unicode hex="0030"/>
  <outline>
    <contour>
      <point x="151" y="-10" type="curve" smooth="yes"/>
      <point x="286" y="-10"/>
      <point x="406" y="260"/>
      <point x="406" y="544" type="curve" smooth="yes"/>
      <point x="406" y="654"/>
      <point x="382" y="707"/>
      <point x="316" y="707" type="curve" smooth="yes"/>
      <point x="179" y="707"/>
      <point x="58" y="445"/>
      <point x="58" y="161" type="curve" smooth="yes"/>
      <point x="58" y="47"/>
      <point x="85" y="-10"/>
    </contour>
    <contour>
      <point x="156" y="17" type="curve" smooth="yes"/>
      <point x="106" y="17"/>
      <point x="88" y="61"/>
      <point x="88" y="166" type="curve" smooth="yes"/>
      <point x="88" y="420"/>
      <point x="199" y="681"/>
      <point x="311" y="681" type="curve" smooth="yes"/>
      <point x="360" y="681"/>
      <point x="376" y="636"/>
      <point x="376" y="537" type="curve" smooth="yes"/>
      <point x="376" y="283"/>
      <point x="267" y="17"/>
    </contour>
  </outline>
</glyph>
<glyph name="two" format="2">
  <advance width="420"/>
  <unicode hex="0032"/>
  <outline>
    <contour>
      <point x="48" y="0" type="curve"/>
      <point x="320" y="0" type="line"/>
      <point x="327" y="33" type="line"/>
      <point x="86" y="33" type="line"/>
      <point x="104" y="125"/>
      <point x="171" y="226"/>
      <point x="258" y="306" type="curve" smooth="yes"/>
      <point x="359" y="398"/>
      <point x="402" y="488"/>
      <point x="402" y="575" type="curve" smooth="yes"/>
      <point x="402" y="661"/>
      <point x="359" y="707"/>
      <point x="285" y="707" type="curve" smooth="yes"/>
      <point x="234" y="707"/>
      <point x="188" y="689"/>
      <point x="151" y="655" type="curve"/>
      <point x="164" y="630" type="line"/>
      <point x="201" y="660"/>
      <point x="241" y="676"/>
      <point x="282" y="676" type="curve" smooth="yes"/>
      <point x="339" y="676"/>
      <point x="370" y="642"/>
      <point x="370" y="570" type="curve" smooth="yes"/>
      <point x="370" y="491"/>
      <point x="322" y="406"/>
      <point x="223" y="314" type="curve" smooth="yes"/>
      <point x="130" y="228"/>
      <point x="61" y="113"/>
    </contour>
  </outline>
</glyph>
<glyph name="five" format="2">
  <advance width="420"/>
  <unicode hex="0035"/>
  <outline>
    <contour>
      <point x="125" y="-15" type="curve" smooth="yes"/>
      <point x="242" y="-15"/>
      <point x="338" y="96"/>
      <point x="338" y="241" type="curve" smooth="yes"/>
      <point x="338" y="331"/>
      <point x="289" y="384"/>
      <point x="169" y="405" type="curve"/>
      <point x="199" y="494"/>
      <point x="222" y="570"/>
      <point x="245" y="664" type="curve"/>
      <point x="431" y="664" type="line"/>
      <point x="439" y="693" type="line"/>
      <point x="225" y="693" type="line"/>
      <point x="206" y="612"/>
      <point x="171" y="494"/>
      <point x="133" y="380" type="curve"/>
      <point x="248" y="374"/>
      <point x="307" y="325"/>
      <point x="307" y="236" type="curve" smooth="yes"/>
      <point x="307" y="117"/>
      <point x="227" y="11"/>
      <point x="131" y="11" type="curve" smooth="yes"/>
      <point x="101" y="11"/>
      <point x="58" y="21"/>
      <point x="29" y="40" type="curve"/>
      <point x="14" y="16" type="line"/>
      <point x="52" y="-6"/>
      <point x="87" y="-15"/>
    </contour>
  </outline>
</glyph>
<glyph name="at" format="2">
  <advance width="792"/>
  <unicode hex="0040"/>
  <outline>
    <contour>
      <point x="344" y="-147" type="curve" smooth="yes"/>
      <point x="385" y="-147"/>
      <point x="422" y="-143"/>
      <point x="452" y="-133" type="curve"/>
      <point x="454" y="-105" type="line"/>
      <point x="419" y="-116"/>
      <point x="384" y="-121"/>
      <point x="350" y="-121" type="curve" smooth="yes"/>
      <point x="195" y="-121"/>
      <point x="114" y="-9"/>
      <point x="114" y="195" type="curve" smooth="yes"/>
      <point x="114" y="455"/>
      <point x="282" y="675"/>
      <point x="480" y="675" type="curve" smooth="yes"/>
      <point x="625" y="675"/>
      <point x="697" y="586"/>
      <point x="697" y="403" type="curve" smooth="yes"/>
      <point x="697" y="236"/>
      <point x="635" y="95"/>
      <point x="554" y="95" type="curve" smooth="yes"/>
      <point x="525" y="95"/>
      <point x="494" y="116"/>
      <point x="494" y="167" type="curve" smooth="yes"/>
      <point x="494" y="178"/>
      <point x="497" y="189"/>
      <point x="499" y="203" type="curve" smooth="yes"/>
      <point x="566" y="479" type="line"/>
      <point x="540" y="490"/>
      <point x="501" y="497"/>
      <point x="474" y="497" type="curve" smooth="yes"/>
      <point x="356" y="497"/>
      <point x="263" y="359"/>
      <point x="263" y="190" type="curve" smooth="yes"/>
      <point x="263" y="107"/>
      <point x="295" y="67"/>
      <point x="361" y="67" type="curve" smooth="yes"/>
      <point x="397" y="67"/>
      <point x="437" y="84"/>
      <point x="475" y="120" type="curve"/>
      <point x="492" y="80"/>
      <point x="529" y="69"/>
      <point x="552" y="69" type="curve" smooth="yes"/>
      <point x="652" y="69"/>
      <point x="725" y="214"/>
      <point x="725" y="411" type="curve" smooth="yes"/>
      <point x="725" y="598"/>
      <point x="640" y="702"/>
      <point x="486" y="702" type="curve" smooth="yes"/>
      <point x="267" y="702"/>
      <point x="84" y="467"/>
      <point x="84" y="187" type="curve" smooth="yes"/>
      <point x="84" y="-27"/>
      <point x="176" y="-147"/>
    </contour>
    <contour>
      <point x="363" y="95" type="curve" smooth="yes"/>
      <point x="313" y="95"/>
      <point x="291" y="123"/>
      <point x="291" y="190" type="curve" smooth="yes"/>
      <point x="291" y="340"/>
      <point x="372" y="469"/>
      <point x="467" y="469" type="curve" smooth="yes"/>
      <point x="486" y="469"/>
      <point x="502" y="468"/>
      <point x="531" y="458" type="curve"/>
      <point x="473" y="217" type="line" smooth="yes"/>
      <point x="466" y="190"/>
      <point x="465" y="168"/>
      <point x="468" y="148" type="curve"/>
      <point x="431" y="113"/>
      <point x="394" y="95"/>
    </contour>
  </outline>
</glyph>
<glyph name="A" format="2">
  <advance width="453"/>
  <unicode hex="0041"/>
  <anchor x="159" y="0" name="bottom"/>
  <anchor x="285" y="10" name="ogonek"/>
  <anchor x="313" y="672" name="top"/>
  <outline>
    <contour>
      <point x="-33" y="0" type="curve"/>
      <point x="-4" y="0" type="line"/>
      <point x="18" y="62"/>
      <point x="48" y="131"/>
      <point x="80" y="203" type="curve"/>
      <point x="339" y="203" type="line"/>
      <point x="338" y="131"/>
      <point x="336" y="65"/>
      <point x="334" y="0" type="curve"/>
      <point x="364" y="0" type="line"/>
      <point x="373" y="212"/>
      <point x="366" y="445"/>
      <point x="341" y="693" type="curve"/>
      <point x="304" y="693" type="line"/>
      <point x="179" y="479"/>
      <point x="44" y="211"/>
    </contour>
    <contour>
      <point x="93" y="231" type="line"/>
      <point x="158" y="375"/>
      <point x="239" y="529"/>
      <point x="317" y="661" type="curve"/>
      <point x="331" y="509"/>
      <point x="336" y="365"/>
      <point x="339" y="231" type="curve"/>
    </contour>
  </outline>
</glyph>
<glyph name="D" format="2">
  <advance width="540"/>
  <unicode hex="0044"/>
  <anchor x="145" y="0" name="bottom"/>
  <anchor x="228" y="347" name="center"/>
  <anchor x="308" y="672" name="top"/>
  <outline>
    <contour>
      <point x="140" y="-2" type="curve" smooth="yes"/>
      <point x="352" y="-2"/>
      <point x="506" y="214"/>
      <point x="506" y="479" type="curve" smooth="yes"/>
      <point x="506" y="618"/>
      <point x="446" y="697"/>
      <point x="318" y="697" type="curve" smooth="yes"/>
      <point x="278" y="697"/>
      <point x="237" y="695"/>
      <point x="190" y="683" type="curve"/>
      <point x="30" y="12" type="line"/>
      <point x="55" y="5"/>
      <point x="103" y="-2"/>
    </contour>
    <contour>
      <point x="146" y="26" type="curve" smooth="yes"/>
      <point x="127" y="26"/>
      <point x="98" y="29"/>
      <point x="64" y="34" type="curve"/>
      <point x="214" y="660" type="line"/>
      <point x="246" y="666"/>
      <point x="279" y="668"/>
      <point x="311" y="668" type="curve" smooth="yes"/>
      <point x="428" y="668"/>
      <point x="476" y="606"/>
      <point x="476" y="472" type="curve" smooth="yes"/>
      <point x="476" y="234"/>
      <point x="336" y="26"/>
    </contour>
  </outline>
</glyph>
<glyph name="E" format="2">
  <advance width="402"/>
  <unicode hex="0045"/>
  <anchor x="157" y="0" name="bottom"/>
  <anchor x="240" y="10" name="ogonek"/>
  <anchor x="315" y="672" name="top"/>
  <anchor x="62" y="693" name="topleft"/>
  <outline>
    <contour>
      <point x="26" y="0" type="line"/>
      <point x="312" y="0" type="line"/>
      <point x="318" y="27" type="line"/>
      <point x="61" y="27" type="line"/>
      <point x="140" y="351" type="line"/>
      <point x="351" y="351" type="line"/>
      <point x="358" y="380" type="line"/>
      <point x="145" y="380" type="line"/>
      <point x="215" y="667" type="line"/>
      <point x="455" y="667" type="line"/>
      <point x="460" y="693" type="line"/>
      <point x="192" y="693" type="line"/>
    </contour>
  </outline>
</glyph>
<glyph name="F" format="2">
  <advance width="377"/>
  <unicode hex="0046"/>
  <outline>
    <contour>
      <point x="26" y="0" type="line"/>
      <point x="56" y="0" type="line"/>
      <point x="139" y="351" type="line"/>
      <point x="347" y="351" type="line"/>
      <point x="354" y="378" type="line"/>
      <point x="146" y="378" type="line"/>
      <point x="215" y="667" type="line"/>
      <point x="451" y="667" type="line"/>
      <point x="456" y="693" type="line"/>
      <point x="192" y="693" type="line"/>
    </contour>
  </outline>
</glyph>
<glyph name="I" format="2">
  <advance width="205"/>
  <unicode hex="0049"/>
  <anchor x="36" y="-21" name="bottom"/>
  <anchor x="62" y="10" name="ogonek"/>
  <anchor x="202" y="672" name="top"/>
  <anchor x="61" y="693" name="topleft"/>
  <outline>
    <contour>
      <point x="26" y="0" type="line"/>
      <point x="55" y="0" type="line"/>
      <point x="221" y="693" type="line"/>
      <point x="192" y="693" type="line"/>
    </contour>
  </outline>
</glyph>
<glyph name="M" format="2">
  <advance width="670"/>
  <unicode hex="004D"/>
  <outline>
    <contour>
      <point x="17" y="0" type="curve"/>
      <point x="47" y="0" type="line"/>
      <point x="102" y="214"/>
      <point x="162" y="433"/>
      <point x="229" y="655" type="curve"/>
      <point x="265" y="457"/>
      <point x="270" y="282"/>
      <point x="279" y="103" type="curve"/>
      <point x="319" y="103" type="line"/>
      <point x="413" y="277"/>
      <point x="505" y="452"/>
      <point x="631" y="646" type="curve"/>
      <point x="591" y="429"/>
      <point x="547" y="211"/>
      <point x="501" y="0" type="curve"/>
      <point x="531" y="0" type="line"/>
      <point x="583" y="244"/>
      <point x="632" y="479"/>
      <point x="665" y="693" type="curve"/>
      <point x="631" y="693" type="line"/>
      <point x="520" y="530"/>
      <point x="423" y="349"/>
      <point x="304" y="128" type="curve"/>
      <point x="293" y="352"/>
      <point x="281" y="528"/>
      <point x="249" y="693" type="curve"/>
      <point x="215" y="693" type="line"/>
      <point x="145" y="479"/>
      <point x="81" y="244"/>
    </contour>
  </outline>
</glyph>
<glyph name="O" format="2">
  <advance width="571"/>
  <unicode hex="004F"/>
  <anchor x="226" y="0" name="bottom"/>
  <anchor x="309" y="347" name="center"/>
  <anchor x="391" y="10" name="ogonek"/>
  <anchor x="390" y="672" name="top"/>
  <anchor x="62" y="693" name="topleft"/>
  <anchor x="592" y="693" name="topright"/>
  <outline>
    <contour>
      <point x="226" y="-9" type="curve" smooth="yes"/>
      <point x="392" y="-9"/>
      <point x="539" y="222"/>
      <point x="539" y="501" type="curve" smooth="yes"/>
      <point x="539" y="632"/>
      <point x="487" y="703"/>
      <point x="388" y="703" type="curve" smooth="yes"/>
      <point x="223" y="703"/>
      <point x="76" y="476"/>
      <point x="76" y="199" type="curve" smooth="yes"/>
      <point x="76" y="64"/>
      <point x="127" y="-9"/>
    </contour>
    <contour>
      <point x="231" y="18" type="curve" smooth="yes"/>
      <point x="143" y="18"/>
      <point x="107" y="75"/>
      <point x="107" y="206" type="curve" smooth="yes"/>
      <point x="107" y="460"/>
      <point x="239" y="676"/>
      <point x="385" y="676" type="curve" smooth="yes"/>
      <point x="468" y="676"/>
      <point x="508" y="619"/>
      <point x="508" y="493" type="curve" smooth="yes"/>
      <point x="508" y="235"/>
      <point x="375" y="18"/>
    </contour>
  </outline>
</glyph>
<glyph name="P" format="2">
  <advance width="446"/>
  <unicode hex="0050"/>
  <outline>
    <contour>
      <point x="26" y="0" type="line"/>
      <point x="56" y="0" type="line"/>
      <point x="122" y="280" type="line"/>
      <point x="187" y="280" type="line" smooth="yes"/>
      <point x="364" y="280"/>
      <point x="475" y="398"/>
      <point x="475" y="546" type="curve" smooth="yes"/>
      <point x="475" y="650"/>
      <point x="418" y="697"/>
      <point x="312" y="697" type="curve" smooth="yes"/>
      <point x="278" y="697"/>
      <point x="230" y="694"/>
      <point x="190" y="683" type="curve"/>
    </contour>
    <contour>
      <point x="130" y="309" type="line"/>
      <point x="214" y="660" type="line"/>
      <point x="243" y="667"/>
      <point x="280" y="668"/>
      <point x="308" y="668" type="curve" smooth="yes"/>
      <point x="397" y="668"/>
      <point x="443" y="636"/>
      <point x="443" y="544" type="curve" smooth="yes"/>
      <point x="443" y="413"/>
      <point x="354" y="309"/>
      <point x="195" y="309" type="curve" smooth="yes"/>
    </contour>
  </outline>
</glyph>
<glyph name="Q" format="2">
  <advance width="574"/>
  <unicode hex="0051"/>
  <outline>
    <contour>
      <point x="401" y="-161" type="curve"/>
      <point x="413" y="-130" type="line"/>
      <point x="327" y="-118"/>
      <point x="256" y="-77"/>
      <point x="257" y="-13" type="curve" smooth="yes"/>
      <point x="257" y="-11"/>
      <point x="257" y="-8"/>
      <point x="257" y="-5" type="curve"/>
      <point x="410" y="20"/>
      <point x="539" y="238"/>
      <point x="539" y="501" type="curve" smooth="yes"/>
      <point x="539" y="632"/>
      <point x="487" y="703"/>
      <point x="388" y="703" type="curve" smooth="yes"/>
      <point x="223" y="703"/>
      <point x="76" y="476"/>
      <point x="76" y="199" type="curve" smooth="yes"/>
      <point x="76" y="62"/>
      <point x="128" y="-10"/>
      <point x="228" y="-9" type="curve"/>
      <point x="228" y="-12"/>
      <point x="228" y="-15"/>
      <point x="228" y="-18" type="curve" smooth="yes"/>
      <point x="227" y="-101"/>
      <point x="308" y="-144"/>
    </contour>
    <contour>
      <point x="231" y="18" type="curve" smooth="yes"/>
      <point x="143" y="18"/>
      <point x="107" y="75"/>
      <point x="107" y="206" type="curve" smooth="yes"/>
      <point x="107" y="460"/>
      <point x="239" y="676"/>
      <point x="385" y="676" type="curve" smooth="yes"/>
      <point x="468" y="676"/>
      <point x="508" y="619"/>
      <point x="508" y="493" type="curve" smooth="yes"/>
      <point x="508" y="235"/>
      <point x="375" y="18"/>
    </contour>
  </outline>
</glyph>
<glyph name="V" format="2">
  <advance width="438"/>
  <unicode hex="0056"/>
  <outline>
    <contour>
      <point x="147" y="0" type="curve"/>
      <point x="183" y="0" type="line"/>
      <point x="326" y="257"/>
      <point x="436" y="482"/>
      <point x="514" y="693" type="curve"/>
      <point x="484" y="693" type="line"/>
      <point x="413" y="500"/>
      <point x="308" y="280"/>
      <point x="172" y="32" type="curve"/>
      <point x="148" y="286"/>
      <point x="149" y="498"/>
      <point x="161" y="693" type="curve"/>
      <point x="131" y="693" type="line"/>
      <point x="116" y="480"/>
      <point x="123" y="260"/>
    </contour>
  </outline>
</glyph>
<glyph name="bracketright" format="2">
  <advance width="223"/>
  <unicode hex="005D"/>
  <outline>
    <contour>
      <point x="-90" y="-185" type="line"/>
      <point x="33" y="-185" type="line"/>
      <point x="265" y="783" type="line"/>
      <point x="142" y="783" type="line"/>
      <point x="135" y="757" type="line"/>
      <point x="231" y="757" type="line"/>
      <point x="12" y="-158" type="line"/>
      <point x="-84" y="-158" type="line"/>
    </contour>
  </outline>
</glyph>
<glyph name="f" format="2">
  <advance width="268"/>
  <unicode hex="0066"/>
  <outline>
    <contour>
      <point x="-43" y="-189" type="line"/>
      <point x="10" y="-126"/>
      <point x="35" y="-55"/>
      <point x="57" y="39" type="curve" smooth="yes"/>
      <point x="165" y="490" type="line"/>
      <point x="295" y="490" type="line"/>
      <point x="301" y="516" type="line"/>
      <point x="170" y="516" type="line"/>
      <point x="192" y="607" type="line" smooth="yes"/>
      <point x="221" y="727"/>
      <point x="275" y="752"/>
      <point x="329" y="752" type="curve" smooth="yes"/>
      <point x="349" y="752"/>
      <point x="368" y="748"/>
      <point x="383" y="741" type="curve"/>
      <point x="391" y="766" type="line"/>
      <point x="374" y="772"/>
      <point x="357" y="776"/>
      <point x="335" y="776" type="curve" smooth="yes"/>
      <point x="277" y="776"/>
      <point x="201" y="755"/>
      <point x="166" y="609" type="curve" smooth="yes"/>
      <point x="20" y="4" type="line" smooth="yes"/>
      <point x="1" y="-76"/>
      <point x="-20" y="-122"/>
      <point x="-66" y="-183" type="curve"/>
    </contour>
  </outline>
</glyph>
<glyph name="h" format="2">
  <advance width="446"/>
  <unicode hex="0068"/>
  <anchor x="99" y="0" name="bottom"/>
  <anchor x="192" y="388" name="center"/>
  <anchor x="222" y="776" name="top"/>
  <outline>
    <contour>
      <point x="22" y="0" type="line"/>
      <point x="49" y="0" type="line"/>
      <point x="165" y="485" type="line"/>
      <point x="195" y="494"/>
      <point x="233" y="504"/>
      <point x="265" y="504" type="curve" smooth="yes"/>
      <point x="333" y="504"/>
      <point x="364" y="473"/>
      <point x="364" y="404" type="curve" smooth="yes"/>
      <point x="364" y="378"/>
      <point x="359" y="348"/>
      <point x="350" y="311" type="curve" smooth="yes"/>
      <point x="276" y="0" type="line"/>
      <point x="303" y="0" type="line"/>
      <point x="380" y="319" type="line" smooth="yes"/>
      <point x="388" y="353"/>
      <point x="392" y="381"/>
      <point x="392" y="406" type="curve" smooth="yes"/>
      <point x="392" y="489"/>
      <point x="349" y="528"/>
      <point x="265" y="528" type="curve" smooth="yes"/>
      <point x="237" y="528"/>
      <point x="205" y="520"/>
      <point x="172" y="510" type="curve"/>
      <point x="235" y="776" type="line"/>
      <point x="207" y="770" type="line"/>
    </contour>
  </outline>
</glyph>
<glyph name="k" format="2">
  <advance width="378"/>
  <unicode hex="006B"/>
  <anchor x="141" y="0" name="bottom"/>
  <anchor x="220" y="776" name="top"/>
  <outline>
    <contour>
      <point x="22" y="0" type="line"/>
      <point x="51" y="0" type="line"/>
      <point x="114" y="269" type="line"/>
      <point x="170" y="218"/>
      <point x="233" y="134"/>
      <point x="283" y="0" type="curve"/>
      <point x="311" y="0" type="line"/>
      <point x="282" y="79"/>
      <point x="226" y="195"/>
      <point x="147" y="278" type="curve"/>
      <point x="213" y="329"/>
      <point x="346" y="463"/>
      <point x="376" y="516" type="curve"/>
      <point x="345" y="516" type="line"/>
      <point x="315" y="469"/>
      <point x="204" y="354"/>
      <point x="117" y="284" type="curve"/>
      <point x="237" y="776" type="line"/>
      <point x="207" y="770" type="line"/>
    </contour>
  </outline>
</glyph>
<glyph name="l" format="2">
  <advance width="225"/>
  <unicode hex="006C"/>
  <anchor x="39" y="0" name="bottom"/>
  <anchor x="135" y="388" name="center"/>
  <anchor x="214" y="776" name="top"/>
  <anchor x="227" y="776" name="topright"/>
  <outline>
    <contour>
      <point x="136" y="-10" type="curve"/>
      <point x="142" y="16" type="line"/>
      <point x="44" y="34"/>
      <point x="76" y="147"/>
      <point x="93" y="216" type="curve" smooth="yes"/>
      <point x="227" y="776" type="line"/>
      <point x="199" y="770" type="line"/>
      <point x="63" y="201" type="line" smooth="yes"/>
      <point x="45" y="126"/>
      <point x="19" y="14"/>
    </contour>
  </outline>
</glyph>
<glyph name="o" format="2">
  <advance width="410"/>
  <unicode hex="006F"/>
  <anchor x="140" y="0" name="bottom"/>
  <anchor x="202" y="258" name="center"/>
  <anchor x="247" y="10" name="ogonek"/>
  <anchor x="264" y="516" name="top"/>
  <anchor x="389" y="516" name="topright"/>
  <outline>
    <contour>
      <point x="148" y="-10" type="curve" smooth="yes"/>
      <point x="268" y="-10"/>
      <point x="371" y="169"/>
      <point x="371" y="384" type="curve" smooth="yes"/>
      <point x="371" y="477"/>
      <point x="333" y="529"/>
      <point x="264" y="529" type="curve" smooth="yes"/>
      <point x="142" y="529"/>
      <point x="40" y="353"/>
      <point x="40" y="139" type="curve" smooth="yes"/>
      <point x="40" y="42"/>
      <point x="76" y="-10"/>
    </contour>
    <contour>
      <point x="150" y="16" type="curve" smooth="yes"/>
      <point x="93" y="16"/>
      <point x="69" y="56"/>
      <point x="69" y="144" type="curve" smooth="yes"/>
      <point x="69" y="337"/>
      <point x="158" y="501"/>
      <point x="260" y="501" type="curve" smooth="yes"/>
      <point x="317" y="501"/>
      <point x="342" y="464"/>
      <point x="342" y="379" type="curve" smooth="yes"/>
      <point x="342" y="182"/>
      <point x="253" y="16"/>
    </contour>
  </outline>
</glyph>
<glyph name="p" format="2">
  <advance width="427"/>
  <unicode hex="0070"/>
  <outline>
    <contour>
      <point x="-22" y="-185" type="line"/>
      <point x="5" y="-185" type="line"/>
      <point x="51" y="3" type="line"/>
      <point x="76" y="-5"/>
      <point x="104" y="-10"/>
      <point x="127" y="-10" type="curve" smooth="yes"/>
      <point x="271" y="-10"/>
      <point x="388" y="161"/>
      <point x="388" y="372" type="curve" smooth="yes"/>
      <point x="388" y="477"/>
      <point x="346" y="528"/>
      <point x="262" y="528" type="curve"/>
      <point x="234" y="528"/>
      <point x="189" y="522"/>
      <point x="143" y="503" type="curve"/>
    </contour>
    <contour>
      <point x="137" y="17" type="curve" smooth="yes"/>
      <point x="108" y="17"/>
      <point x="79" y="21"/>
      <point x="58" y="31" type="curve"/>
      <point x="167" y="485" type="line"/>
      <point x="193" y="497"/>
      <point x="229" y="503"/>
      <point x="259" y="503" type="curve" smooth="yes"/>
      <point x="326" y="503"/>
      <point x="359" y="463"/>
      <point x="359" y="371" type="curve" smooth="yes"/>
      <point x="359" y="181"/>
      <point x="255" y="17"/>
    </contour>
  </outline>
</glyph>
<glyph name="q" format="2">
  <advance width="425"/>
  <unicode hex="0071"/>
  <outline>
    <contour>
      <point x="206" y="-185" type="line"/>
      <point x="234" y="-185" type="line"/>
      <point x="400" y="505" type="line"/>
      <point x="369" y="520"/>
      <point x="329" y="528"/>
      <point x="297" y="528" type="curve" smooth="yes"/>
      <point x="154" y="528"/>
      <point x="38" y="356"/>
      <point x="38" y="143" type="curve" smooth="yes"/>
      <point x="38" y="40"/>
      <point x="74" y="-11"/>
      <point x="148" y="-11" type="curve" smooth="yes"/>
      <point x="184" y="-11"/>
      <point x="224" y="6"/>
      <point x="258" y="29" type="curve"/>
    </contour>
    <contour>
      <point x="149" y="17" type="curve" smooth="yes"/>
      <point x="91" y="17"/>
      <point x="66" y="55"/>
      <point x="66" y="144" type="curve" smooth="yes"/>
      <point x="66" y="336"/>
      <point x="171" y="501"/>
      <point x="289" y="501" type="curve" smooth="yes"/>
      <point x="318" y="501"/>
      <point x="346" y="496"/>
      <point x="368" y="487" type="curve"/>
      <point x="267" y="65" type="line"/>
      <point x="231" y="35"/>
      <point x="186" y="17"/>
    </contour>
  </outline>
</glyph>
<glyph name="s" format="2">
  <advance width="304"/>
  <unicode hex="0073"/>
  <anchor x="103" y="0" name="bottom"/>
  <anchor x="209" y="516" name="top"/>
  <outline>
    <contour>
      <point x="77" y="-10" type="curve" smooth="yes"/>
      <point x="171" y="-10"/>
      <point x="238" y="57"/>
      <point x="238" y="150" type="curve" smooth="yes"/>
      <point x="238" y="208"/>
      <point x="220" y="231"/>
      <point x="163" y="274" type="curve" smooth="yes"/>
      <point x="110" y="312"/>
      <point x="95" y="336"/>
      <point x="95" y="380" type="curve" smooth="yes"/>
      <point x="95" y="454"/>
      <point x="144" y="502"/>
      <point x="213" y="502" type="curve" smooth="yes"/>
      <point x="238" y="502"/>
      <point x="268" y="497"/>
      <point x="290" y="486" type="curve"/>
      <point x="299" y="513" type="line"/>
      <point x="276" y="523"/>
      <point x="249" y="529"/>
      <point x="218" y="529" type="curve" smooth="yes"/>
      <point x="130" y="529"/>
      <point x="68" y="466"/>
      <point x="68" y="379" type="curve" smooth="yes"/>
      <point x="68" y="320"/>
      <point x="88" y="297"/>
      <point x="146" y="254" type="curve" smooth="yes"/>
      <point x="197" y="216"/>
      <point x="212" y="194"/>
      <point x="212" y="149" type="curve" smooth="yes"/>
      <point x="212" y="69"/>
      <point x="159" y="16"/>
      <point x="81" y="16" type="curve" smooth="yes"/>
      <point x="53" y="16"/>
      <point x="19" y="23"/>
      <point x="-14" y="36" type="curve"/>
      <point x="-23" y="10" type="line"/>
      <point x="12" y="-5"/>
      <point x="50" y="-10"/>
    </contour>
  </outline>
</glyph>
<glyph name="braceleft" format="2">
  <advance width="231"/>
  <unicode hex="007B"/>
  <outline>
    <contour>
      <point x="102" y="-185" type="curve"/>
      <point x="109" y="-159" type="line"/>
      <point x="62" y="-159"/>
      <point x="34" y="-141"/>
      <point x="56" y="-54" type="curve" smooth="yes"/>
      <point x="108" y="163" type="line" smooth="yes"/>
      <point x="121" y="226"/>
      <point x="117" y="268"/>
      <point x="75" y="296" type="curve"/>
      <point x="131" y="321"/>
      <point x="157" y="367"/>
      <point x="173" y="434" type="curve" smooth="yes"/>
      <point x="227" y="660" type="line" smooth="yes"/>
      <point x="244" y="734"/>
      <point x="274" y="756"/>
      <point x="328" y="756" type="curve"/>
      <point x="334" y="783" type="line"/>
      <point x="263" y="783"/>
      <point x="221" y="749"/>
      <point x="199" y="659" type="curve" smooth="yes"/>
      <point x="145" y="436" type="line" smooth="yes"/>
      <point x="126" y="357"/>
      <point x="95" y="316"/>
      <point x="47" y="312" type="curve"/>
      <point x="41" y="286" type="line"/>
      <point x="81" y="280"/>
      <point x="99" y="240"/>
      <point x="80" y="161" type="curve" smooth="yes"/>
      <point x="29" y="-53" type="line" smooth="yes"/>
      <point x="5" y="-153"/>
      <point x="37" y="-185"/>
    </contour>
  </outline>
</glyph>
<glyph name="asciitilde" format="2">
  <advance width="420"/>
  <unicode hex="007E"/>
  <outline>
    <contour>
      <point x="285" y="240" type="curve" smooth="yes"/>
      <point x="323" y="240"/>
      <point x="368" y="261"/>
      <point x="400" y="345" type="curve"/>
      <point x="374" y="353" type="line"/>
      <point x="347" y="276"/>
      <point x="308" y="269"/>
      <point x="292" y="269" type="curve" smooth="yes"/>
      <point x="243" y="269"/>
      <point x="219" y="357"/>
      <point x="154" y="357" type="curve" smooth="yes"/>
      <point x="116" y="357"/>
      <point x="70" y="335"/>
      <point x="40" y="250" type="curve"/>
      <point x="65" y="243" type="line"/>
      <point x="90" y="319"/>
      <point x="130" y="326"/>
      <point x="146" y="326" type="curve" smooth="yes"/>
      <point x="194" y="326"/>
      <point x="221" y="240"/>
    </contour>
  </outline>
</glyph>
<glyph name="cent" format="2">
  <advance width="420"/>
  <unicode hex="00A2"/>
  <outline>
    <contour>
      <point x="138" y="-100" type="line"/>
      <point x="167" y="-100" type="line"/>
      <point x="198" y="31" type="line"/>
      <point x="233" y="32"/>
      <point x="266" y="41"/>
      <point x="295" y="63" type="curve"/>
      <point x="289" y="90" type="line"/>
      <point x="266" y="71"/>
      <point x="233" y="57"/>
      <point x="201" y="57" type="curve" smooth="yes"/>
      <point x="128" y="57"/>
      <point x="99" y="98"/>
      <point x="99" y="201" type="curve" smooth="yes"/>
      <point x="99" y="392"/>
      <point x="201" y="522"/>
      <point x="316" y="522" type="curve" smooth="yes"/>
      <point x="341" y="522"/>
      <point x="364" y="518"/>
      <point x="384" y="507" type="curve"/>
      <point x="395" y="536" type="line"/>
      <point x="372" y="545"/>
      <point x="347" y="550"/>
      <point x="323" y="550" type="curve"/>
      <point x="355" y="685" type="line"/>
      <point x="326" y="685" type="line"/>
      <point x="293" y="546" type="line"/>
      <point x="169" y="529"/>
      <point x="71" y="394"/>
      <point x="71" y="197" type="curve" smooth="yes"/>
      <point x="71" y="98"/>
      <point x="103" y="44"/>
      <point x="169" y="32" type="curve"/>
    </contour>
  </outline>
</glyph>
<glyph name="sterling" format="2">
  <advance width="420"/>
  <unicode hex="00A3"/>
  <outline>
    <contour>
      <point x="36" y="0" type="curve"/>
      <point x="311" y="0" type="line"/>
      <point x="319" y="29" type="line"/>
      <point x="78" y="29" type="line"/>
      <point x="117" y="123"/>
      <point x="151" y="244"/>
      <point x="170" y="323" type="curve"/>
      <point x="330" y="323" type="line"/>
      <point x="337" y="352" type="line"/>
      <point x="176" y="352" type="line"/>
      <point x="213" y="505" type="line" smooth="yes"/>
      <point x="244" y="635"/>
      <point x="294" y="674"/>
      <point x="358" y="674" type="curve" smooth="yes"/>
      <point x="392" y="674"/>
      <point x="418" y="666"/>
      <point x="440" y="654" type="curve"/>
      <point x="455" y="681" type="line"/>
      <point x="434" y="693"/>
      <point x="406" y="703"/>
      <point x="366" y="703" type="curve" smooth="yes"/>
      <point x="295" y="703"/>
      <point x="222" y="667"/>
      <point x="183" y="505" type="curve" smooth="yes"/>
      <point x="144" y="352" type="line"/>
      <point x="71" y="352" type="line"/>
      <point x="65" y="323" type="line"/>
      <point x="138" y="323" type="line"/>
      <point x="104" y="186"/>
      <point x="72" y="89"/>
    </contour>
  </outline>
</glyph>
<glyph name="yen" format="2">
  <advance width="420"/>
  <unicode hex="00A5"/>
  <outline>
    <contour>
      <point x="135" y="0" type="line"/>
      <point x="165" y="0" type="line"/>
      <point x="197" y="138" type="line"/>
      <point x="322" y="138" type="line"/>
      <point x="329" y="166" type="line"/>
      <point x="203" y="166" type="line"/>
      <point x="237" y="301" type="line"/>
      <point x="361" y="301" type="line"/>
      <point x="367" y="329" type="line"/>
      <point x="254" y="329" type="line"/>
      <point x="333" y="432"/>
      <point x="421" y="554"/>
      <point x="503" y="693" type="curve"/>
      <point x="472" y="693" type="line"/>
      <point x="412" y="587"/>
      <point x="334" y="476"/>
      <point x="227" y="334" type="curve"/>
      <point x="189" y="479"/>
      <point x="167" y="588"/>
      <point x="157" y="693" type="curve"/>
      <point x="128" y="693" type="line"/>
      <point x="142" y="554"/>
      <point x="170" y="432"/>
      <point x="201" y="329" type="curve"/>
      <point x="89" y="329" type="line"/>
      <point x="83" y="301" type="line"/>
      <point x="207" y="301" type="line"/>
      <point x="175" y="166" type="line"/>
      <point x="49" y="166" type="line"/>
      <point x="43" y="138" type="line"/>
      <point x="167" y="138" type="line"/>
    </contour>
  </outline>
</glyph>
<glyph name="brokenbar" format="2">
  <advance width="219"/>
  <unicode hex="00A6"/>
  <outline>
    <contour>
      <point x="132" y="414" type="line"/>
      <point x="162" y="414" type="line"/>
      <point x="250" y="783" type="line"/>
      <point x="221" y="783" type="line"/>
    </contour>
    <contour>
      <point x="-11" y="-185" type="line"/>
      <point x="18" y="-185" type="line"/>
      <point x="106" y="182" type="line"/>
      <point x="75" y="182" type="line"/>
    </contour>
  </outline>
</glyph>
<glyph name="section" format="2">
  <advance width="387"/>
  <unicode hex="00A7"/>
  <outline>
    <contour>
      <point x="85" y="-108" type="curve" smooth="yes"/>
      <point x="182" y="-108"/>
      <point x="255" y="-42"/>
      <point x="255" y="47" type="curve" smooth="yes"/>
      <point x="255" y="85"/>
      <point x="238" y="117"/>
      <point x="201" y="145" type="curve"/>
      <point x="286" y="169"/>
      <point x="346" y="248"/>
      <point x="346" y="331" type="curve" smooth="yes"/>
      <point x="346" y="379"/>
      <point x="321" y="412"/>
      <point x="263" y="447" type="curve" smooth="yes"/>
      <point x="211" y="480"/>
      <point x="184" y="514"/>
      <point x="184" y="558" type="curve" smooth="yes"/>
      <point x="184" y="631"/>
      <point x="238" y="675"/>
      <point x="314" y="675" type="curve" smooth="yes"/>
      <point x="345" y="675"/>
      <point x="382" y="667"/>
      <point x="411" y="655" type="curve"/>
      <point x="423" y="683" type="line"/>
      <point x="393" y="695"/>
      <point x="355" y="703"/>
      <point x="321" y="703" type="curve" smooth="yes"/>
      <point x="224" y="703"/>
      <point x="155" y="638"/>
      <point x="155" y="551" type="curve" smooth="yes"/>
      <point x="155" y="517"/>
      <point x="170" y="486"/>
      <point x="198" y="461" type="curve"/>
      <point x="119" y="427"/>
      <point x="63" y="360"/>
      <point x="63" y="273" type="curve" smooth="yes"/>
      <point x="63" y="222"/>
      <point x="88" y="183"/>
      <point x="148" y="146" type="curve" smooth="yes"/>
      <point x="200" y="116"/>
      <point x="227" y="85"/>
      <point x="227" y="42" type="curve" smooth="yes"/>
      <point x="227" y="-33"/>
      <point x="170" y="-81"/>
      <point x="91" y="-81" type="curve" smooth="yes"/>
      <point x="59" y="-81"/>
      <point x="23" y="-70"/>
      <point x="-7" y="-55" type="curve"/>
      <point x="-20" y="-84" type="line"/>
      <point x="9" y="-99"/>
      <point x="48" y="-108"/>
    </contour>
    <contour>
      <point x="178" y="161" type="curve"/>
      <point x="170" y="167" type="line"/>
      <point x="110" y="199"/>
      <point x="90" y="233"/>
      <point x="90" y="275" type="curve" smooth="yes"/>
      <point x="90" y="358"/>
      <point x="156" y="420"/>
      <point x="217" y="444" type="curve"/>
      <point x="242" y="427" type="line"/>
      <point x="299" y="396"/>
      <point x="318" y="365"/>
      <point x="318" y="326" type="curve" smooth="yes"/>
      <point x="318" y="245"/>
      <point x="256" y="182"/>
    </contour>
  </outline>
</glyph>
<glyph name="dieresis" format="2">
  <advance width="292.7"/>
  <unicode hex="00A8"/>
  <outline>
    <contour>
      <point x="369" y="641" type="curve" smooth="yes"/>
      <point x="385" y="641"/>
      <point x="397" y="654"/>
      <point x="397" y="673" type="curve" smooth="yes"/>
      <point x="397" y="686"/>
      <point x="388" y="698"/>
      <point x="372" y="698" type="curve" smooth="yes"/>
      <point x="353" y="698"/>
      <point x="344" y="681"/>
      <point x="344" y="665" type="curve" smooth="yes"/>
      <point x="344" y="653"/>
      <point x="354" y="641"/>
    </contour>
    <contour>
      <point x="242" y="641" type="curve" smooth="yes"/>
      <point x="258" y="641"/>
      <point x="270" y="654"/>
      <point x="270" y="673" type="curve" smooth="yes"/>
      <point x="270" y="686"/>
      <point x="260" y="698"/>
      <point x="246" y="698" type="curve" smooth="yes"/>
      <point x="226" y="698"/>
      <point x="217" y="681"/>
      <point x="217" y="665" type="curve" smooth="yes"/>
      <point x="217" y="653"/>
      <point x="227" y="641"/>
    </contour>
  </outline>
</glyph>
<glyph name="copyright" format="2">
  <advance width="706"/>
  <unicode hex="00A9"/>
  <outline>
    <contour>
      <point x="375" y="-15" type="curve" smooth="yes"/>
      <point x="555" y="-15"/>
      <point x="661" y="140"/>
      <point x="661" y="345" type="curve" smooth="yes"/>
      <point x="661" y="549"/>
      <point x="555" y="706"/>
      <point x="375" y="706" type="curve" smooth="yes"/>
      <point x="194" y="706"/>
      <point x="87" y="549"/>
      <point x="87" y="345" type="curve" smooth="yes"/>
      <point x="87" y="140"/>
      <point x="194" y="-15"/>
    </contour>
    <contour>
      <point x="389" y="144" type="curve" smooth="yes"/>
      <point x="416" y="144"/>
      <point x="444" y="149"/>
      <point x="466" y="162" type="curve"/>
      <point x="459" y="187" type="line"/>
      <point x="434" y="176"/>
      <point x="413" y="170"/>
      <point x="390" y="170" type="curve" smooth="yes"/>
      <point x="312" y="170"/>
      <point x="271" y="234"/>
      <point x="271" y="344" type="curve" smooth="yes"/>
      <point x="271" y="464"/>
      <point x="308" y="525"/>
      <point x="385" y="525" type="curve" smooth="yes"/>
      <point x="410" y="525"/>
      <point x="438" y="518"/>
      <point x="454" y="510" type="curve"/>
      <point x="462" y="535" type="line"/>
      <point x="441" y="545"/>
      <point x="413" y="551"/>
      <point x="387" y="551" type="curve" smooth="yes"/>
      <point x="291" y="551"/>
      <point x="242" y="478"/>
      <point x="242" y="343" type="curve" smooth="yes"/>
      <point x="242" y="218"/>
      <point x="296" y="144"/>
    </contour>
    <contour>
      <point x="375" y="10" type="curve" smooth="yes"/>
      <point x="217" y="10"/>
      <point x="114" y="143"/>
      <point x="114" y="345" type="curve" smooth="yes"/>
      <point x="114" y="545"/>
      <point x="215" y="680"/>
      <point x="375" y="680" type="curve" smooth="yes"/>
      <point x="527" y="680"/>
      <point x="633" y="548"/>
      <point x="633" y="345" type="curve" smooth="yes"/>
      <point x="633" y="145"/>
      <point x="530" y="10"/>
    </contour>
  </outline>
</glyph>
<glyph name="registered" format="2">
  <advance width="504"/>
  <unicode hex="00AE"/>
  <outline>
    <contour>
      <point x="319" y="293" type="curve" smooth="yes"/>
      <point x="444" y="293"/>
      <point x="518" y="394"/>
      <point x="518" y="532" type="curve" smooth="yes"/>
      <point x="518" y="670"/>
      <point x="444" y="773"/>
      <point x="319" y="773" type="curve" smooth="yes"/>
      <point x="194" y="773"/>
      <point x="119" y="670"/>
      <point x="119" y="532" type="curve" smooth="yes"/>
      <point x="119" y="395"/>
      <point x="194" y="293"/>
    </contour>
    <contour>
      <point x="319" y="318" type="curve" smooth="yes"/>
      <point x="214" y="318"/>
      <point x="146" y="404"/>
      <point x="146" y="532" type="curve" smooth="yes"/>
      <point x="146" y="661"/>
      <point x="214" y="748"/>
      <point x="319" y="748" type="curve" smooth="yes"/>
      <point x="420" y="748"/>
      <point x="491" y="663"/>
      <point x="491" y="532" type="curve" smooth="yes"/>
      <point x="491" y="405"/>
      <point x="422" y="318"/>
    </contour>
    <contour>
      <point x="248" y="404" type="line"/>
      <point x="276" y="404" type="line"/>
      <point x="276" y="510" type="line"/>
      <point x="295" y="510" type="line" smooth="yes"/>
      <point x="302" y="510"/>
      <point x="309" y="510"/>
      <point x="316" y="510" type="curve"/>
      <point x="339" y="478"/>
      <point x="361" y="436"/>
      <point x="377" y="404" type="curve"/>
      <point x="408" y="404" type="line"/>
      <point x="384" y="452"/>
      <point x="360" y="492"/>
      <point x="344" y="516" type="curve"/>
      <point x="378" y="530"/>
      <point x="394" y="555"/>
      <point x="394" y="587" type="curve" smooth="yes"/>
      <point x="394" y="637"/>
      <point x="368" y="665"/>
      <point x="308" y="665" type="curve" smooth="yes"/>
      <point x="288" y="665"/>
      <point x="269" y="662"/>
      <point x="248" y="657" type="curve"/>
    </contour>
    <contour>
      <point x="276" y="533" type="line"/>
      <point x="276" y="639" type="line"/>
      <point x="285" y="640"/>
      <point x="298" y="642"/>
      <point x="308" y="642" type="curve" smooth="yes"/>
      <point x="347" y="642"/>
      <point x="367" y="623"/>
      <point x="367" y="587" type="curve"/>
      <point x="367" y="551"/>
      <point x="346" y="533"/>
      <point x="308" y="533" type="curve" smooth="yes"/>
    </contour>
  </outline>
</glyph>
<glyph name="micro" format="2">
  <advance width="450"/>
  <unicode hex="00B5"/>
  <outline>
    <contour>
      <point x="-22" y="-185" type="line"/>
      <point x="6" y="-185" type="line"/>
      <point x="53" y="23" type="line" smooth="yes"/>
      <point x="56" y="36"/>
      <point x="59" y="49"/>
      <point x="62" y="61" type="curve"/>
      <point x="79" y="8"/>
      <point x="115" y="-10"/>
      <point x="172" y="-10" type="curve" smooth="yes"/>
      <point x="211" y="-9"/>
      <point x="255" y="14"/>
      <point x="295" y="46" type="curve"/>
      <point x="297" y="27"/>
      <point x="301" y="15"/>
      <point x="307" y="-5" type="curve"/>
      <point x="338" y="1" type="line"/>
      <point x="327" y="39"/>
      <point x="316" y="63"/>
      <point x="339" y="160" type="curve" smooth="yes"/>
      <point x="424" y="516" type="line"/>
      <point x="397" y="516" type="line"/>
      <point x="318" y="191" type="line" smooth="yes"/>
      <point x="305" y="138"/>
      <point x="298" y="103"/>
      <point x="296" y="77" type="curve"/>
      <point x="256" y="40"/>
      <point x="211" y="15"/>
      <point x="174" y="15" type="curve" smooth="yes"/>
      <point x="89" y="15"/>
      <point x="69" y="82"/>
      <point x="95" y="192" type="curve" smooth="yes"/>
      <point x="173" y="516" type="line"/>
      <point x="146" y="516" type="line"/>
    </contour>
  </outline>
</glyph>
<glyph name="paragraph" format="2">
  <advance width="433"/>
  <unicode hex="00B6"/>
  <outline>
    <contour>
      <point x="110" y="-185" type="line"/>
      <point x="140" y="-185" type="line"/>
      <point x="346" y="670" type="line"/>
      <point x="371" y="674"/>
      <point x="398" y="672"/>
      <point x="417" y="668" type="curve"/>
      <point x="214" y="-185" type="line"/>
      <point x="243" y="-185" type="line"/>
      <point x="452" y="686" type="line"/>
      <point x="441" y="692"/>
      <point x="409" y="697"/>
      <point x="383" y="697" type="curve" smooth="yes"/>
      <point x="222" y="697"/>
      <point x="77" y="589"/>
      <point x="77" y="417" type="curve" smooth="yes"/>
      <point x="77" y="330"/>
      <point x="124" y="272"/>
      <point x="219" y="266" type="curve"/>
    </contour>
  </outline>
</glyph>
<glyph name="cedilla" format="2">
  <advance width="297.25"/>
  <unicode hex="00B8"/>
  <outline>
    <contour>
      <point x="94" y="-184" type="curve" smooth="yes"/>
      <point x="145" y="-184"/>
      <point x="186" y="-150"/>
      <point x="186" y="-102" type="curve" smooth="yes"/>
      <point x="186" y="-78"/>
      <point x="174" y="-56"/>
      <point x="140" y="-39" type="curve"/>
      <point x="158" y="-14"/>
      <point x="166" y="1"/>
      <point x="179" y="19" type="curve"/>
      <point x="152" y="19" type="line"/>
      <point x="138" y="0"/>
      <point x="123" y="-23"/>
      <point x="105" y="-51" type="curve"/>
      <point x="142" y="-65"/>
      <point x="156" y="-84"/>
      <point x="156" y="-107" type="curve" smooth="yes"/>
      <point x="156" y="-141"/>
      <point x="134" y="-159"/>
      <point x="101" y="-159" type="curve" smooth="yes"/>
      <point x="85" y="-159"/>
      <point x="64" y="-156"/>
      <point x="48" y="-151" type="curve"/>
      <point x="40" y="-175" type="line"/>
      <point x="56" y="-180"/>
      <point x="74" y="-184"/>
    </contour>
  </outline>
</glyph>
<glyph name="ordmasculine" format="2">
  <advance width="363"/>
  <unicode hex="00BA"/>
  <outline>
    <contour>
      <point x="203" y="335" type="curve" smooth="yes"/>
      <point x="289" y="335"/>
      <point x="362" y="455"/>
      <point x="362" y="603" type="curve" smooth="yes"/>
      <point x="362" y="667"/>
      <point x="333" y="701"/>
      <point x="283" y="701" type="curve" smooth="yes"/>
      <point x="198" y="701"/>
      <point x="127" y="582"/>
      <point x="127" y="436" type="curve" smooth="yes"/>
      <point x="127" y="370"/>
      <point x="153" y="335"/>
    </contour>
    <contour>
      <point x="207" y="360" type="curve" smooth="yes"/>
      <point x="171" y="360"/>
      <point x="156" y="385"/>
      <point x="156" y="439" type="curve" smooth="yes"/>
      <point x="156" y="566"/>
      <point x="215" y="674"/>
      <point x="282" y="674" type="curve" smooth="yes"/>
      <point x="317" y="674"/>
      <point x="331" y="652"/>
      <point x="331" y="598" type="curve" smooth="yes"/>
      <point x="331" y="469"/>
      <point x="273" y="360"/>
    </contour>
  </outline>
</glyph>
<glyph name="AE" format="2">
  <advance width="670"/>
  <unicode hex="00C6"/>
  <anchor x="210" y="0" name="bottom"/>
  <anchor x="531" y="672" name="top"/>
  <outline>
    <contour>
      <point x="-44" y="0" type="curve"/>
      <point x="-14" y="0" type="line"/>
      <point x="19" y="62"/>
      <point x="62" y="131"/>
      <point x="110" y="202" type="curve"/>
      <point x="341" y="202" type="line"/>
      <point x="294" y="0" type="line"/>
      <point x="580" y="0" type="line"/>
      <point x="586" y="27" type="line"/>
      <point x="329" y="27" type="line"/>
      <point x="406" y="351" type="line"/>
      <point x="619" y="351" type="line"/>
      <point x="626" y="380" type="line"/>
      <point x="413" y="380" type="line"/>
      <point x="483" y="667" type="line"/>
      <point x="721" y="667" type="line"/>
      <point x="728" y="693" type="line"/>
      <point x="462" y="693" type="line"/>
      <point x="301" y="524"/>
      <point x="69" y="216"/>
    </contour>
    <contour>
      <point x="129" y="231" type="line"/>
      <point x="231" y="379"/>
      <point x="348" y="531"/>
      <point x="446" y="639" type="curve"/>
      <point x="349" y="231" type="line"/>
    </contour>
  </outline>
</glyph>
<glyph name="Eth" format="2">
  <advance width="540"/>
  <unicode hex="00D0"/>
  <outline>
    <contour>
      <point x="141" y="-2" type="curve" smooth="yes"/>
      <point x="351" y="-2"/>
      <point x="507" y="214"/>
      <point x="507" y="479" type="curve" smooth="yes"/>
      <point x="507" y="618"/>
      <point x="445" y="697"/>
      <point x="318" y="697" type="curve" smooth="yes"/>
      <point x="278" y="697"/>
      <point x="237" y="695"/>
      <point x="189" y="683" type="curve"/>
      <point x="112" y="361" type="line"/>
      <point x="63" y="361" type="line"/>
      <point x="58" y="334" type="line"/>
      <point x="106" y="334" type="line"/>
      <point x="30" y="12" type="line"/>
      <point x="54" y="5"/>
      <point x="102" y="-2"/>
    </contour>
    <contour>
      <point x="145" y="26" type="curve" smooth="yes"/>
      <point x="126" y="26"/>
      <point x="98" y="29"/>
      <point x="63" y="34" type="curve"/>
      <point x="135" y="334" type="line"/>
      <point x="271" y="334" type="line"/>
      <point x="277" y="361" type="line"/>
      <point x="143" y="361" type="line"/>
      <point x="214" y="660" type="line"/>
      <point x="246" y="666"/>
      <point x="279" y="668"/>
      <point x="310" y="668" type="curve" smooth="yes"/>
      <point x="428" y="668"/>
      <point x="475" y="606"/>
      <point x="475" y="472" type="curve" smooth="yes"/>
      <point x="475" y="234"/>
      <point x="336" y="26"/>
    </contour>
  </outline>
</glyph>
<glyph name="Oslash" format="2">
  <advance width="571"/>
  <unicode hex="00D8"/>
  <anchor x="390" y="672" name="top"/>
  <outline>
    <contour>
      <point x="39" y="-31" type="line"/>
      <point x="106" y="57" type="line"/>
      <point x="131" y="14"/>
      <point x="171" y="-9"/>
      <point x="226" y="-9" type="curve" smooth="yes"/>
      <point x="392" y="-9"/>
      <point x="539" y="222"/>
      <point x="539" y="501" type="curve" smooth="yes"/>
      <point x="539" y="542"/>
      <point x="534" y="577"/>
      <point x="524" y="605" type="curve"/>
      <point x="603" y="709" type="line"/>
      <point x="577" y="724" type="line"/>
      <point x="511" y="636" type="line"/>
      <point x="486" y="680"/>
      <point x="445" y="703"/>
      <point x="388" y="703" type="curve" smooth="yes"/>
      <point x="223" y="703"/>
      <point x="76" y="476"/>
      <point x="76" y="199" type="curve" smooth="yes"/>
      <point x="76" y="155"/>
      <point x="82" y="117"/>
      <point x="92" y="86" type="curve"/>
      <point x="14" y="-16" type="line"/>
    </contour>
    <contour>
      <point x="231" y="18" type="curve" smooth="yes"/>
      <point x="179" y="18"/>
      <point x="144" y="39"/>
      <point x="126" y="82" type="curve"/>
      <point x="501" y="576" type="line"/>
      <point x="505" y="552"/>
      <point x="508" y="526"/>
      <point x="508" y="496" type="curve" smooth="yes"/>
      <point x="508" y="239"/>
      <point x="376" y="18"/>
    </contour>
    <contour>
      <point x="114" y="115" type="line"/>
      <point x="109" y="141"/>
      <point x="107" y="171"/>
      <point x="107" y="205" type="curve" smooth="yes"/>
      <point x="106" y="458"/>
      <point x="239" y="676"/>
      <point x="385" y="676" type="curve" smooth="yes"/>
      <point x="436" y="676"/>
      <point x="470" y="654"/>
      <point x="490" y="610" type="curve"/>
    </contour>
  </outline>
</glyph>
<glyph name="Thorn" format="2">
  <advance width="445"/>
  <unicode hex="00DE"/>
  <outline>
    <contour>
      <point x="26" y="0" type="line"/>
      <point x="55" y="0" type="line"/>
      <point x="91" y="147" type="line"/>
      <point x="155" y="147" type="line" smooth="yes"/>
      <point x="332" y="147"/>
      <point x="442" y="265"/>
      <point x="442" y="415" type="curve" smooth="yes"/>
      <point x="442" y="518"/>
      <point x="386" y="564"/>
      <point x="279" y="564" type="curve" smooth="yes"/>
      <point x="251" y="564"/>
      <point x="220" y="563"/>
      <point x="189" y="557" type="curve"/>
      <point x="221" y="693" type="line"/>
      <point x="192" y="693" type="line"/>
    </contour>
    <contour>
      <point x="97" y="176" type="line"/>
      <point x="182" y="529" type="line"/>
      <point x="207" y="536"/>
      <point x="248" y="537"/>
      <point x="276" y="537" type="curve" smooth="yes"/>
      <point x="364" y="537"/>
      <point x="412" y="503"/>
      <point x="412" y="411" type="curve" smooth="yes"/>
      <point x="412" y="282"/>
      <point x="322" y="176"/>
      <point x="163" y="176" type="curve" smooth="yes"/>
    </contour>
  </outline>
</glyph>
<glyph name="germandbls" format="2">
  <advance width="439"/>
  <unicode hex="00DF"/>
  <outline>
    <contour>
      <point x="-43" y="-189" type="line"/>
      <point x="9" y="-126"/>
      <point x="33" y="-56"/>
      <point x="55" y="38" type="curve" smooth="yes"/>
      <point x="190" y="605" type="line" smooth="yes"/>
      <point x="212" y="693"/>
      <point x="255" y="752"/>
      <point x="327" y="752" type="curve" smooth="yes"/>
      <point x="381" y="752"/>
      <point x="406" y="717"/>
      <point x="406" y="665" type="curve" smooth="yes"/>
      <point x="405" y="522"/>
      <point x="243" y="504"/>
      <point x="243" y="359" type="curve" smooth="yes"/>
      <point x="243" y="310"/>
      <point x="267" y="285"/>
      <point x="293" y="259" type="curve" smooth="yes"/>
      <point x="327" y="228"/>
      <point x="359" y="201"/>
      <point x="359" y="150" type="curve"/>
      <point x="359" y="84"/>
      <point x="313" y="17"/>
      <point x="224" y="17" type="curve" smooth="yes"/>
      <point x="194" y="17"/>
      <point x="168" y="23"/>
      <point x="144" y="32" type="curve"/>
      <point x="133" y="5" type="line"/>
      <point x="158" y="-5"/>
      <point x="187" y="-11"/>
      <point x="218" y="-11" type="curve" smooth="yes"/>
      <point x="331" y="-11"/>
      <point x="386" y="77"/>
      <point x="386" y="155" type="curve" smooth="yes"/>
      <point x="386" y="214"/>
      <point x="346" y="248"/>
      <point x="312" y="281" type="curve" smooth="yes"/>
      <point x="291" y="302"/>
      <point x="271" y="323"/>
      <point x="271" y="363" type="curve" smooth="yes"/>
      <point x="271" y="490"/>
      <point x="434" y="507"/>
      <point x="434" y="668" type="curve" smooth="yes"/>
      <point x="434" y="735"/>
      <point x="394" y="776"/>
      <point x="328" y="776" type="curve" smooth="yes"/>
      <point x="244" y="776"/>
      <point x="188" y="709"/>
      <point x="162" y="603" type="curve" smooth="yes"/>
      <point x="19" y="2" type="line" smooth="yes"/>
      <point x="0" y="-77"/>
      <point x="-22" y="-122"/>
      <point x="-68" y="-183" type="curve"/>
    </contour>
  </outline>
</glyph>
<glyph name="ae" format="2">
  <advance width="615"/>
  <unicode hex="00E6"/>
  <anchor x="239" y="0" name="bottom"/>
  <anchor x="363" y="516" name="top"/>
  <outline>
    <contour>
      <point x="109" y="-10" type="curve" smooth="yes"/>
      <point x="179" y="-10"/>
      <point x="241" y="45"/>
      <point x="282" y="128" type="curve"/>
      <point x="286" y="30"/>
      <point x="322" y="-10"/>
      <point x="396" y="-10" type="curve" smooth="yes"/>
      <point x="441" y="-10"/>
      <point x="488" y="9"/>
      <point x="519" y="37" type="curve"/>
      <point x="512" y="62" type="line"/>
      <point x="481" y="37"/>
      <point x="440" y="16"/>
      <point x="405" y="16" type="curve" smooth="yes"/>
      <point x="335" y="16"/>
      <point x="311" y="46"/>
      <point x="311" y="150" type="curve" smooth="yes"/>
      <point x="311" y="169"/>
      <point x="312" y="190"/>
      <point x="316" y="221" type="curve"/>
      <point x="504" y="235"/>
      <point x="601" y="314"/>
      <point x="600" y="428" type="curve" smooth="yes"/>
      <point x="600" y="488"/>
      <point x="564" y="529"/>
      <point x="507" y="529" type="curve" smooth="yes"/>
      <point x="437" y="529"/>
      <point x="375" y="475"/>
      <point x="334" y="391" type="curve"/>
      <point x="331" y="488"/>
      <point x="295" y="529"/>
      <point x="220" y="529" type="curve" smooth="yes"/>
      <point x="175" y="529"/>
      <point x="129" y="508"/>
      <point x="97" y="481" type="curve"/>
      <point x="104" y="455" type="line"/>
      <point x="135" y="483"/>
      <point x="178" y="502"/>
      <point x="212" y="502" type="curve" smooth="yes"/>
      <point x="282" y="502"/>
      <point x="305" y="472"/>
      <point x="305" y="368" type="curve" smooth="yes"/>
      <point x="305" y="350"/>
      <point x="304" y="329"/>
      <point x="300" y="297" type="curve"/>
      <point x="112" y="284"/>
      <point x="16" y="204"/>
      <point x="16" y="91" type="curve" smooth="yes"/>
      <point x="16" y="30"/>
      <point x="53" y="-10"/>
    </contour>
    <contour>
      <point x="111" y="17" type="curve" smooth="yes"/>
      <point x="71" y="17"/>
      <point x="43" y="47"/>
      <point x="43" y="91" type="curve" smooth="yes"/>
      <point x="43" y="190"/>
      <point x="128" y="259"/>
      <point x="295" y="270" type="curve"/>
      <point x="262" y="114"/>
      <point x="193" y="17"/>
    </contour>
    <contour>
      <point x="322" y="249" type="curve"/>
      <point x="354" y="406"/>
      <point x="423" y="502"/>
      <point x="505" y="502" type="curve" smooth="yes"/>
      <point x="545" y="502"/>
      <point x="574" y="473"/>
      <point x="574" y="427" type="curve" smooth="yes"/>
      <point x="574" y="328"/>
      <point x="488" y="259"/>
    </contour>
  </outline>
</glyph>
<glyph name="eth" format="2">
  <advance width="434"/>
  <unicode hex="00F0"/>
  <outline>
    <contour>
      <point x="138" y="-4" type="curve" smooth="yes"/>
      <point x="281" y="-4"/>
      <point x="390" y="201"/>
      <point x="390" y="473" type="curve" smooth="yes"/>
      <point x="390" y="534"/>
      <point x="381" y="591"/>
      <point x="359" y="644" type="curve"/>
      <point x="461" y="689" type="line"/>
      <point x="454" y="716" type="line"/>
      <point x="348" y="669" type="line"/>
      <point x="330" y="706"/>
      <point x="308" y="743"/>
      <point x="279" y="775" type="curve"/>
      <point x="253" y="759" type="line"/>
      <point x="281" y="725"/>
      <point x="303" y="691"/>
      <point x="320" y="655" type="curve"/>
      <point x="210" y="607" type="line"/>
      <point x="216" y="580" type="line"/>
      <point x="331" y="632" type="line"/>
      <point x="351" y="581"/>
      <point x="360" y="528"/>
      <point x="359" y="469" type="curve" smooth="yes"/>
      <point x="359" y="462"/>
      <point x="359" y="455"/>
      <point x="359" y="448" type="curve"/>
      <point x="335" y="470"/>
      <point x="304" y="482"/>
      <point x="270" y="482" type="curve" smooth="yes"/>
      <point x="139" y="482"/>
      <point x="31" y="327"/>
      <point x="31" y="137" type="curve" smooth="yes"/>
      <point x="31" y="49"/>
      <point x="72" y="-4"/>
    </contour>
    <contour>
      <point x="142" y="21" type="curve" smooth="yes"/>
      <point x="90" y="21"/>
      <point x="63" y="60"/>
      <point x="63" y="137" type="curve" smooth="yes"/>
      <point x="63" y="315"/>
      <point x="156" y="459"/>
      <point x="269" y="459" type="curve" smooth="yes"/>
      <point x="304" y="459"/>
      <point x="337" y="444"/>
      <point x="358" y="417" type="curve"/>
      <point x="345" y="197"/>
      <point x="252" y="21"/>
    </contour>
  </outline>
</glyph>
<glyph name="divide" format="2">
  <advance width="420"/>
  <unicode hex="00F7"/>
  <outline>
    <contour>
      <point x="51" y="286" type="line"/>
      <point x="381" y="286" type="line"/>
      <point x="387" y="313" type="line"/>
      <point x="59" y="313" type="line"/>
    </contour>
    <contour>
      <point x="186" y="130" type="curve" smooth="yes"/>
      <point x="201" y="130"/>
      <point x="215" y="143"/>
      <point x="215" y="164" type="curve" smooth="yes"/>
      <point x="215" y="176"/>
      <point x="204" y="190"/>
      <point x="189" y="190" type="curve" smooth="yes"/>
      <point x="168" y="190"/>
      <point x="158" y="171"/>
      <point x="158" y="156" type="curve" smooth="yes"/>
      <point x="158" y="143"/>
      <point x="170" y="130"/>
    </contour>
    <contour>
      <point x="253" y="411" type="curve" smooth="yes"/>
      <point x="268" y="411"/>
      <point x="282" y="426"/>
      <point x="282" y="445" type="curve" smooth="yes"/>
      <point x="282" y="458"/>
      <point x="271" y="470"/>
      <point x="255" y="470" type="curve" smooth="yes"/>
      <point x="235" y="470"/>
      <point x="225" y="452"/>
      <point x="225" y="437" type="curve" smooth="yes"/>
      <point x="225" y="423"/>
      <point x="236" y="411"/>
    </contour>
  </outline>
</glyph>
<glyph name="thorn" format="2">
  <advance width="428"/>
  <unicode hex="00FE"/>
  <outline>
    <contour>
      <point x="-22" y="-185" type="line"/>
      <point x="7" y="-185" type="line"/>
      <point x="51" y="4" type="line"/>
      <point x="77" y="-5"/>
      <point x="105" y="-10"/>
      <point x="129" y="-10" type="curve" smooth="yes"/>
      <point x="272" y="-10"/>
      <point x="389" y="161"/>
      <point x="389" y="372" type="curve" smooth="yes"/>
      <point x="389" y="477"/>
      <point x="346" y="528"/>
      <point x="264" y="528" type="curve"/>
      <point x="241" y="528"/>
      <point x="209" y="525"/>
      <point x="174" y="514" type="curve"/>
      <point x="237" y="776" type="line"/>
      <point x="209" y="770" type="line"/>
    </contour>
    <contour>
      <point x="138" y="17" type="curve" smooth="yes"/>
      <point x="109" y="17"/>
      <point x="81" y="22"/>
      <point x="59" y="31" type="curve"/>
      <point x="167" y="485" type="line"/>
      <point x="194" y="497"/>
      <point x="230" y="503"/>
      <point x="261" y="503" type="curve" smooth="yes"/>
      <point x="327" y="503"/>
      <point x="361" y="463"/>
      <point x="361" y="371" type="curve" smooth="yes"/>
      <point x="361" y="181"/>
      <point x="256" y="17"/>
    </contour>
  </outline>
</glyph>
<glyph name="Aogonek" format="2">
  <advance width="453"/>
  <unicode hex="0104"/>
  <outline>
    <contour>
      <point x="295" y="-185" type="curve" smooth="yes"/>
      <point x="309" y="-185"/>
      <point x="322" y="-183"/>
      <point x="334" y="-179" type="curve"/>
      <point x="335" y="-156" type="line"/>
      <point x="322" y="-160"/>
      <point x="313" y="-161"/>
      <point x="303" y="-161" type="curve" smooth="yes"/>
      <point x="282" y="-161"/>
      <point x="272" y="-148"/>
      <point x="272" y="-127" type="curve" smooth="yes"/>
      <point x="272" y="-87"/>
      <point x="303" y="-45"/>
      <point x="364" y="0" type="curve"/>
      <point x="373" y="212"/>
      <point x="366" y="445"/>
      <point x="341" y="693" type="curve"/>
      <point x="304" y="693" type="line"/>
      <point x="179" y="479"/>
      <point x="44" y="211"/>
      <point x="-33" y="0" type="curve"/>
      <point x="-4" y="0" type="line"/>
      <point x="18" y="62"/>
      <point x="48" y="131"/>
      <point x="80" y="203" type="curve"/>
      <point x="339" y="203" type="line"/>
      <point x="338" y="131"/>
      <point x="336" y="65"/>
      <point x="334" y="0" type="curve"/>
      <point x="331" y="0" type="line"/>
      <point x="272" y="-43"/>
      <point x="245" y="-88"/>
      <point x="245" y="-131" type="curve" smooth="yes"/>
      <point x="245" y="-164"/>
      <point x="263" y="-185"/>
    </contour>
    <contour>
      <point x="93" y="231" type="line"/>
      <point x="158" y="375"/>
      <point x="239" y="529"/>
      <point x="317" y="661" type="curve"/>
      <point x="331" y="509"/>
      <point x="336" y="365"/>
      <point x="339" y="231" type="curve"/>
    </contour>
  </outline>
</glyph>
<glyph name="Eogonek" format="2">
  <advance width="402"/>
  <unicode hex="0118"/>
  <outline>
    <contour>
      <point x="242" y="-185" type="curve" smooth="yes"/>
      <point x="256" y="-185"/>
      <point x="270" y="-183"/>
      <point x="282" y="-179" type="curve"/>
      <point x="284" y="-156" type="line"/>
      <point x="270" y="-160"/>
      <point x="260" y="-161"/>
      <point x="250" y="-161" type="curve" smooth="yes"/>
      <point x="230" y="-161"/>
      <point x="220" y="-148"/>
      <point x="220" y="-127" type="curve" smooth="yes"/>
      <point x="220" y="-87"/>
      <point x="252" y="-44"/>
      <point x="312" y="0" type="curve"/>
      <point x="318" y="27" type="line"/>
      <point x="61" y="27" type="line"/>
      <point x="140" y="351" type="line"/>
      <point x="351" y="351" type="line"/>
      <point x="358" y="380" type="line"/>
      <point x="145" y="380" type="line"/>
      <point x="215" y="667" type="line"/>
      <point x="455" y="667" type="line"/>
      <point x="460" y="693" type="line"/>
      <point x="192" y="693" type="line"/>
      <point x="26" y="0" type="line"/>
      <point x="280" y="0" type="line"/>
      <point x="221" y="-43"/>
      <point x="193" y="-88"/>
      <point x="193" y="-131" type="curve" smooth="yes"/>
      <point x="193" y="-164"/>
      <point x="210" y="-185"/>
    </contour>
  </outline>
</glyph>
<glyph name="Iogonek" format="2">
  <advance width="205"/>
  <unicode hex="012E"/>
  <outline>
    <contour>
      <point x="-12" y="-185" type="curve" smooth="yes"/>
      <point x="0" y="-185"/>
      <point x="14" y="-183"/>
      <point x="26" y="-179" type="curve"/>
      <point x="28" y="-156" type="line"/>
      <point x="14" y="-160"/>
      <point x="4" y="-161"/>
      <point x="-6" y="-161" type="curve" smooth="yes"/>
      <point x="-25" y="-161"/>
      <point x="-35" y="-148"/>
      <point x="-35" y="-127" type="curve" smooth="yes"/>
      <point x="-35" y="-87"/>
      <point x="-5" y="-44"/>
      <point x="56" y="0" type="curve"/>
      <point x="222" y="693" type="line"/>
      <point x="193" y="693" type="line"/>
      <point x="27" y="1" type="line"/>
      <point x="26" y="1" type="line"/>
      <point x="-33" y="-43"/>
      <point x="-63" y="-88"/>
      <point x="-63" y="-131" type="curve" smooth="yes"/>
      <point x="-63" y="-164"/>
      <point x="-44" y="-185"/>
    </contour>
  </outline>
</glyph>
<glyph name="kgreenlandic" format="2">
  <advance width="379"/>
  <unicode hex="0138"/>
  <outline>
    <contour>
      <point x="22" y="0" type="line"/>
      <point x="51" y="0" type="line"/>
      <point x="114" y="269" type="line"/>
      <point x="170" y="218"/>
      <point x="235" y="134"/>
      <point x="284" y="0" type="curve"/>
      <point x="312" y="0" type="line"/>
      <point x="285" y="79"/>
      <point x="226" y="195"/>
      <point x="147" y="278" type="curve"/>
      <point x="213" y="329"/>
      <point x="348" y="463"/>
      <point x="379" y="516" type="curve"/>
      <point x="348" y="516" type="line"/>
      <point x="316" y="469"/>
      <point x="204" y="354"/>
      <point x="117" y="284" type="curve"/>
      <point x="174" y="516" type="line"/>
      <point x="147" y="516" type="line"/>
    </contour>
  </outline>
</glyph>
<glyph name="lslash" format="2">
  <advance width="223"/>
  <unicode hex="0142"/>
  <outline>
    <contour>
      <point x="134" y="-10" type="curve"/>
      <point x="141" y="16" type="line"/>
      <point x="43" y="34"/>
      <point x="75" y="147"/>
      <point x="91" y="216" type="curve" smooth="yes"/>
      <point x="137" y="400" type="line"/>
      <point x="214" y="441" type="line"/>
      <point x="205" y="464" type="line"/>
      <point x="143" y="430" type="line"/>
      <point x="226" y="776" type="line"/>
      <point x="197" y="770" type="line"/>
      <point x="111" y="412" type="line"/>
      <point x="33" y="368" type="line"/>
      <point x="41" y="348" type="line"/>
      <point x="104" y="381" type="line"/>
      <point x="62" y="201" type="line" smooth="yes"/>
      <point x="43" y="126"/>
      <point x="18" y="14"/>
    </contour>
  </outline>
</glyph>
<glyph name="eng" format="2">
  <advance width="446"/>
  <unicode hex="014B"/>
  <outline>
    <contour>
      <point x="159" y="-189" type="curve" smooth="yes"/>
      <point x="240" y="-189"/>
      <point x="274" y="-129"/>
      <point x="302" y="-6" type="curve" smooth="yes"/>
      <point x="380" y="319" type="line" smooth="yes"/>
      <point x="414" y="461"/>
      <point x="376" y="526"/>
      <point x="262" y="526" type="curve" smooth="yes"/>
      <point x="228" y="526"/>
      <point x="179" y="517"/>
      <point x="143" y="503" type="curve"/>
      <point x="22" y="0" type="line"/>
      <point x="49" y="0" type="line"/>
      <point x="165" y="486" type="line"/>
      <point x="195" y="496"/>
      <point x="230" y="502"/>
      <point x="260" y="502" type="curve" smooth="yes"/>
      <point x="360" y="502"/>
      <point x="383" y="445"/>
      <point x="350" y="311" type="curve" smooth="yes"/>
      <point x="274" y="-11" type="line" smooth="yes"/>
      <point x="253" y="-95"/>
      <point x="223" y="-165"/>
      <point x="167" y="-165" type="curve" smooth="yes"/>
      <point x="150" y="-165"/>
      <point x="132" y="-159"/>
      <point x="118" y="-151" type="curve"/>
      <point x="110" y="-176" type="line"/>
      <point x="124" y="-184"/>
      <point x="140" y="-189"/>
    </contour>
  </outline>
</glyph>
<glyph name="OE" format="2">
  <advance width="716"/>
  <unicode hex="0152"/>
  <outline>
    <contour>
      <point x="243" y="-9" type="curve" smooth="yes"/>
      <point x="271" y="-9"/>
      <point x="309" y="-6"/>
      <point x="338" y="0" type="curve"/>
      <point x="626" y="0" type="line"/>
      <point x="631" y="27" type="line"/>
      <point x="374" y="27" type="line"/>
      <point x="452" y="351" type="line"/>
      <point x="665" y="351" type="line"/>
      <point x="670" y="380" type="line"/>
      <point x="459" y="380" type="line"/>
      <point x="528" y="667" type="line"/>
      <point x="767" y="667" type="line"/>
      <point x="774" y="693" type="line"/>
      <point x="504" y="693" type="line"/>
      <point x="481" y="699"/>
      <point x="456" y="704"/>
      <point x="422" y="704" type="curve" smooth="yes"/>
      <point x="246" y="704"/>
      <point x="73" y="474"/>
      <point x="73" y="200" type="curve" smooth="yes"/>
      <point x="73" y="63"/>
      <point x="130" y="-9"/>
    </contour>
    <contour>
      <point x="247" y="18" type="curve" smooth="yes"/>
      <point x="146" y="18"/>
      <point x="105" y="75"/>
      <point x="105" y="205" type="curve" smooth="yes"/>
      <point x="105" y="454"/>
      <point x="261" y="676"/>
      <point x="416" y="676" type="curve" smooth="yes"/>
      <point x="448" y="676"/>
      <point x="477" y="673"/>
      <point x="498" y="668" type="curve"/>
      <point x="346" y="27" type="line"/>
      <point x="317" y="21"/>
      <point x="273" y="18"/>
    </contour>
  </outline>
</glyph>
<glyph name="oe" format="2">
  <advance width="656"/>
  <unicode hex="0153"/>
  <outline>
    <contour>
      <point x="148" y="-10" type="curve" smooth="yes"/>
      <point x="215" y="-10"/>
      <point x="277" y="45"/>
      <point x="317" y="130" type="curve"/>
      <point x="321" y="30"/>
      <point x="358" y="-10"/>
      <point x="433" y="-10" type="curve" smooth="yes"/>
      <point x="478" y="-10"/>
      <point x="528" y="9"/>
      <point x="560" y="37" type="curve"/>
      <point x="553" y="62" type="line"/>
      <point x="521" y="35"/>
      <point x="477" y="16"/>
      <point x="441" y="16" type="curve" smooth="yes"/>
      <point x="372" y="16"/>
      <point x="348" y="46"/>
      <point x="348" y="150" type="curve" smooth="yes"/>
      <point x="348" y="175"/>
      <point x="349" y="205"/>
      <point x="354" y="228" type="curve"/>
      <point x="534" y="235"/>
      <point x="641" y="311"/>
      <point x="641" y="428" type="curve" smooth="yes"/>
      <point x="641" y="488"/>
      <point x="604" y="529"/>
      <point x="548" y="529" type="curve" smooth="yes"/>
      <point x="478" y="529"/>
      <point x="415" y="475"/>
      <point x="373" y="392" type="curve"/>
      <point x="370" y="481"/>
      <point x="332" y="529"/>
      <point x="264" y="529" type="curve" smooth="yes"/>
      <point x="142" y="529"/>
      <point x="40" y="353"/>
      <point x="40" y="139" type="curve" smooth="yes"/>
      <point x="40" y="42"/>
      <point x="76" y="-10"/>
    </contour>
    <contour>
      <point x="150" y="16" type="curve" smooth="yes"/>
      <point x="93" y="16"/>
      <point x="69" y="56"/>
      <point x="69" y="144" type="curve" smooth="yes"/>
      <point x="69" y="337"/>
      <point x="158" y="501"/>
      <point x="260" y="501" type="curve" smooth="yes"/>
      <point x="317" y="501"/>
      <point x="342" y="464"/>
      <point x="342" y="379" type="curve" smooth="yes"/>
      <point x="342" y="182"/>
      <point x="253" y="16"/>
    </contour>
    <contour>
      <point x="358" y="253" type="curve"/>
      <point x="385" y="396"/>
      <point x="459" y="502"/>
      <point x="546" y="502" type="curve" smooth="yes"/>
      <point x="587" y="502"/>
      <point x="614" y="473"/>
      <point x="614" y="427" type="curve" smooth="yes"/>
      <point x="614" y="323"/>
      <point x="515" y="258"/>
    </contour>
  </outline>
</glyph>
<glyph name="scedilla" format="2">
  <advance width="304"/>
  <unicode hex="015F"/>
  <outline>
    <contour>
      <point x="50" y="-184" type="curve" smooth="yes"/>
      <point x="101" y="-184"/>
      <point x="141" y="-150"/>
      <point x="141" y="-102" type="curve" smooth="yes"/>
      <point x="141" y="-78"/>
      <point x="129" y="-56"/>
      <point x="95" y="-39" type="curve"/>
      <point x="104" y="-25"/>
      <point x="112" y="-15"/>
      <point x="118" y="-5" type="curve"/>
      <point x="190" y="11"/>
      <point x="238" y="71"/>
      <point x="238" y="150" type="curve" smooth="yes"/>
      <point x="238" y="208"/>
      <point x="220" y="231"/>
      <point x="163" y="274" type="curve" smooth="yes"/>
      <point x="110" y="312"/>
      <point x="95" y="336"/>
      <point x="95" y="380" type="curve" smooth="yes"/>
      <point x="95" y="454"/>
      <point x="144" y="502"/>
      <point x="213" y="502" type="curve" smooth="yes"/>
      <point x="238" y="502"/>
      <point x="268" y="497"/>
      <point x="290" y="486" type="curve"/>
      <point x="299" y="513" type="line"/>
      <point x="276" y="523"/>
      <point x="249" y="529"/>
      <point x="218" y="529" type="curve" smooth="yes"/>
      <point x="130" y="529"/>
      <point x="68" y="466"/>
      <point x="68" y="379" type="curve" smooth="yes"/>
      <point x="68" y="320"/>
      <point x="88" y="297"/>
      <point x="146" y="254" type="curve" smooth="yes"/>
      <point x="197" y="216"/>
      <point x="212" y="194"/>
      <point x="212" y="149" type="curve" smooth="yes"/>
      <point x="212" y="69"/>
      <point x="159" y="16"/>
      <point x="81" y="16" type="curve" smooth="yes"/>
      <point x="53" y="16"/>
      <point x="19" y="23"/>
      <point x="-14" y="36" type="curve"/>
      <point x="-23" y="10" type="line"/>
      <point x="16" y="-7"/>
      <point x="47" y="-10"/>
      <point x="87" y="-10" type="curve"/>
      <point x="78" y="-22"/>
      <point x="70" y="-37"/>
      <point x="60" y="-51" type="curve"/>
      <point x="97" y="-65"/>
      <point x="111" y="-84"/>
      <point x="111" y="-107" type="curve" smooth="yes"/>
      <point x="111" y="-141"/>
      <point x="89" y="-159"/>
      <point x="56" y="-159" type="curve" smooth="yes"/>
      <point x="39" y="-159"/>
      <point x="18" y="-156"/>
      <point x="3" y="-151" type="curve"/>
      <point x="-5" y="-175" type="line"/>
      <point x="11" y="-180"/>
      <point x="28" y="-184"/>
    </contour>
  </outline>
</glyph>
<glyph name="tcedilla" format="2">
  <advance width="289"/>
  <unicode hex="0163"/>
  <outline>
    <contour>
      <point x="75" y="-184" type="curve" smooth="yes"/>
      <point x="126" y="-184"/>
      <point x="166" y="-150"/>
      <point x="166" y="-102" type="curve" smooth="yes"/>
      <point x="166" y="-78"/>
      <point x="155" y="-56"/>
      <point x="121" y="-39" type="curve"/>
      <point x="129" y="-28"/>
      <point x="135" y="-19"/>
      <point x="140" y="-11" type="curve"/>
      <point x="167" y="-10"/>
      <point x="195" y="-4"/>
      <point x="219" y="7" type="curve"/>
      <point x="214" y="33" type="line"/>
      <point x="190" y="21"/>
      <point x="163" y="14"/>
      <point x="141" y="14" type="curve" smooth="yes"/>
      <point x="80" y="14"/>
      <point x="59" y="61"/>
      <point x="82" y="154" type="curve" smooth="yes"/>
      <point x="164" y="491" type="line"/>
      <point x="309" y="491" type="line"/>
      <point x="315" y="516" type="line"/>
      <point x="169" y="516" type="line"/>
      <point x="208" y="681" type="line"/>
      <point x="181" y="675" type="line"/>
      <point x="55" y="154" type="line" smooth="yes"/>
      <point x="33" y="63"/>
      <point x="54" y="4"/>
      <point x="114" y="-8" type="curve"/>
      <point x="105" y="-21"/>
      <point x="95" y="-36"/>
      <point x="85" y="-51" type="curve"/>
      <point x="122" y="-65"/>
      <point x="136" y="-84"/>
      <point x="136" y="-107" type="curve" smooth="yes"/>
      <point x="136" y="-141"/>
      <point x="114" y="-159"/>
      <point x="81" y="-159" type="curve" smooth="yes"/>
      <point x="64" y="-159"/>
      <point x="43" y="-156"/>
      <point x="29" y="-151" type="curve"/>
      <point x="20" y="-175" type="line"/>
      <point x="36" y="-180"/>
      <point x="53" y="-184"/>
    </contour>
  </outline>
</glyph>
<glyph name="Bhook" format="2">
  <advance width="513"/>
  <unicode hex="0181"/>
  <outline>
    <contour>
      <point x="187" y="-2" type="curve" smooth="yes"/>
      <point x="361" y="-2"/>
      <point x="446" y="90"/>
      <point x="446" y="220" type="curve" smooth="yes"/>
      <point x="446" y="284"/>
      <point x="413" y="334"/>
      <point x="341" y="357" type="curve"/>
      <point x="470" y="389"/>
      <point x="506" y="489"/>
      <point x="506" y="567" type="curve" smooth="yes"/>
      <point x="506" y="652"/>
      <point x="447" y="697"/>
      <point x="334" y="697" type="curve" smooth="yes"/>
      <point x="155" y="697"/>
      <point x="77" y="625"/>
      <point x="73" y="505" type="curve"/>
      <point x="100" y="506" type="line"/>
      <point x="105" y="580"/>
      <point x="135" y="630"/>
      <point x="210" y="653" type="curve"/>
      <point x="56" y="13" type="line"/>
      <point x="94" y="3"/>
      <point x="142" y="-2"/>
    </contour>
    <contour>
      <point x="187" y="27" type="curve" smooth="yes"/>
      <point x="156" y="27"/>
      <point x="117" y="31"/>
      <point x="91" y="36" type="curve"/>
      <point x="165" y="346" type="line"/>
      <point x="256" y="346" type="line" smooth="yes"/>
      <point x="360" y="346"/>
      <point x="413" y="300"/>
      <point x="413" y="215" type="curve" smooth="yes"/>
      <point x="413" y="98"/>
      <point x="339" y="27"/>
    </contour>
    <contour>
      <point x="172" y="374" type="line"/>
      <point x="242" y="659" type="line"/>
      <point x="264" y="665"/>
      <point x="296" y="669"/>
      <point x="327" y="669" type="curve" smooth="yes"/>
      <point x="427" y="669"/>
      <point x="474" y="638"/>
      <point x="474" y="564" type="curve" smooth="yes"/>
      <point x="474" y="476"/>
      <point x="424" y="374"/>
      <point x="275" y="374" type="curve" smooth="yes"/>
    </contour>
  </outline>
</glyph>
<glyph name="Btopbar" format="2">
  <advance width="476"/>
  <unicode hex="0182"/>
  <outline>
    <contour>
      <point x="159" y="-2" type="curve" smooth="yes"/>
      <point x="323" y="-2"/>
      <point x="420" y="102"/>
      <point x="420" y="245" type="curve" smooth="yes"/>
      <point x="420" y="378"/>
      <point x="338" y="413"/>
      <point x="227" y="413" type="curve" smooth="yes"/>
      <point x="154" y="413" type="line"/>
      <point x="216" y="667" type="line"/>
      <point x="464" y="667" type="line"/>
      <point x="470" y="693" type="line"/>
      <point x="193" y="693" type="line"/>
      <point x="30" y="15" type="line"/>
      <point x="61" y="7"/>
      <point x="111" y="-2"/>
    </contour>
    <contour>
      <point x="160" y="27" type="curve" smooth="yes"/>
      <point x="132" y="27"/>
      <point x="96" y="29"/>
      <point x="64" y="38" type="curve"/>
      <point x="149" y="385" type="line"/>
      <point x="225" y="385" type="line" smooth="yes"/>
      <point x="351" y="385"/>
      <point x="390" y="343"/>
      <point x="390" y="240" type="curve" smooth="yes"/>
      <point x="390" y="120"/>
      <point x="312" y="27"/>
    </contour>
  </outline>
</glyph>
<glyph name="btopbar" format="2">
  <advance width="430"/>
  <unicode hex="0183"/>
  <outline>
    <contour>
      <point x="127" y="-10" type="curve" smooth="yes"/>
      <point x="273" y="-10"/>
      <point x="393" y="164"/>
      <point x="394" y="375" type="curve" smooth="yes"/>
      <point x="393" y="478"/>
      <point x="355" y="529"/>
      <point x="280" y="529" type="curve" smooth="yes"/>
      <point x="246" y="529"/>
      <point x="207" y="516"/>
      <point x="165" y="482" type="curve"/>
      <point x="229" y="750" type="line"/>
      <point x="433" y="750" type="line"/>
      <point x="439" y="776" type="line"/>
      <point x="208" y="776" type="line"/>
      <point x="25" y="14" type="line"/>
      <point x="56" y="-1"/>
      <point x="95" y="-10"/>
    </contour>
    <contour>
      <point x="135" y="16" type="curve" smooth="yes"/>
      <point x="106" y="16"/>
      <point x="78" y="22"/>
      <point x="56" y="31" type="curve"/>
      <point x="154" y="441" type="line"/>
      <point x="195" y="480"/>
      <point x="239" y="502"/>
      <point x="279" y="502" type="curve" smooth="yes"/>
      <point x="339" y="502"/>
      <point x="365" y="463"/>
      <point x="365" y="375" type="curve" smooth="yes"/>
      <point x="365" y="183"/>
      <point x="259" y="16"/>
    </contour>
  </outline>
</glyph>
<glyph name="Tonesix" format="2">
  <advance width="432"/>
  <unicode hex="0184"/>
  <outline>
    <contour>
      <point x="130" y="-10" type="curve" smooth="yes"/>
      <point x="276" y="-10"/>
      <point x="396" y="164"/>
      <point x="395" y="375" type="curve" smooth="yes"/>
      <point x="396" y="478"/>
      <point x="358" y="529"/>
      <point x="282" y="529" type="curve" smooth="yes"/>
      <point x="249" y="529"/>
      <point x="209" y="516"/>
      <point x="166" y="482" type="curve"/>
      <point x="238" y="776" type="line"/>
      <point x="212" y="768"/>
      <point x="191" y="756"/>
      <point x="164" y="739" type="curve"/>
      <point x="186" y="672" type="line"/>
      <point x="27" y="14" type="line"/>
      <point x="58" y="-1"/>
      <point x="97" y="-10"/>
    </contour>
    <contour>
      <point x="138" y="16" type="curve" smooth="yes"/>
      <point x="109" y="16"/>
      <point x="80" y="22"/>
      <point x="59" y="31" type="curve"/>
      <point x="157" y="441" type="line"/>
      <point x="196" y="480"/>
      <point x="242" y="502"/>
      <point x="281" y="502" type="curve" smooth="yes"/>
      <point x="340" y="502"/>
      <point x="366" y="463"/>
      <point x="366" y="375" type="curve" smooth="yes"/>
      <point x="366" y="183"/>
      <point x="260" y="16"/>
    </contour>
  </outline>
</glyph>
<glyph name="Dtopbar" format="2">
  <advance width="474"/>
  <unicode hex="018B"/>
  <outline>
    <contour>
      <point x="228" y="-2" type="curve" smooth="yes"/>
      <point x="261" y="-2"/>
      <point x="299" y="3"/>
      <point x="325" y="10" type="curve"/>
      <point x="490" y="693" type="line"/>
      <point x="213" y="693" type="line"/>
      <point x="207" y="665" type="line"/>
      <point x="453" y="665" type="line"/>
      <point x="393" y="413" type="line"/>
      <point x="303" y="413" type="line" smooth="yes"/>
      <point x="138" y="413"/>
      <point x="32" y="343"/>
      <point x="32" y="160" type="curve" smooth="yes"/>
      <point x="32" y="59"/>
      <point x="106" y="-2"/>
    </contour>
    <contour>
      <point x="237" y="27" type="curve" smooth="yes"/>
      <point x="115" y="27"/>
      <point x="62" y="78"/>
      <point x="62" y="164" type="curve" smooth="yes"/>
      <point x="62" y="305"/>
      <point x="137" y="385"/>
      <point x="286" y="385" type="curve" smooth="yes"/>
      <point x="386" y="385" type="line"/>
      <point x="301" y="34" type="line"/>
      <point x="278" y="29"/>
      <point x="254" y="27"/>
    </contour>
  </outline>
</glyph>
<glyph name="florin" format="2">
  <advance width="320"/>
  <unicode hex="0192"/>
  <outline>
    <contour>
      <point x="-75" y="-189" type="curve" smooth="yes"/>
      <point x="-7" y="-189"/>
      <point x="31" y="-152"/>
      <point x="53" y="-56" type="curve" smooth="yes"/>
      <point x="184" y="490" type="line"/>
      <point x="328" y="490" type="line"/>
      <point x="333" y="516" type="line"/>
      <point x="192" y="516" type="line"/>
      <point x="214" y="605" type="line" smooth="yes"/>
      <point x="241" y="723"/>
      <point x="289" y="752"/>
      <point x="339" y="752" type="curve" smooth="yes"/>
      <point x="366" y="752"/>
      <point x="382" y="747"/>
      <point x="402" y="740" type="curve"/>
      <point x="412" y="766" type="line"/>
      <point x="393" y="772"/>
      <point x="376" y="776"/>
      <point x="348" y="776" type="curve" smooth="yes"/>
      <point x="294" y="776"/>
      <point x="220" y="754"/>
      <point x="185" y="608" type="curve" smooth="yes"/>
      <point x="23" y="-56" type="line" smooth="yes"/>
      <point x="4" y="-136"/>
      <point x="-19" y="-163"/>
      <point x="-67" y="-163" type="curve" smooth="yes"/>
      <point x="-85" y="-163"/>
      <point x="-102" y="-160"/>
      <point x="-115" y="-154" type="curve"/>
      <point x="-126" y="-181" type="line"/>
      <point x="-111" y="-186"/>
      <point x="-91" y="-189"/>
    </contour>
  </outline>
</glyph>
<glyph name="Iota-latin" format="2">
  <advance width="261"/>
  <unicode hex="0196"/>
  <outline>
    <contour>
      <point x="114" y="-10" type="curve" smooth="yes"/>
      <point x="138" y="-10"/>
      <point x="163" y="-4"/>
      <point x="178" y="3" type="curve"/>
      <point x="172" y="30" type="line"/>
      <point x="154" y="22"/>
      <point x="136" y="19"/>
      <point x="116" y="19" type="curve" smooth="yes"/>
      <point x="87" y="19"/>
      <point x="70" y="32"/>
      <point x="70" y="68" type="curve" smooth="yes"/>
      <point x="70" y="81"/>
      <point x="72" y="97"/>
      <point x="76" y="113" type="curve" smooth="yes"/>
      <point x="215" y="693" type="line"/>
      <point x="185" y="693" type="line"/>
      <point x="47" y="113" type="line" smooth="yes"/>
      <point x="43" y="96"/>
      <point x="41" y="80"/>
      <point x="41" y="66" type="curve" smooth="yes"/>
      <point x="41" y="11"/>
      <point x="71" y="-10"/>
    </contour>
  </outline>
</glyph>
<glyph name="khook" format="2">
  <advance width="376"/>
  <unicode hex="0199"/>
  <outline>
    <contour>
      <point x="20" y="0" type="line"/>
      <point x="49" y="0" type="line"/>
      <point x="112" y="269" type="line"/>
      <point x="168" y="218"/>
      <point x="231" y="134"/>
      <point x="281" y="0" type="curve"/>
      <point x="309" y="0" type="line"/>
      <point x="280" y="79"/>
      <point x="224" y="195"/>
      <point x="145" y="278" type="curve"/>
      <point x="211" y="329"/>
      <point x="344" y="463"/>
      <point x="374" y="516" type="curve"/>
      <point x="343" y="516" type="line"/>
      <point x="313" y="469"/>
      <point x="202" y="354"/>
      <point x="115" y="284" type="curve"/>
      <point x="209" y="670" type="line" smooth="yes"/>
      <point x="222" y="723"/>
      <point x="238" y="750"/>
      <point x="277" y="750" type="curve" smooth="yes"/>
      <point x="289" y="750"/>
      <point x="298" y="748"/>
      <point x="309" y="745" type="curve"/>
      <point x="318" y="770" type="line"/>
      <point x="310" y="774"/>
      <point x="298" y="776"/>
      <point x="283" y="776" type="curve" smooth="yes"/>
      <point x="227" y="776"/>
      <point x="199" y="740"/>
      <point x="182" y="667" type="curve" smooth="yes"/>
    </contour>
  </outline>
</glyph>
<glyph name="thook" format="2">
  <advance width="289"/>
  <unicode hex="01AD"/>
  <outline>
    <contour>
      <point x="139" y="-11" type="curve" smooth="yes"/>
      <point x="169" y="-11"/>
      <point x="195" y="-5"/>
      <point x="219" y="7" type="curve"/>
      <point x="214" y="33" type="line"/>
      <point x="190" y="21"/>
      <point x="163" y="14"/>
      <point x="141" y="14" type="curve" smooth="yes"/>
      <point x="97" y="14"/>
      <point x="73" y="40"/>
      <point x="73" y="89" type="curve" smooth="yes"/>
      <point x="73" y="109"/>
      <point x="76" y="130"/>
      <point x="82" y="154" type="curve" smooth="yes"/>
      <point x="164" y="491" type="line"/>
      <point x="309" y="491" type="line"/>
      <point x="315" y="516" type="line"/>
      <point x="169" y="516" type="line"/>
      <point x="192" y="611" type="line" smooth="yes"/>
      <point x="214" y="704"/>
      <point x="250" y="752"/>
      <point x="314" y="752" type="curve" smooth="yes"/>
      <point x="334" y="752"/>
      <point x="356" y="746"/>
      <point x="369" y="738" type="curve"/>
      <point x="381" y="762" type="line"/>
      <point x="366" y="769"/>
      <point x="341" y="776"/>
      <point x="317" y="776" type="curve" smooth="yes"/>
      <point x="239" y="776"/>
      <point x="191" y="719"/>
      <point x="166" y="611" type="curve" smooth="yes"/>
      <point x="55" y="154" type="line" smooth="yes"/>
      <point x="49" y="131"/>
      <point x="46" y="110"/>
      <point x="46" y="90" type="curve" smooth="yes"/>
      <point x="46" y="26"/>
      <point x="78" y="-11"/>
    </contour>
  </outline>
</glyph>
<glyph name="ezhtail" format="2">
  <advance width="319"/>
  <unicode hex="01BA"/>
  <outline>
    <contour>
      <point x="-90" y="-185" type="curve"/>
      <point x="-66" y="-178" type="line"/>
      <point x="-69" y="-169"/>
      <point x="-70" y="-158"/>
      <point x="-70" y="-148" type="curve" smooth="yes"/>
      <point x="-70" y="-100"/>
      <point x="-48" y="-63"/>
      <point x="69" y="-31" type="curve" smooth="yes"/>
      <point x="214" y="9"/>
      <point x="250" y="86"/>
      <point x="250" y="163" type="curve" smooth="yes"/>
      <point x="250" y="227"/>
      <point x="204" y="261"/>
      <point x="116" y="271" type="curve"/>
      <point x="187" y="342"/>
      <point x="246" y="406"/>
      <point x="315" y="489" type="curve"/>
      <point x="322" y="516" type="line"/>
      <point x="69" y="516" type="line"/>
      <point x="62" y="491" type="line"/>
      <point x="284" y="491" type="line"/>
      <point x="231" y="428"/>
      <point x="159" y="344"/>
      <point x="87" y="274" type="curve"/>
      <point x="82" y="248" type="line"/>
      <point x="142" y="244"/>
      <point x="223" y="235"/>
      <point x="223" y="159" type="curve" smooth="yes"/>
      <point x="223" y="95"/>
      <point x="191" y="30"/>
      <point x="71" y="-4" type="curve" smooth="yes"/>
      <point x="-65" y="-43"/>
      <point x="-95" y="-81"/>
      <point x="-95" y="-153" type="curve" smooth="yes"/>
      <point x="-95" y="-165"/>
      <point x="-94" y="-177"/>
    </contour>
  </outline>
</glyph>
<glyph name="twostroke" format="2">
  <advance width="421"/>
  <unicode hex="01BB"/>
  <outline>
    <contour>
      <point x="28" y="0" type="curve"/>
      <point x="300" y="0" type="line"/>
      <point x="307" y="30" type="line"/>
      <point x="61" y="30" type="line"/>
      <point x="78" y="122"/>
      <point x="144" y="224"/>
      <point x="230" y="306" type="curve" smooth="yes"/>
      <point x="270" y="344" type="line"/>
      <point x="377" y="344" type="line"/>
      <point x="384" y="371" type="line"/>
      <point x="293" y="371" type="line"/>
      <point x="350" y="440"/>
      <point x="379" y="508"/>
      <point x="379" y="574" type="curve" smooth="yes"/>
      <point x="379" y="660"/>
      <point x="338" y="707"/>
      <point x="266" y="707" type="curve" smooth="yes"/>
      <point x="214" y="707"/>
      <point x="168" y="689"/>
      <point x="131" y="655" type="curve"/>
      <point x="144" y="634" type="line"/>
      <point x="180" y="664"/>
      <point x="221" y="680"/>
      <point x="262" y="680" type="curve" smooth="yes"/>
      <point x="319" y="680"/>
      <point x="350" y="642"/>
      <point x="350" y="570" type="curve" smooth="yes"/>
      <point x="350" y="507"/>
      <point x="320" y="442"/>
      <point x="258" y="371" type="curve"/>
      <point x="112" y="371" type="line"/>
      <point x="106" y="344" type="line"/>
      <point x="234" y="344" type="line"/>
      <point x="203" y="314" type="line" smooth="yes"/>
      <point x="110" y="229"/>
      <point x="41" y="114"/>
    </contour>
  </outline>
</glyph>
<glyph name="Tonefive" format="2">
  <advance width="424"/>
  <unicode hex="01BC"/>
  <outline>
    <contour>
      <point x="132" y="-15" type="curve" smooth="yes"/>
      <point x="250" y="-15"/>
      <point x="344" y="95"/>
      <point x="344" y="241" type="curve" smooth="yes"/>
      <point x="344" y="330"/>
      <point x="293" y="384"/>
      <point x="173" y="404" type="curve"/>
      <point x="203" y="495"/>
      <point x="225" y="570"/>
      <point x="248" y="665" type="curve"/>
      <point x="437" y="665" type="line"/>
      <point x="446" y="693" type="line"/>
      <point x="146" y="693" type="line"/>
      <point x="139" y="665" type="line"/>
      <point x="222" y="665" type="line"/>
      <point x="200" y="587"/>
      <point x="171" y="479"/>
      <point x="137" y="381" type="curve"/>
      <point x="252" y="374"/>
      <point x="314" y="324"/>
      <point x="314" y="236" type="curve" smooth="yes"/>
      <point x="314" y="117"/>
      <point x="234" y="11"/>
      <point x="138" y="11" type="curve" smooth="yes"/>
      <point x="108" y="11"/>
      <point x="59" y="19"/>
      <point x="28" y="40" type="curve"/>
      <point x="14" y="16" type="line"/>
      <point x="53" y="-8"/>
      <point x="94" y="-15"/>
    </contour>
  </outline>
</glyph>
<glyph name="tonefive" format="2">
  <advance width="344"/>
  <unicode hex="01BD"/>
  <outline>
    <contour>
      <point x="78" y="-8" type="curve" smooth="yes"/>
      <point x="171" y="-8"/>
      <point x="238" y="49"/>
      <point x="262" y="146" type="curve" smooth="yes"/>
      <point x="283" y="231"/>
      <point x="251" y="301"/>
      <point x="141" y="301" type="curve" smooth="yes"/>
      <point x="116" y="301" type="line"/>
      <point x="136" y="361"/>
      <point x="150" y="409"/>
      <point x="174" y="491" type="curve"/>
      <point x="332" y="491" type="line"/>
      <point x="337" y="516" type="line"/>
      <point x="86" y="516" type="line"/>
      <point x="79" y="491" type="line"/>
      <point x="145" y="491" type="line"/>
      <point x="131" y="429"/>
      <point x="106" y="352"/>
      <point x="80" y="277" type="curve"/>
      <point x="126" y="277" type="line" smooth="yes"/>
      <point x="221" y="277"/>
      <point x="254" y="223"/>
      <point x="234" y="147" type="curve" smooth="yes"/>
      <point x="214" y="66"/>
      <point x="163" y="17"/>
      <point x="85" y="17" type="curve" smooth="yes"/>
      <point x="51" y="17"/>
      <point x="12" y="25"/>
      <point x="-19" y="39" type="curve"/>
      <point x="-32" y="16" type="line"/>
      <point x="2" y="-1"/>
      <point x="36" y="-8"/>
    </contour>
  </outline>
</glyph>
<glyph name="glottalinvertedstroke" format="2">
  <advance width="317"/>
  <unicode hex="01BE"/>
  <outline>
    <contour>
      <point x="83" y="-10" type="curve"/>
      <point x="177" y="-10"/>
      <point x="244" y="57"/>
      <point x="244" y="150" type="curve" smooth="yes"/>
      <point x="244" y="208"/>
      <point x="227" y="231"/>
      <point x="169" y="274" type="curve" smooth="yes"/>
      <point x="122" y="309"/>
      <point x="102" y="334"/>
      <point x="102" y="371" type="curve" smooth="yes"/>
      <point x="102" y="381"/>
      <point x="103" y="392"/>
      <point x="106" y="403" type="curve" smooth="yes"/>
      <point x="127" y="491" type="line"/>
      <point x="273" y="491" type="line"/>
      <point x="279" y="516" type="line"/>
      <point x="133" y="516" type="line"/>
      <point x="172" y="681" type="line"/>
      <point x="143" y="675" type="line"/>
      <point x="79" y="404" type="line" smooth="yes"/>
      <point x="76" y="391"/>
      <point x="75" y="380"/>
      <point x="75" y="369" type="curve" smooth="yes"/>
      <point x="75" y="322"/>
      <point x="104" y="288"/>
      <point x="152" y="254" type="curve" smooth="yes"/>
      <point x="203" y="216"/>
      <point x="218" y="194"/>
      <point x="218" y="149" type="curve" smooth="yes"/>
      <point x="218" y="69"/>
      <point x="165" y="16"/>
      <point x="87" y="16" type="curve" smooth="yes"/>
      <point x="59" y="16"/>
      <point x="25" y="23"/>
      <point x="-7" y="36" type="curve"/>
      <point x="-16" y="10" type="line"/>
      <point x="19" y="-5"/>
      <point x="56" y="-10"/>
    </contour>
  </outline>
</glyph>
<glyph name="wynn" format="2">
  <advance width="426"/>
  <unicode hex="01BF"/>
  <outline>
    <contour>
      <point x="-22" y="-185" type="line"/>
      <point x="5" y="-185" type="line"/>
      <point x="40" y="-45" type="line"/>
      <point x="280" y="10"/>
      <point x="391" y="196"/>
      <point x="391" y="379" type="curve" smooth="yes"/>
      <point x="391" y="469"/>
      <point x="351" y="528"/>
      <point x="269" y="528" type="curve" smooth="yes"/>
      <point x="224" y="528"/>
      <point x="183" y="518"/>
      <point x="142" y="501" type="curve"/>
    </contour>
    <contour>
      <point x="44" y="-19" type="curve"/>
      <point x="166" y="485" type="line"/>
      <point x="198" y="497"/>
      <point x="233" y="503"/>
      <point x="260" y="503" type="curve" smooth="yes"/>
      <point x="328" y="503"/>
      <point x="363" y="459"/>
      <point x="363" y="377" type="curve" smooth="yes"/>
      <point x="363" y="210"/>
      <point x="258" y="31"/>
    </contour>
  </outline>
</glyph>
<glyph name="clickalveolar" format="2">
  <advance width="419"/>
  <unicode hex="01C2"/>
  <outline>
    <contour>
      <point x="89" y="-185" type="line"/>
      <point x="118" y="-185" type="line"/>
      <point x="212" y="200" type="line"/>
      <point x="361" y="200" type="line"/>
      <point x="368" y="227" type="line"/>
      <point x="217" y="227" type="line"/>
      <point x="254" y="374" type="line"/>
      <point x="403" y="374" type="line"/>
      <point x="408" y="399" type="line"/>
      <point x="258" y="399" type="line"/>
      <point x="350" y="783" type="line"/>
      <point x="321" y="783" type="line"/>
      <point x="229" y="399" type="line"/>
      <point x="79" y="399" type="line"/>
      <point x="74" y="374" type="line"/>
      <point x="223" y="374" type="line"/>
      <point x="188" y="227" type="line"/>
      <point x="38" y="227" type="line"/>
      <point x="33" y="200" type="line"/>
      <point x="181" y="200" type="line"/>
    </contour>
  </outline>
</glyph>
<glyph name="Yogh" format="2">
  <advance width="384"/>
  <unicode hex="021C"/>
  <outline>
    <contour>
      <point x="-5" y="-185" type="curve" smooth="yes"/>
      <point x="192" y="-185"/>
      <point x="303" y="-26"/>
      <point x="303" y="140" type="curve" smooth="yes"/>
      <point x="303" y="214"/>
      <point x="271" y="270"/>
      <point x="207" y="296" type="curve"/>
      <point x="313" y="331"/>
      <point x="382" y="454"/>
      <point x="382" y="566" type="curve" smooth="yes"/>
      <point x="382" y="652"/>
      <point x="334" y="703"/>
      <point x="246" y="703" type="curve" smooth="yes"/>
      <point x="202" y="703"/>
      <point x="159" y="693"/>
      <point x="113" y="667" type="curve"/>
      <point x="121" y="642" type="line"/>
      <point x="164" y="666"/>
      <point x="204" y="676"/>
      <point x="244" y="676" type="curve" smooth="yes"/>
      <point x="317" y="676"/>
      <point x="352" y="637"/>
      <point x="352" y="568" type="curve" smooth="yes"/>
      <point x="352" y="430"/>
      <point x="254" y="310"/>
      <point x="152" y="310" type="curve" smooth="yes"/>
      <point x="112" y="310" type="line"/>
      <point x="105" y="281" type="line"/>
      <point x="147" y="281" type="line" smooth="yes"/>
      <point x="223" y="281"/>
      <point x="274" y="226"/>
      <point x="274" y="137" type="curve" smooth="yes"/>
      <point x="274" y="-7"/>
      <point x="172" y="-157"/>
      <point x="1" y="-157" type="curve" smooth="yes"/>
      <point x="-24" y="-157"/>
      <point x="-46" y="-156"/>
      <point x="-67" y="-152" type="curve"/>
      <point x="-72" y="-179" type="line"/>
      <point x="-51" y="-184"/>
      <point x="-24" y="-185"/>
    </contour>
  </outline>
</glyph>
<glyph name="dcurl" format="2">
  <advance width="541"/>
  <unicode hex="0221"/>
  <outline>
    <contour>
      <point x="308" y="-177" type="curve" smooth="yes"/>
      <point x="378" y="-177"/>
      <point x="435" y="-103"/>
      <point x="435" y="-2" type="curve" smooth="yes"/>
      <point x="435" y="51"/>
      <point x="410" y="81"/>
      <point x="366" y="81" type="curve" smooth="yes"/>
      <point x="339" y="81"/>
      <point x="314" y="69"/>
      <point x="291" y="47" type="curve"/>
      <point x="464" y="776" type="line"/>
      <point x="436" y="770" type="line"/>
      <point x="375" y="515" type="line"/>
      <point x="354" y="523"/>
      <point x="326" y="529"/>
      <point x="302" y="529" type="curve" smooth="yes"/>
      <point x="156" y="529"/>
      <point x="38" y="356"/>
      <point x="38" y="144" type="curve" smooth="yes"/>
      <point x="38" y="41"/>
      <point x="77" y="-10"/>
      <point x="146" y="-10" type="curve" smooth="yes"/>
      <point x="182" y="-10"/>
      <point x="223" y="5"/>
      <point x="261" y="32" type="curve"/>
      <point x="260" y="24"/>
      <point x="259" y="16"/>
      <point x="258" y="10" type="curve"/>
      <point x="145" y="-147" type="line"/>
      <point x="165" y="-159" type="line"/>
      <point x="233" y="-65" type="line"/>
      <point x="232" y="-77"/>
      <point x="230" y="-85"/>
      <point x="230" y="-94" type="curve" smooth="yes"/>
      <point x="229" y="-148"/>
      <point x="260" y="-177"/>
    </contour>
    <contour>
      <point x="307" y="-152" type="curve" smooth="yes"/>
      <point x="278" y="-152"/>
      <point x="259" y="-133"/>
      <point x="259" y="-85" type="curve" smooth="yes"/>
      <point x="259" y="-66"/>
      <point x="264" y="-43"/>
      <point x="271" y="-12" type="curve"/>
      <point x="304" y="35"/>
      <point x="330" y="57"/>
      <point x="359" y="57" type="curve" smooth="yes"/>
      <point x="390" y="57"/>
      <point x="405" y="36"/>
      <point x="405" y="-2" type="curve" smooth="yes"/>
      <point x="405" y="-85"/>
      <point x="364" y="-152"/>
    </contour>
    <contour>
      <point x="146" y="17" type="curve" smooth="yes"/>
      <point x="95" y="17"/>
      <point x="66" y="55"/>
      <point x="66" y="144" type="curve" smooth="yes"/>
      <point x="66" y="335"/>
      <point x="172" y="502"/>
      <point x="293" y="502" type="curve" smooth="yes"/>
      <point x="321" y="502"/>
      <point x="348" y="496"/>
      <point x="369" y="491" type="curve"/>
      <point x="274" y="100" type="line" smooth="yes"/>
      <point x="272" y="90"/>
      <point x="269" y="79"/>
      <point x="266" y="66" type="curve"/>
      <point x="228" y="34"/>
      <point x="184" y="17"/>
    </contour>
  </outline>
</glyph>
<glyph name="OU" format="2">
  <advance width="509"/>
  <unicode hex="0222"/>
  <outline>
    <contour>
      <point x="197" y="-9" type="curve"/>
      <point x="352" y="-9"/>
      <point x="441" y="93"/>
      <point x="441" y="230" type="curve" smooth="yes"/>
      <point x="441" y="284"/>
      <point x="429" y="346"/>
      <point x="350" y="378" type="curve"/>
      <point x="469" y="415"/>
      <point x="491" y="551"/>
      <point x="491" y="646" type="curve" smooth="yes"/>
      <point x="491" y="663"/>
      <point x="490" y="680"/>
      <point x="489" y="693" type="curve"/>
      <point x="464" y="693" type="line"/>
      <point x="465" y="560"/>
      <point x="452" y="397"/>
      <point x="286" y="397" type="curve" smooth="yes"/>
      <point x="230" y="397"/>
      <point x="181" y="412"/>
      <point x="181" y="492" type="curve" smooth="yes"/>
      <point x="181" y="534"/>
      <point x="197" y="597"/>
      <point x="246" y="693" type="curve"/>
      <point x="217" y="693" type="line"/>
      <point x="180" y="623"/>
      <point x="153" y="547"/>
      <point x="153" y="488" type="curve" smooth="yes"/>
      <point x="153" y="444"/>
      <point x="169" y="406"/>
      <point x="210" y="382" type="curve"/>
      <point x="75" y="338"/>
      <point x="33" y="225"/>
      <point x="33" y="143" type="curve" smooth="yes"/>
      <point x="33" y="44"/>
      <point x="101" y="-9"/>
    </contour>
    <contour>
      <point x="204" y="18" type="curve"/>
      <point x="113" y="18"/>
      <point x="63" y="65"/>
      <point x="63" y="146" type="curve" smooth="yes"/>
      <point x="63" y="252"/>
      <point x="135" y="364"/>
      <point x="277" y="364" type="curve" smooth="yes"/>
      <point x="375" y="364"/>
      <point x="409" y="307"/>
      <point x="409" y="227" type="curve" smooth="yes"/>
      <point x="409" y="127"/>
      <point x="349" y="18"/>
    </contour>
  </outline>
</glyph>
<glyph name="lcurl" format="2">
  <advance width="313"/>
  <unicode hex="0234"/>
  <outline>
    <contour>
      <point x="80" y="-177" type="curve" smooth="yes"/>
      <point x="150" y="-177"/>
      <point x="205" y="-101"/>
      <point x="205" y="-2" type="curve" smooth="yes"/>
      <point x="205" y="51"/>
      <point x="181" y="81"/>
      <point x="137" y="81" type="curve" smooth="yes"/>
      <point x="110" y="81"/>
      <point x="85" y="69"/>
      <point x="61" y="47" type="curve"/>
      <point x="236" y="776" type="line"/>
      <point x="208" y="770" type="line"/>
      <point x="23" y="0" type="line"/>
      <point x="-84" y="-147" type="line"/>
      <point x="-62" y="-159" type="line"/>
      <point x="4" y="-65" type="line"/>
      <point x="3" y="-77"/>
      <point x="1" y="-85"/>
      <point x="1" y="-94" type="curve" smooth="yes"/>
      <point x="1" y="-148"/>
      <point x="29" y="-177"/>
    </contour>
    <contour>
      <point x="79" y="-152" type="curve" smooth="yes"/>
      <point x="50" y="-152"/>
      <point x="30" y="-133"/>
      <point x="30" y="-85" type="curve" smooth="yes"/>
      <point x="30" y="-66"/>
      <point x="34" y="-43"/>
      <point x="43" y="-12" type="curve"/>
      <point x="76" y="35"/>
      <point x="101" y="57"/>
      <point x="130" y="57" type="curve" smooth="yes"/>
      <point x="162" y="57"/>
      <point x="177" y="36"/>
      <point x="177" y="-2" type="curve" smooth="yes"/>
      <point x="177" y="-85"/>
      <point x="135" y="-152"/>
    </contour>
  </outline>
</glyph>
<glyph name="ncurl" format="2">
  <advance width="567"/>
  <unicode hex="0235"/>
  <outline>
    <contour>
      <point x="334" y="-177" type="curve" smooth="yes"/>
      <point x="405" y="-177"/>
      <point x="460" y="-101"/>
      <point x="460" y="-2" type="curve" smooth="yes"/>
      <point x="460" y="51"/>
      <point x="435" y="81"/>
      <point x="392" y="81" type="curve" smooth="yes"/>
      <point x="365" y="81"/>
      <point x="341" y="72"/>
      <point x="314" y="46" type="curve"/>
      <point x="380" y="319" type="line" smooth="yes"/>
      <point x="388" y="352"/>
      <point x="392" y="381"/>
      <point x="392" y="407" type="curve" smooth="yes"/>
      <point x="392" y="488"/>
      <point x="350" y="526"/>
      <point x="262" y="526" type="curve" smooth="yes"/>
      <point x="228" y="526"/>
      <point x="179" y="517"/>
      <point x="143" y="503" type="curve"/>
      <point x="22" y="0" type="line"/>
      <point x="49" y="0" type="line"/>
      <point x="165" y="486" type="line"/>
      <point x="195" y="496"/>
      <point x="230" y="502"/>
      <point x="260" y="502" type="curve" smooth="yes"/>
      <point x="333" y="502"/>
      <point x="364" y="472"/>
      <point x="364" y="404" type="curve" smooth="yes"/>
      <point x="364" y="379"/>
      <point x="360" y="348"/>
      <point x="350" y="311" type="curve" smooth="yes"/>
      <point x="284" y="33" type="line" smooth="yes"/>
      <point x="280" y="20"/>
      <point x="277" y="10"/>
      <point x="276" y="-1" type="curve"/>
      <point x="171" y="-147" type="line"/>
      <point x="192" y="-159" type="line"/>
      <point x="259" y="-65" type="line"/>
      <point x="257" y="-77"/>
      <point x="256" y="-85"/>
      <point x="256" y="-94" type="curve" smooth="yes"/>
      <point x="256" y="-148"/>
      <point x="284" y="-177"/>
    </contour>
    <contour>
      <point x="333" y="-152" type="curve" smooth="yes"/>
      <point x="305" y="-152"/>
      <point x="285" y="-133"/>
      <point x="285" y="-85" type="curve" smooth="yes"/>
      <point x="285" y="-66"/>
      <point x="289" y="-43"/>
      <point x="297" y="-12" type="curve"/>
      <point x="330" y="35"/>
      <point x="356" y="57"/>
      <point x="385" y="57" type="curve" smooth="yes"/>
      <point x="416" y="57"/>
      <point x="432" y="36"/>
      <point x="432" y="-2" type="curve" smooth="yes"/>
      <point x="432" y="-85"/>
      <point x="389" y="-152"/>
    </contour>
  </outline>
</glyph>
<glyph name="dbdigraph" format="2">
  <advance width="662"/>
  <unicode hex="0238"/>
  <outline>
    <contour>
      <point x="148" y="-10" type="curve" smooth="yes"/>
      <point x="176" y="-10"/>
      <point x="220" y="-2"/>
      <point x="252" y="14" type="curve"/>
      <point x="284" y="-2"/>
      <point x="324" y="-10"/>
      <point x="357" y="-10" type="curve" smooth="yes"/>
      <point x="503" y="-10"/>
      <point x="624" y="164"/>
      <point x="624" y="375" type="curve" smooth="yes"/>
      <point x="623" y="478"/>
      <point x="586" y="529"/>
      <point x="510" y="529" type="curve" smooth="yes"/>
      <point x="477" y="529"/>
      <point x="437" y="516"/>
      <point x="394" y="482" type="curve"/>
      <point x="464" y="776" type="line"/>
      <point x="436" y="770" type="line"/>
      <point x="376" y="515" type="line"/>
      <point x="350" y="523"/>
      <point x="321" y="528"/>
      <point x="297" y="528" type="curve" smooth="yes"/>
      <point x="154" y="528"/>
      <point x="38" y="356"/>
      <point x="38" y="143" type="curve" smooth="yes"/>
      <point x="38" y="41"/>
      <point x="74" y="-10"/>
    </contour>
    <contour>
      <point x="149" y="17" type="curve" smooth="yes"/>
      <point x="92" y="17"/>
      <point x="67" y="55"/>
      <point x="67" y="144" type="curve" smooth="yes"/>
      <point x="67" y="336"/>
      <point x="171" y="501"/>
      <point x="289" y="501" type="curve" smooth="yes"/>
      <point x="319" y="501"/>
      <point x="350" y="496"/>
      <point x="369" y="487" type="curve"/>
      <point x="263" y="50" type="line"/>
      <point x="224" y="26"/>
      <point x="184" y="17"/>
    </contour>
    <contour>
      <point x="365" y="16" type="curve" smooth="yes"/>
      <point x="336" y="16"/>
      <point x="308" y="22"/>
      <point x="286" y="31" type="curve"/>
      <point x="385" y="441" type="line"/>
      <point x="424" y="480"/>
      <point x="470" y="502"/>
      <point x="509" y="502" type="curve" smooth="yes"/>
      <point x="568" y="502"/>
      <point x="594" y="463"/>
      <point x="594" y="375" type="curve" smooth="yes"/>
      <point x="594" y="183"/>
      <point x="488" y="16"/>
    </contour>
  </outline>
</glyph>
<glyph name="zswashtail" format="2">
  <advance width="311"/>
  <unicode hex="0240"/>
  <outline>
    <contour>
      <point x="223" y="-191" type="curve"/>
      <point x="234" y="-191"/>
      <point x="243" y="-189"/>
      <point x="249" y="-186" type="curve"/>
      <point x="247" y="-164" type="line"/>
      <point x="241" y="-167"/>
      <point x="235" y="-167"/>
      <point x="227" y="-167" type="curve" smooth="yes"/>
      <point x="199" y="-167"/>
      <point x="178" y="-143"/>
      <point x="149" y="-91" type="curve" smooth="yes"/>
      <point x="123" y="-46"/>
      <point x="97" y="28"/>
      <point x="13" y="28" type="curve"/>
      <point x="106" y="190"/>
      <point x="225" y="359"/>
      <point x="338" y="493" type="curve"/>
      <point x="341" y="516" type="line"/>
      <point x="103" y="516" type="line"/>
      <point x="98" y="490" type="line"/>
      <point x="304" y="490" type="line"/>
      <point x="175" y="335"/>
      <point x="58" y="162"/>
      <point x="-18" y="24" type="curve"/>
      <point x="-23" y="0" type="line"/>
      <point x="23" y="0" type="line" smooth="yes"/>
      <point x="79" y="0"/>
      <point x="91" y="-47"/>
      <point x="119" y="-97" type="curve" smooth="yes"/>
      <point x="165" y="-176"/>
      <point x="186" y="-191"/>
    </contour>
  </outline>
</glyph>
<glyph name="Glottalstop" format="2">
  <advance width="352"/>
  <unicode hex="0241"/>
  <outline>
    <contour>
      <point x="52" y="0" type="line"/>
      <point x="82" y="0" type="line"/>
      <point x="129" y="198" type="line" smooth="yes"/>
      <point x="155" y="304"/>
      <point x="198" y="329"/>
      <point x="269" y="374" type="curve" smooth="yes"/>
      <point x="342" y="425"/>
      <point x="399" y="487"/>
      <point x="399" y="579" type="curve" smooth="yes"/>
      <point x="399" y="645"/>
      <point x="356" y="703"/>
      <point x="264" y="703" type="curve" smooth="yes"/>
      <point x="214" y="703"/>
      <point x="161" y="690"/>
      <point x="109" y="663" type="curve"/>
      <point x="117" y="635" type="line"/>
      <point x="163" y="659"/>
      <point x="211" y="674"/>
      <point x="259" y="674" type="curve" smooth="yes"/>
      <point x="330" y="674"/>
      <point x="369" y="633"/>
      <point x="369" y="574" type="curve" smooth="yes"/>
      <point x="369" y="501"/>
      <point x="321" y="442"/>
      <point x="254" y="399" type="curve" smooth="yes"/>
      <point x="182" y="350"/>
      <point x="129" y="320"/>
      <point x="99" y="197" type="curve" smooth="yes"/>
    </contour>
  </outline>
</glyph>
<glyph name="Bstroke" format="2">
  <advance width="486"/>
  <unicode hex="0243"/>
  <outline>
    <contour>
      <point x="161" y="-2" type="curve" smooth="yes"/>
      <point x="333" y="-2"/>
      <point x="419" y="90"/>
      <point x="419" y="220" type="curve" smooth="yes"/>
      <point x="419" y="284"/>
      <point x="386" y="334"/>
      <point x="314" y="357" type="curve"/>
      <point x="443" y="389"/>
      <point x="478" y="489"/>
      <point x="478" y="567" type="curve" smooth="yes"/>
      <point x="478" y="652"/>
      <point x="420" y="697"/>
      <point x="307" y="697" type="curve" smooth="yes"/>
      <point x="268" y="697"/>
      <point x="225" y="691"/>
      <point x="190" y="683" type="curve"/>
      <point x="76" y="210" type="line"/>
      <point x="10" y="210" type="line"/>
      <point x="1" y="179" type="line"/>
      <point x="69" y="179" type="line"/>
      <point x="29" y="13" type="line"/>
      <point x="68" y="3"/>
      <point x="114" y="-2"/>
    </contour>
    <contour>
      <point x="161" y="27" type="curve" smooth="yes"/>
      <point x="129" y="27"/>
      <point x="89" y="31"/>
      <point x="64" y="36" type="curve"/>
      <point x="99" y="179" type="line"/>
      <point x="233" y="179" type="line"/>
      <point x="241" y="210" type="line"/>
      <point x="106" y="210" type="line"/>
      <point x="138" y="346" type="line"/>
      <point x="229" y="346" type="line" smooth="yes"/>
      <point x="333" y="346"/>
      <point x="387" y="300"/>
      <point x="387" y="215" type="curve" smooth="yes"/>
      <point x="387" y="98"/>
      <point x="311" y="27"/>
    </contour>
    <contour>
      <point x="146" y="374" type="line"/>
      <point x="214" y="659" type="line"/>
      <point x="236" y="665"/>
      <point x="269" y="668"/>
      <point x="300" y="668" type="curve" smooth="yes"/>
      <point x="400" y="668"/>
      <point x="447" y="638"/>
      <point x="447" y="564" type="curve" smooth="yes"/>
      <point x="447" y="476"/>
      <point x="396" y="374"/>
      <point x="247" y="374" type="curve" smooth="yes"/>
    </contour>
  </outline>
</glyph>
<glyph name="Ubar" format="2">
  <advance width="515"/>
  <unicode hex="0244"/>
  <outline>
    <contour>
      <point x="206" y="-8" type="curve" smooth="yes"/>
      <point x="325" y="-8"/>
      <point x="385" y="64"/>
      <point x="421" y="211" type="curve" smooth="yes"/>
      <point x="456" y="364" type="line"/>
      <point x="515" y="364" type="line"/>
      <point x="521" y="390" type="line"/>
      <point x="464" y="390" type="line"/>
      <point x="535" y="693" type="line"/>
      <point x="505" y="693" type="line"/>
      <point x="434" y="390" type="line"/>
      <point x="145" y="390" type="line"/>
      <point x="218" y="693" type="line"/>
      <point x="188" y="693" type="line"/>
      <point x="115" y="390" type="line"/>
      <point x="56" y="390" type="line"/>
      <point x="51" y="364" type="line"/>
      <point x="110" y="364" type="line"/>
      <point x="71" y="208" type="line" smooth="yes"/>
      <point x="64" y="177"/>
      <point x="61" y="148"/>
      <point x="61" y="124" type="curve" smooth="yes"/>
      <point x="61" y="33"/>
      <point x="111" y="-8"/>
    </contour>
    <contour>
      <point x="209" y="20" type="curve" smooth="yes"/>
      <point x="129" y="20"/>
      <point x="90" y="56"/>
      <point x="90" y="130" type="curve" smooth="yes"/>
      <point x="90" y="153"/>
      <point x="94" y="179"/>
      <point x="101" y="209" type="curve" smooth="yes"/>
      <point x="138" y="364" type="line"/>
      <point x="427" y="364" type="line"/>
      <point x="390" y="210" type="line" smooth="yes"/>
      <point x="359" y="82"/>
      <point x="308" y="20"/>
    </contour>
  </outline>
</glyph>
<glyph name="Estroke" format="2">
  <advance width="402"/>
  <unicode hex="0246"/>
  <outline>
    <contour>
      <point x="91" y="-112" type="line"/>
      <point x="142" y="0" type="line"/>
      <point x="312" y="0" type="line"/>
      <point x="318" y="27" type="line"/>
      <point x="154" y="27" type="line"/>
      <point x="301" y="351" type="line"/>
      <point x="351" y="351" type="line"/>
      <point x="358" y="380" type="line"/>
      <point x="312" y="380" type="line"/>
      <point x="482" y="755" type="line"/>
      <point x="459" y="765" type="line"/>
      <point x="426" y="693" type="line"/>
      <point x="192" y="693" type="line"/>
      <point x="26" y="0" type="line"/>
      <point x="113" y="0" type="line"/>
      <point x="67" y="-103" type="line"/>
    </contour>
    <contour>
      <point x="61" y="27" type="line"/>
      <point x="140" y="351" type="line"/>
      <point x="273" y="351" type="line"/>
      <point x="126" y="27" type="line"/>
    </contour>
    <contour>
      <point x="145" y="380" type="line"/>
      <point x="215" y="667" type="line"/>
      <point x="415" y="667" type="line"/>
      <point x="284" y="380" type="line"/>
    </contour>
  </outline>
</glyph>
<glyph name="Qhooktail" format="2">
  <advance width="571"/>
  <unicode hex="024A"/>
  <outline>
    <contour>
      <point x="455" y="-187" type="curve" smooth="yes"/>
      <point x="472" y="-187"/>
      <point x="492" y="-181"/>
      <point x="503" y="-175" type="curve"/>
      <point x="498" y="-151" type="line"/>
      <point x="483" y="-158"/>
      <point x="471" y="-163"/>
      <point x="456" y="-163" type="curve" smooth="yes"/>
      <point x="432" y="-163"/>
      <point x="418" y="-150"/>
      <point x="418" y="-116" type="curve" smooth="yes"/>
      <point x="418" y="-103"/>
      <point x="420" y="-88"/>
      <point x="425" y="-68" type="curve" smooth="yes"/>
      <point x="514" y="302" type="line" smooth="yes"/>
      <point x="528" y="363"/>
      <point x="539" y="430"/>
      <point x="539" y="501" type="curve" smooth="yes"/>
      <point x="539" y="632"/>
      <point x="487" y="703"/>
      <point x="388" y="703" type="curve" smooth="yes"/>
      <point x="223" y="703"/>
      <point x="76" y="476"/>
      <point x="76" y="199" type="curve" smooth="yes"/>
      <point x="76" y="64"/>
      <point x="127" y="-9"/>
      <point x="226" y="-9" type="curve" smooth="yes"/>
      <point x="316" y="-9"/>
      <point x="391" y="55"/>
      <point x="449" y="147" type="curve"/>
      <point x="397" y="-69" type="line" smooth="yes"/>
      <point x="393" y="-86"/>
      <point x="390" y="-103"/>
      <point x="390" y="-114" type="curve" smooth="yes"/>
      <point x="390" y="-167"/>
      <point x="418" y="-187"/>
    </contour>
    <contour>
      <point x="231" y="18" type="curve" smooth="yes"/>
      <point x="143" y="18"/>
      <point x="107" y="75"/>
      <point x="107" y="206" type="curve" smooth="yes"/>
      <point x="107" y="460"/>
      <point x="239" y="676"/>
      <point x="385" y="676" type="curve" smooth="yes"/>
      <point x="468" y="676"/>
      <point x="508" y="619"/>
      <point x="508" y="493" type="curve" smooth="yes"/>
      <point x="508" y="235"/>
      <point x="375" y="18"/>
    </contour>
  </outline>
</glyph>
<glyph name="ystroke" format="2">
  <advance width="350"/>
  <unicode hex="024F"/>
  <outline>
    <contour>
      <point x="-41" y="-188" type="curve" smooth="yes"/>
      <point x="27" y="-188"/>
      <point x="83" y="-129"/>
      <point x="168" y="8" type="curve" smooth="yes"/>
      <point x="221" y="93"/>
      <point x="269" y="190"/>
      <point x="308" y="291" type="curve"/>
      <point x="356" y="291" type="line"/>
      <point x="361" y="317" type="line"/>
      <point x="319" y="317" type="line"/>
      <point x="343" y="384"/>
      <point x="363" y="450"/>
      <point x="377" y="516" type="curve"/>
      <point x="349" y="516" type="line"/>
      <point x="336" y="458"/>
      <point x="317" y="389"/>
      <point x="289" y="317" type="curve"/>
      <point x="108" y="317" type="line"/>
      <point x="104" y="387"/>
      <point x="104" y="456"/>
      <point x="108" y="516" type="curve"/>
      <point x="81" y="516" type="line"/>
      <point x="78" y="447"/>
      <point x="77" y="382"/>
      <point x="80" y="317" type="curve"/>
      <point x="33" y="317" type="line"/>
      <point x="28" y="291" type="line"/>
      <point x="81" y="291" type="line"/>
      <point x="88" y="193"/>
      <point x="104" y="95"/>
      <point x="130" y="-9" type="curve"/>
      <point x="63" y="-114"/>
      <point x="8" y="-162"/>
      <point x="-41" y="-162" type="curve" smooth="yes"/>
      <point x="-51" y="-162"/>
      <point x="-64" y="-159"/>
      <point x="-75" y="-155" type="curve"/>
      <point x="-85" y="-179" type="line"/>
      <point x="-74" y="-185"/>
      <point x="-58" y="-188"/>
    </contour>
    <contour>
      <point x="150" y="22" type="curve"/>
      <point x="130" y="109"/>
      <point x="117" y="201"/>
      <point x="110" y="291" type="curve"/>
      <point x="279" y="291" type="line"/>
      <point x="244" y="203"/>
      <point x="202" y="111"/>
    </contour>
  </outline>
</glyph>
<glyph name="strokeshortcomb" format="2">
  <unicode hex="0335"/>
  <anchor x="104" y="273" name="_center"/>
  <outline>
    <contour>
      <point x="9" y="260" type="line"/>
      <point x="192" y="260" type="line"/>
      <point x="198" y="285" type="line"/>
      <point x="15" y="285" type="line"/>
    </contour>
  </outline>
</glyph>
<glyph name="Delta" format="2">
  <advance width="453"/>
  <unicode hex="0394"/>
  <outline>
    <contour>
      <point x="-33" y="0" type="curve"/>
      <point x="364" y="0" type="line"/>
      <point x="373" y="212"/>
      <point x="366" y="445"/>
      <point x="341" y="693" type="curve"/>
      <point x="304" y="693" type="line"/>
      <point x="179" y="479"/>
      <point x="44" y="211"/>
    </contour>
    <contour>
      <point x="5" y="27" type="line"/>
      <point x="79" y="217"/>
      <point x="200" y="464"/>
      <point x="317" y="661" type="curve"/>
      <point x="339" y="428"/>
      <point x="342" y="215"/>
      <point x="334" y="27" type="curve"/>
    </contour>
  </outline>
</glyph>
<glyph name="Theta" format="2">
  <advance width="570"/>
  <unicode hex="0398"/>
  <outline>
    <contour>
      <point x="226" y="-9" type="curve" smooth="yes"/>
      <point x="392" y="-9"/>
      <point x="539" y="222"/>
      <point x="539" y="501" type="curve" smooth="yes"/>
      <point x="539" y="632"/>
      <point x="487" y="703"/>
      <point x="388" y="703" type="curve" smooth="yes"/>
      <point x="223" y="703"/>
      <point x="76" y="476"/>
      <point x="76" y="199" type="curve" smooth="yes"/>
      <point x="76" y="64"/>
      <point x="127" y="-9"/>
    </contour>
    <contour>
      <point x="231" y="18" type="curve" smooth="yes"/>
      <point x="143" y="18"/>
      <point x="107" y="75"/>
      <point x="107" y="206" type="curve" smooth="yes"/>
      <point x="107" y="460"/>
      <point x="239" y="676"/>
      <point x="385" y="676" type="curve" smooth="yes"/>
      <point x="468" y="676"/>
      <point x="508" y="619"/>
      <point x="508" y="493" type="curve" smooth="yes"/>
      <point x="508" y="235"/>
      <point x="375" y="18"/>
    </contour>
    <contour>
      <point x="184" y="333" type="line"/>
      <point x="424" y="333" type="line"/>
      <point x="431" y="361" type="line"/>
      <point x="191" y="361" type="line"/>
    </contour>
  </outline>
</glyph>
<glyph name="Sigma" format="2">
  <advance width="399"/>
  <unicode hex="03A3"/>
  <outline>
    <contour>
      <point x="-20" y="0" type="line"/>
      <point x="302" y="0" type="line"/>
      <point x="310" y="28" type="line"/>
      <point x="19" y="28" type="line"/>
      <point x="117" y="157"/>
      <point x="198" y="263"/>
      <point x="286" y="368" type="curve"/>
      <point x="252" y="460"/>
      <point x="215" y="552"/>
      <point x="178" y="666" type="curve"/>
      <point x="454" y="666" type="line"/>
      <point x="460" y="693" type="line"/>
      <point x="156" y="693" type="line"/>
      <point x="150" y="663" type="line"/>
      <point x="178" y="573"/>
      <point x="213" y="483"/>
      <point x="256" y="372" type="curve"/>
      <point x="148" y="244"/>
      <point x="69" y="137"/>
      <point x="-14" y="29" type="curve"/>
    </contour>
  </outline>
</glyph>
<glyph name="Omega" format="2">
  <advance width="574"/>
  <unicode hex="03A9"/>
  <outline>
    <contour>
      <point x="-5" y="0" type="line"/>
      <point x="186" y="0" type="line"/>
      <point x="190" y="11" type="line"/>
      <point x="139" y="62"/>
      <point x="110" y="128"/>
      <point x="110" y="235" type="curve" smooth="yes"/>
      <point x="110" y="431"/>
      <point x="233" y="676"/>
      <point x="388" y="676" type="curve" smooth="yes"/>
      <point x="480" y="676"/>
      <point x="511" y="602"/>
      <point x="511" y="491" type="curve" smooth="yes"/>
      <point x="511" y="313"/>
      <point x="376" y="74"/>
      <point x="265" y="11" type="curve"/>
      <point x="262" y="0" type="line"/>
      <point x="453" y="0" type="line"/>
      <point x="460" y="27" type="line"/>
      <point x="326" y="27" type="line"/>
      <point x="442" y="135"/>
      <point x="541" y="328"/>
      <point x="541" y="495" type="curve" smooth="yes"/>
      <point x="541" y="622"/>
      <point x="495" y="703"/>
      <point x="394" y="703" type="curve" smooth="yes"/>
      <point x="212" y="703"/>
      <point x="79" y="437"/>
      <point x="79" y="229" type="curve" smooth="yes"/>
      <point x="79" y="141"/>
      <point x="103" y="75"/>
      <point x="142" y="27" type="curve"/>
      <point x="2" y="27" type="line"/>
    </contour>
  </outline>
</glyph>
<glyph name="beta" format="2">
  <advance width="454"/>
  <unicode hex="03B2"/>
  <outline>
    <contour>
      <point x="-22" y="-185" type="line"/>
      <point x="5" y="-185" type="line"/>
      <point x="54" y="20" type="line"/>
      <point x="86" y="3"/>
      <point x="129" y="-7"/>
      <point x="179" y="-7" type="curve" smooth="yes"/>
      <point x="314" y="-7"/>
      <point x="409" y="117"/>
      <point x="409" y="274" type="curve" smooth="yes"/>
      <point x="409" y="345"/>
      <point x="380" y="401"/>
      <point x="314" y="422" type="curve"/>
      <point x="412" y="468"/>
      <point x="464" y="559"/>
      <point x="464" y="655" type="curve" smooth="yes"/>
      <point x="464" y="730"/>
      <point x="420" y="777"/>
      <point x="351" y="777" type="curve" smooth="yes"/>
      <point x="254" y="777"/>
      <point x="191" y="709"/>
      <point x="159" y="571" type="curve" smooth="yes"/>
    </contour>
    <contour>
      <point x="189" y="19" type="curve" smooth="yes"/>
      <point x="139" y="19"/>
      <point x="93" y="31"/>
      <point x="62" y="49" type="curve"/>
      <point x="186" y="569" type="line" smooth="yes"/>
      <point x="215" y="690"/>
      <point x="266" y="752"/>
      <point x="348" y="752" type="curve" smooth="yes"/>
      <point x="405" y="752"/>
      <point x="437" y="712"/>
      <point x="437" y="652" type="curve" smooth="yes"/>
      <point x="437" y="540"/>
      <point x="348" y="434"/>
      <point x="257" y="434" type="curve" smooth="yes"/>
      <point x="246" y="434" type="line"/>
      <point x="240" y="410" type="line"/>
      <point x="248" y="410" type="line" smooth="yes"/>
      <point x="338" y="410"/>
      <point x="381" y="355"/>
      <point x="381" y="268" type="curve" smooth="yes"/>
      <point x="381" y="119"/>
      <point x="282" y="19"/>
    </contour>
  </outline>
</glyph>
<glyph name="delta" format="2">
  <advance width="425"/>
  <unicode hex="03B4"/>
  <outline>
    <contour>
      <point x="157" y="-12" type="curve" smooth="yes"/>
      <point x="287" y="-12"/>
      <point x="381" y="169"/>
      <point x="381" y="340" type="curve" smooth="yes"/>
      <point x="381" y="407"/>
      <point x="358" y="459"/>
      <point x="294" y="507" type="curve" smooth="yes"/>
      <point x="230" y="556"/>
      <point x="207" y="582"/>
      <point x="207" y="634" type="curve" smooth="yes"/>
      <point x="207" y="701"/>
      <point x="262" y="750"/>
      <point x="342" y="750" type="curve" smooth="yes"/>
      <point x="377" y="750"/>
      <point x="417" y="740"/>
      <point x="443" y="727" type="curve"/>
      <point x="453" y="749" type="line"/>
      <point x="429" y="764"/>
      <point x="389" y="775"/>
      <point x="349" y="775" type="curve" smooth="yes"/>
      <point x="246" y="775"/>
      <point x="179" y="710"/>
      <point x="179" y="632" type="curve" smooth="yes"/>
      <point x="179" y="587"/>
      <point x="201" y="549"/>
      <point x="244" y="513" type="curve"/>
      <point x="124" y="470"/>
      <point x="39" y="314"/>
      <point x="39" y="154" type="curve" smooth="yes"/>
      <point x="39" y="54"/>
      <point x="85" y="-12"/>
    </contour>
    <contour>
      <point x="162" y="13" type="curve" smooth="yes"/>
      <point x="100" y="13"/>
      <point x="68" y="73"/>
      <point x="68" y="160" type="curve" smooth="yes"/>
      <point x="68" y="300"/>
      <point x="141" y="454"/>
      <point x="264" y="498" type="curve"/>
      <point x="330" y="450"/>
      <point x="353" y="401"/>
      <point x="353" y="338" type="curve" smooth="yes"/>
      <point x="353" y="181"/>
      <point x="269" y="13"/>
    </contour>
  </outline>
</glyph>
<glyph name="rho" format="2">
  <advance width="418"/>
  <unicode hex="03C1"/>
  <anchor x="273" y="516" name="top"/>
  <outline>
    <contour>
      <point x="-32" y="-185" type="line"/>
      <point x="-4" y="-185" type="line"/>
      <point x="45" y="22" type="line"/>
      <point x="67" y="2"/>
      <point x="104" y="-10"/>
      <point x="148" y="-10" type="curve" smooth="yes"/>
      <point x="288" y="-10"/>
      <point x="379" y="178"/>
      <point x="379" y="367" type="curve" smooth="yes"/>
      <point x="379" y="468"/>
      <point x="343" y="528"/>
      <point x="267" y="528" type="curve" smooth="yes"/>
      <point x="186" y="528"/>
      <point x="123" y="460"/>
      <point x="94" y="340" type="curve" smooth="yes"/>
    </contour>
    <contour>
      <point x="157" y="17" type="curve" smooth="yes"/>
      <point x="122" y="17"/>
      <point x="78" y="23"/>
      <point x="52" y="52" type="curve"/>
      <point x="122" y="345" type="line" smooth="yes"/>
      <point x="146" y="446"/>
      <point x="203" y="503"/>
      <point x="264" y="503" type="curve" smooth="yes"/>
      <point x="330" y="503"/>
      <point x="352" y="449"/>
      <point x="352" y="363" type="curve" smooth="yes"/>
      <point x="352" y="192"/>
      <point x="268" y="17"/>
    </contour>
  </outline>
</glyph>
<glyph name="sigma" format="2">
  <advance width="433"/>
  <unicode hex="03C3"/>
  <outline>
    <contour>
      <point x="149" y="-10" type="curve" smooth="yes"/>
      <point x="279" y="-10"/>
      <point x="371" y="183"/>
      <point x="371" y="360" type="curve" smooth="yes"/>
      <point x="371" y="417"/>
      <point x="359" y="461"/>
      <point x="343" y="490" type="curve"/>
      <point x="460" y="490" type="line"/>
      <point x="466" y="516" type="line"/>
      <point x="306" y="516" type="line" smooth="yes"/>
      <point x="143" y="516"/>
      <point x="40" y="360"/>
      <point x="40" y="142" type="curve" smooth="yes"/>
      <point x="40" y="44"/>
      <point x="80" y="-10"/>
    </contour>
    <contour>
      <point x="155" y="17" type="curve" smooth="yes"/>
      <point x="100" y="17"/>
      <point x="68" y="57"/>
      <point x="68" y="139" type="curve" smooth="yes"/>
      <point x="68" y="336"/>
      <point x="156" y="490"/>
      <point x="300" y="490" type="curve" smooth="yes"/>
      <point x="311" y="490" type="line"/>
      <point x="330" y="468"/>
      <point x="342" y="418"/>
      <point x="342" y="350" type="curve" smooth="yes"/>
      <point x="342" y="189"/>
      <point x="257" y="17"/>
    </contour>
  </outline>
</glyph>
<glyph name="psi" format="2">
  <advance width="552"/>
  <unicode hex="03C8"/>
  <outline>
    <contour>
      <point x="156" y="-185" type="line"/>
      <point x="184" y="-185" type="line"/>
      <point x="226" y="-8" type="line"/>
      <point x="366" y="-3"/>
      <point x="431" y="62"/>
      <point x="466" y="210" type="curve" smooth="yes"/>
      <point x="540" y="516" type="line"/>
      <point x="512" y="516" type="line"/>
      <point x="438" y="208" type="line" smooth="yes"/>
      <point x="410" y="90"/>
      <point x="362" y="23"/>
      <point x="232" y="19" type="curve"/>
      <point x="351" y="516" type="line"/>
      <point x="324" y="516" type="line"/>
      <point x="205" y="19" type="line"/>
      <point x="121" y="26"/>
      <point x="80" y="57"/>
      <point x="80" y="132" type="curve" smooth="yes"/>
      <point x="80" y="154"/>
      <point x="83" y="180"/>
      <point x="90" y="208" type="curve" smooth="yes"/>
      <point x="164" y="516" type="line"/>
      <point x="137" y="516" type="line"/>
      <point x="63" y="210" type="line" smooth="yes"/>
      <point x="56" y="181"/>
      <point x="52" y="153"/>
      <point x="52" y="131" type="curve" smooth="yes"/>
      <point x="52" y="41"/>
      <point x="105" y="0"/>
      <point x="199" y="-8" type="curve"/>
    </contour>
  </outline>
</glyph>
<glyph name="Dje-cy" format="2">
  <advance width="545"/>
  <unicode hex="0402"/>
  <outline>
    <contour>
      <point x="312" y="0" type="curve" smooth="yes"/>
      <point x="424" y="0"/>
      <point x="501" y="143"/>
      <point x="501" y="275" type="curve" smooth="yes"/>
      <point x="501" y="373"/>
      <point x="452" y="431"/>
      <point x="364" y="431" type="curve" smooth="yes"/>
      <point x="317" y="431"/>
      <point x="281" y="420"/>
      <point x="248" y="405" type="curve"/>
      <point x="310" y="665" type="line"/>
      <point x="469" y="665" type="line"/>
      <point x="475" y="693" type="line"/>
      <point x="127" y="693" type="line"/>
      <point x="121" y="665" type="line"/>
      <point x="280" y="665" type="line"/>
      <point x="121" y="0" type="line"/>
      <point x="149" y="0" type="line"/>
      <point x="240" y="375" type="line"/>
      <point x="273" y="392"/>
      <point x="315" y="403"/>
      <point x="359" y="403" type="curve" smooth="yes"/>
      <point x="434" y="403"/>
      <point x="472" y="354"/>
      <point x="472" y="272" type="curve" smooth="yes"/>
      <point x="472" y="150"/>
      <point x="400" y="28"/>
      <point x="317" y="28" type="curve" smooth="yes"/>
      <point x="301" y="28"/>
      <point x="292" y="28"/>
      <point x="280" y="30" type="curve"/>
      <point x="270" y="4" type="line"/>
      <point x="283" y="0"/>
      <point x="299" y="0"/>
    </contour>
  </outline>
</glyph>
<glyph name="Tshe-cy" format="2">
  <advance width="539"/>
  <unicode hex="040B"/>
  <outline>
    <contour>
      <point x="120" y="0" type="line"/>
      <point x="150" y="0" type="line"/>
      <point x="240" y="379" type="line"/>
      <point x="279" y="391"/>
      <point x="323" y="401"/>
      <point x="361" y="401" type="curve" smooth="yes"/>
      <point x="433" y="401"/>
      <point x="465" y="369"/>
      <point x="465" y="309" type="curve" smooth="yes"/>
      <point x="465" y="288"/>
      <point x="460" y="264"/>
      <point x="455" y="236" type="curve" smooth="yes"/>
      <point x="398" y="0" type="line"/>
      <point x="428" y="0" type="line"/>
      <point x="485" y="243" type="line" smooth="yes"/>
      <point x="490" y="266"/>
      <point x="494" y="287"/>
      <point x="494" y="308" type="curve" smooth="yes"/>
      <point x="494" y="383"/>
      <point x="451" y="427"/>
      <point x="367" y="427" type="curve" smooth="yes"/>
      <point x="325" y="427"/>
      <point x="286" y="418"/>
      <point x="248" y="408" type="curve"/>
      <point x="309" y="665" type="line"/>
      <point x="469" y="665" type="line"/>
      <point x="474" y="693" type="line"/>
      <point x="128" y="693" type="line"/>
      <point x="122" y="665" type="line"/>
      <point x="281" y="665" type="line"/>
    </contour>
  </outline>
</glyph>
<glyph name="Zhe-cy" format="2">
  <advance width="587"/>
  <unicode hex="0416"/>
  <anchor x="443" y="0" name="bottomright"/>
  <anchor x="386" y="672" name="top"/>
  <outline>
    <contour>
      <point x="-44" y="0" type="curve"/>
      <point x="-9" y="0" type="line"/>
      <point x="77" y="128"/>
      <point x="188" y="260"/>
      <point x="299" y="351" type="curve"/>
      <point x="215" y="0" type="line"/>
      <point x="245" y="0" type="line"/>
      <point x="328" y="350" type="line"/>
      <point x="398" y="259"/>
      <point x="448" y="127"/>
      <point x="472" y="0" type="curve"/>
      <point x="502" y="0" type="line"/>
      <point x="480" y="116"/>
      <point x="432" y="253"/>
      <point x="359" y="361" type="curve"/>
      <point x="466" y="473"/>
      <point x="553" y="570"/>
      <point x="653" y="693" type="curve"/>
      <point x="619" y="693" type="line"/>
      <point x="529" y="583"/>
      <point x="436" y="479"/>
      <point x="334" y="371" type="curve"/>
      <point x="411" y="693" type="line"/>
      <point x="381" y="693" type="line"/>
      <point x="303" y="369" type="line"/>
      <point x="251" y="480"/>
      <point x="209" y="579"/>
      <point x="168" y="693" type="curve"/>
      <point x="139" y="693" type="line"/>
      <point x="181" y="570"/>
      <point x="221" y="477"/>
      <point x="274" y="366" type="curve"/>
      <point x="149" y="256"/>
      <point x="34" y="117"/>
    </contour>
  </outline>
</glyph>
<glyph name="Ze-cy" format="2">
  <advance width="399"/>
  <unicode hex="0417"/>
  <anchor x="75" y="0" name="bottom"/>
  <anchor x="267" y="672" name="top"/>
  <outline>
    <contour>
      <point x="108" y="-9" type="curve" smooth="yes"/>
      <point x="238" y="-9"/>
      <point x="329" y="91"/>
      <point x="329" y="229" type="curve" smooth="yes"/>
      <point x="329" y="303"/>
      <point x="293" y="350"/>
      <point x="241" y="371" type="curve"/>
      <point x="338" y="401"/>
      <point x="390" y="491"/>
      <point x="390" y="578" type="curve" smooth="yes"/>
      <point x="390" y="652"/>
      <point x="342" y="702"/>
      <point x="261" y="702" type="curve" smooth="yes"/>
      <point x="222" y="702"/>
      <point x="171" y="692"/>
      <point x="133" y="668" type="curve"/>
      <point x="144" y="644" type="line"/>
      <point x="180" y="664"/>
      <point x="224" y="676"/>
      <point x="258" y="676" type="curve" smooth="yes"/>
      <point x="327" y="676"/>
      <point x="360" y="635"/>
      <point x="360" y="575" type="curve" smooth="yes"/>
      <point x="360" y="501"/>
      <point x="313" y="385"/>
      <point x="176" y="385" type="curve" smooth="yes"/>
      <point x="118" y="385" type="line"/>
      <point x="113" y="357" type="line"/>
      <point x="172" y="357" type="line" smooth="yes"/>
      <point x="252" y="357"/>
      <point x="299" y="309"/>
      <point x="299" y="224" type="curve" smooth="yes"/>
      <point x="299" y="91"/>
      <point x="207" y="20"/>
      <point x="113" y="20" type="curve" smooth="yes"/>
      <point x="66" y="20"/>
      <point x="27" y="27"/>
      <point x="-9" y="47" type="curve"/>
      <point x="-21" y="21" type="line"/>
      <point x="15" y="1"/>
      <point x="60" y="-9"/>
    </contour>
  </outline>
</glyph>
<glyph name="El-cy" format="2">
  <advance width="506"/>
  <unicode hex="041B"/>
  <outline>
    <contour>
      <point x="-49" y="-6" type="line"/>
      <point x="50" y="18"/>
      <point x="114" y="92"/>
      <point x="170" y="224" type="curve" smooth="yes"/>
      <point x="212" y="324"/>
      <point x="243" y="449"/>
      <point x="290" y="644" type="curve" smooth="yes"/>
      <point x="294" y="665" type="line"/>
      <point x="486" y="665" type="line"/>
      <point x="327" y="0" type="line"/>
      <point x="357" y="0" type="line"/>
      <point x="524" y="693" type="line"/>
      <point x="272" y="693" type="line"/>
      <point x="266" y="666" type="line" smooth="yes"/>
      <point x="221" y="470"/>
      <point x="180" y="325"/>
      <point x="136" y="222" type="curve" smooth="yes"/>
      <point x="86" y="107"/>
      <point x="27" y="44"/>
      <point x="-52" y="20" type="curve"/>
    </contour>
  </outline>
</glyph>
<glyph name="Che-cy" format="2">
  <advance width="455"/>
  <unicode hex="0427"/>
  <anchor x="312" y="0" name="bottomright"/>
  <anchor x="308" y="672" name="top"/>
  <outline>
    <contour>
      <point x="278" y="0" type="line"/>
      <point x="306" y="0" type="line"/>
      <point x="472" y="693" type="line"/>
      <point x="444" y="693" type="line"/>
      <point x="355" y="320" type="line"/>
      <point x="314" y="305"/>
      <point x="262" y="297"/>
      <point x="220" y="297" type="curve" smooth="yes"/>
      <point x="151" y="297"/>
      <point x="121" y="323"/>
      <point x="121" y="386" type="curve" smooth="yes"/>
      <point x="121" y="408"/>
      <point x="126" y="435"/>
      <point x="134" y="468" type="curve" smooth="yes"/>
      <point x="188" y="693" type="line"/>
      <point x="158" y="693" type="line"/>
      <point x="102" y="460" type="line" smooth="yes"/>
      <point x="95" y="432"/>
      <point x="91" y="406"/>
      <point x="91" y="385" type="curve" smooth="yes"/>
      <point x="91" y="304"/>
      <point x="137" y="267"/>
      <point x="219" y="267" type="curve" smooth="yes"/>
      <point x="259" y="267"/>
      <point x="305" y="275"/>
      <point x="347" y="292" type="curve"/>
    </contour>
  </outline>
</glyph>
<glyph name="Hardsign-cy" format="2">
  <advance width="496"/>
  <unicode hex="042A"/>
  <outline>
    <contour>
      <point x="204" y="-6" type="curve" smooth="yes"/>
      <point x="328" y="-6"/>
      <point x="452" y="82"/>
      <point x="452" y="244" type="curve" smooth="yes"/>
      <point x="452" y="342"/>
      <point x="390" y="401"/>
      <point x="277" y="401" type="curve" smooth="yes"/>
      <point x="250" y="401"/>
      <point x="224" y="398"/>
      <point x="197" y="396" type="curve"/>
      <point x="268" y="693" type="line"/>
      <point x="116" y="693" type="line"/>
      <point x="109" y="665" type="line"/>
      <point x="231" y="665" type="line"/>
      <point x="73" y="5" type="line"/>
      <point x="119" y="-3"/>
      <point x="163" y="-6"/>
    </contour>
    <contour>
      <point x="211" y="22" type="curve" smooth="yes"/>
      <point x="178" y="22"/>
      <point x="139" y="25"/>
      <point x="108" y="30" type="curve"/>
      <point x="189" y="368" type="line"/>
      <point x="226" y="371"/>
      <point x="249" y="372"/>
      <point x="272" y="372" type="curve" smooth="yes"/>
      <point x="379" y="372"/>
      <point x="424" y="320"/>
      <point x="424" y="244" type="curve" smooth="yes"/>
      <point x="424" y="106"/>
      <point x="326" y="22"/>
    </contour>
  </outline>
</glyph>
<glyph name="Ya-cy" format="2">
  <advance width="463"/>
  <unicode hex="042F"/>
  <outline>
    <contour>
      <point x="-28" y="0" type="curve"/>
      <point x="8" y="0" type="line"/>
      <point x="66" y="94"/>
      <point x="142" y="203"/>
      <point x="215" y="293" type="curve"/>
      <point x="231" y="288"/>
      <point x="251" y="286"/>
      <point x="273" y="286" type="curve" smooth="yes"/>
      <point x="352" y="286" type="line"/>
      <point x="284" y="0" type="line"/>
      <point x="314" y="0" type="line"/>
      <point x="478" y="688" type="line"/>
      <point x="445" y="694"/>
      <point x="406" y="699"/>
      <point x="367" y="699" type="curve" smooth="yes"/>
      <point x="210" y="699"/>
      <point x="106" y="596"/>
      <point x="106" y="435" type="curve" smooth="yes"/>
      <point x="106" y="374"/>
      <point x="132" y="325"/>
      <point x="187" y="301" type="curve"/>
      <point x="126" y="227"/>
      <point x="53" y="125"/>
    </contour>
    <contour>
      <point x="281" y="315" type="line" smooth="yes"/>
      <point x="178" y="315"/>
      <point x="135" y="360"/>
      <point x="135" y="434" type="curve" smooth="yes"/>
      <point x="135" y="569"/>
      <point x="214" y="671"/>
      <point x="360" y="671" type="curve" smooth="yes"/>
      <point x="387" y="671"/>
      <point x="420" y="668"/>
      <point x="444" y="665" type="curve"/>
      <point x="359" y="315" type="line"/>
    </contour>
  </outline>
</glyph>
<glyph name="el-cy" format="2">
  <advance width="436"/>
  <unicode hex="043B"/>
  <outline>
    <contour>
      <point x="-43" y="-7" type="line"/>
      <point x="16" y="17"/>
      <point x="51" y="48"/>
      <point x="96" y="119" type="curve" smooth="yes"/>
      <point x="138" y="186"/>
      <point x="164" y="286"/>
      <point x="196" y="417" type="curve" smooth="yes"/>
      <point x="215" y="490" type="line"/>
      <point x="380" y="490" type="line"/>
      <point x="263" y="0" type="line"/>
      <point x="290" y="0" type="line"/>
      <point x="414" y="516" type="line"/>
      <point x="193" y="516" type="line"/>
      <point x="173" y="432" type="line" smooth="yes"/>
      <point x="139" y="295"/>
      <point x="111" y="196"/>
      <point x="73" y="130" type="curve" smooth="yes"/>
      <point x="37" y="66"/>
      <point x="-4" y="38"/>
      <point x="-56" y="16" type="curve"/>
    </contour>
  </outline>
</glyph>
<glyph name="hardsign-cy" format="2">
  <advance width="427"/>
  <unicode hex="044A"/>
  <outline>
    <contour>
      <point x="177" y="-10" type="curve" smooth="yes"/>
      <point x="310" y="-10"/>
      <point x="380" y="84"/>
      <point x="380" y="199" type="curve" smooth="yes"/>
      <point x="380" y="275"/>
      <point x="336" y="319"/>
      <point x="253" y="319" type="curve" smooth="yes"/>
      <point x="217" y="319"/>
      <point x="177" y="308"/>
      <point x="145" y="296" type="curve"/>
      <point x="198" y="516" type="line"/>
      <point x="79" y="516" type="line"/>
      <point x="73" y="490" type="line"/>
      <point x="164" y="490" type="line"/>
      <point x="50" y="12" type="line"/>
      <point x="79" y="-2"/>
      <point x="137" y="-10"/>
    </contour>
    <contour>
      <point x="182" y="17" type="curve" smooth="yes"/>
      <point x="151" y="17"/>
      <point x="111" y="21"/>
      <point x="81" y="31" type="curve"/>
      <point x="138" y="268" type="line"/>
      <point x="170" y="280"/>
      <point x="207" y="293"/>
      <point x="249" y="293" type="curve" smooth="yes"/>
      <point x="321" y="293"/>
      <point x="351" y="257"/>
      <point x="351" y="197" type="curve" smooth="yes"/>
      <point x="351" y="95"/>
      <point x="296" y="17"/>
    </contour>
  </outline>
</glyph>
<glyph name="yeru-cy" format="2">
  <advance width="585"/>
  <unicode hex="044B"/>
  <anchor x="335" y="516" name="top"/>
  <outline>
    <contour>
      <point x="152" y="-10" type="curve" smooth="yes"/>
      <point x="285" y="-10"/>
      <point x="354" y="84"/>
      <point x="354" y="199" type="curve" smooth="yes"/>
      <point x="354" y="275"/>
      <point x="312" y="319"/>
      <point x="227" y="319" type="curve" smooth="yes"/>
      <point x="191" y="319"/>
      <point x="153" y="308"/>
      <point x="121" y="296" type="curve"/>
      <point x="173" y="516" type="line"/>
      <point x="146" y="516" type="line"/>
      <point x="24" y="12" type="line"/>
      <point x="54" y="-2"/>
      <point x="112" y="-10"/>
    </contour>
    <contour>
      <point x="158" y="17" type="curve" smooth="yes"/>
      <point x="125" y="17"/>
      <point x="85" y="21"/>
      <point x="57" y="31" type="curve"/>
      <point x="114" y="268" type="line"/>
      <point x="144" y="280"/>
      <point x="181" y="293"/>
      <point x="223" y="293" type="curve" smooth="yes"/>
      <point x="297" y="293"/>
      <point x="327" y="257"/>
      <point x="327" y="197" type="curve" smooth="yes"/>
      <point x="327" y="95"/>
      <point x="271" y="17"/>
    </contour>
    <contour>
      <point x="412" y="0" type="line"/>
      <point x="439" y="0" type="line"/>
      <point x="563" y="516" type="line"/>
      <point x="535" y="516" type="line"/>
    </contour>
  </outline>
</glyph>
<glyph name="dje-cy" format="2">
  <advance width="445"/>
  <unicode hex="0452"/>
  <outline>
    <contour>
      <point x="133" y="-168" type="line"/>
      <point x="142" y="-163"/>
      <point x="151" y="-159"/>
      <point x="162" y="-154" type="curve" smooth="yes"/>
      <point x="274" y="-95"/>
      <point x="307" y="4"/>
      <point x="359" y="238" type="curve" smooth="yes"/>
      <point x="365" y="262"/>
      <point x="369" y="290"/>
      <point x="369" y="309" type="curve" smooth="yes"/>
      <point x="368" y="391"/>
      <point x="317" y="425"/>
      <point x="236" y="425" type="curve" smooth="yes"/>
      <point x="210" y="425"/>
      <point x="171" y="419"/>
      <point x="139" y="408" type="curve"/>
      <point x="178" y="571" type="line"/>
      <point x="299" y="571" type="line"/>
      <point x="306" y="598" type="line"/>
      <point x="185" y="598" type="line"/>
      <point x="227" y="776" type="line"/>
      <point x="199" y="770" type="line"/>
      <point x="157" y="598" type="line"/>
      <point x="90" y="598" type="line"/>
      <point x="83" y="571" type="line"/>
      <point x="151" y="571" type="line"/>
      <point x="13" y="0" type="line"/>
      <point x="41" y="0" type="line"/>
      <point x="133" y="384" type="line"/>
      <point x="159" y="393"/>
      <point x="204" y="401"/>
      <point x="235" y="401" type="curve" smooth="yes"/>
      <point x="303" y="401"/>
      <point x="340" y="371"/>
      <point x="340" y="304" type="curve" smooth="yes"/>
      <point x="341" y="288"/>
      <point x="336" y="257"/>
      <point x="331" y="234" type="curve" smooth="yes"/>
      <point x="287" y="49"/>
      <point x="263" y="-73"/>
      <point x="158" y="-130" type="curve" smooth="yes"/>
      <point x="147" y="-135"/>
      <point x="137" y="-138"/>
      <point x="128" y="-144" type="curve"/>
    </contour>
  </outline>
</glyph>
<glyph name="e-cy" format="2">
  <advance width="344"/>
  <unicode hex="0454"/>
  <outline>
    <contour>
      <point x="154" y="-10" type="curve" smooth="yes"/>
      <point x="193" y="-10"/>
      <point x="226" y="1"/>
      <point x="254" y="22" type="curve"/>
      <point x="248" y="49" type="line"/>
      <point x="225" y="30"/>
      <point x="191" y="16"/>
      <point x="160" y="16" type="curve" smooth="yes"/>
      <point x="90" y="16"/>
      <point x="71" y="53"/>
      <point x="71" y="155" type="curve" smooth="yes"/>
      <point x="71" y="190"/>
      <point x="74" y="223"/>
      <point x="79" y="255" type="curve"/>
      <point x="240" y="255" type="line"/>
      <point x="247" y="281" type="line"/>
      <point x="84" y="281" type="line"/>
      <point x="115" y="410"/>
      <point x="188" y="501"/>
      <point x="276" y="501" type="curve" smooth="yes"/>
      <point x="300" y="501"/>
      <point x="321" y="497"/>
      <point x="343" y="486" type="curve"/>
      <point x="353" y="515" type="line"/>
      <point x="330" y="524"/>
      <point x="305" y="529"/>
      <point x="281" y="529" type="curve" smooth="yes"/>
      <point x="146" y="529"/>
      <point x="41" y="362"/>
      <point x="41" y="151" type="curve" smooth="yes"/>
      <point x="41" y="39"/>
      <point x="73" y="-10"/>
    </contour>
  </outline>
</glyph>
<glyph name="yat-cy" format="2">
  <advance width="655"/>
  <unicode hex="0463"/>
  <outline>
    <contour>
      <point x="405" y="-10" type="curve" smooth="yes"/>
      <point x="538" y="-10"/>
      <point x="608" y="84"/>
      <point x="608" y="199" type="curve" smooth="yes"/>
      <point x="608" y="275"/>
      <point x="565" y="319"/>
      <point x="481" y="319" type="curve" smooth="yes"/>
      <point x="444" y="319"/>
      <point x="405" y="309"/>
      <point x="374" y="296" type="curve"/>
      <point x="387" y="351"/>
      <point x="391" y="381"/>
      <point x="391" y="406" type="curve" smooth="yes"/>
      <point x="391" y="488"/>
      <point x="349" y="526"/>
      <point x="261" y="526" type="curve" smooth="yes"/>
      <point x="227" y="526"/>
      <point x="178" y="517"/>
      <point x="142" y="503" type="curve"/>
      <point x="21" y="0" type="line"/>
      <point x="48" y="0" type="line"/>
      <point x="164" y="486" type="line"/>
      <point x="194" y="496"/>
      <point x="229" y="502"/>
      <point x="259" y="502" type="curve" smooth="yes"/>
      <point x="332" y="502"/>
      <point x="363" y="472"/>
      <point x="363" y="404" type="curve" smooth="yes"/>
      <point x="363" y="379"/>
      <point x="359" y="350"/>
      <point x="351" y="314" type="curve" smooth="yes"/>
      <point x="277" y="12" type="line"/>
      <point x="308" y="-2"/>
      <point x="365" y="-10"/>
    </contour>
    <contour>
      <point x="411" y="17" type="curve" smooth="yes"/>
      <point x="379" y="17"/>
      <point x="338" y="21"/>
      <point x="310" y="31" type="curve"/>
      <point x="367" y="268" type="line"/>
      <point x="397" y="280"/>
      <point x="434" y="293"/>
      <point x="477" y="293" type="curve" smooth="yes"/>
      <point x="550" y="293"/>
      <point x="580" y="257"/>
      <point x="580" y="197" type="curve" smooth="yes"/>
      <point x="580" y="95"/>
      <point x="524" y="17"/>
    </contour>
  </outline>
</glyph>
<glyph name="Iishorttail-cy" format="2">
  <advance width="540"/>
  <unicode hex="048A"/>
  <outline>
    <contour>
      <point x="296" y="-187" type="line"/>
      <point x="351" y="-146"/>
      <point x="406" y="-78"/>
      <point x="429" y="28" type="curve"/>
      <point x="398" y="28" type="line"/>
      <point x="558" y="693" type="line"/>
      <point x="524" y="693" type="line"/>
      <point x="380" y="521"/>
      <point x="222" y="294"/>
      <point x="71" y="71" type="curve"/>
      <point x="221" y="693" type="line"/>
      <point x="192" y="693" type="line"/>
      <point x="26" y="0" type="line"/>
      <point x="57" y="0" type="line"/>
      <point x="207" y="226"/>
      <point x="362" y="453"/>
      <point x="519" y="645" type="curve"/>
      <point x="363" y="0" type="line"/>
      <point x="395" y="0" type="line"/>
      <point x="376" y="-66"/>
      <point x="341" y="-121"/>
      <point x="282" y="-168" type="curve"/>
    </contour>
    <contour>
      <point x="391" y="761" type="curve" smooth="yes"/>
      <point x="447" y="761"/>
      <point x="488" y="805"/>
      <point x="512" y="871" type="curve"/>
      <point x="491" y="874" type="line"/>
      <point x="465" y="812"/>
      <point x="431" y="787"/>
      <point x="389" y="787" type="curve" smooth="yes"/>
      <point x="346" y="787"/>
      <point x="321" y="813"/>
      <point x="322" y="874" type="curve"/>
      <point x="299" y="870" type="line"/>
      <point x="295" y="804"/>
      <point x="325" y="761"/>
    </contour>
  </outline>
</glyph>
<glyph name="Semisoftsign-cy" format="2">
  <advance width="448"/>
  <unicode hex="048C"/>
  <outline>
    <contour>
      <point x="157" y="-6" type="curve" smooth="yes"/>
      <point x="280" y="-6"/>
      <point x="404" y="82"/>
      <point x="404" y="244" type="curve" smooth="yes"/>
      <point x="404" y="345"/>
      <point x="344" y="400"/>
      <point x="233" y="400" type="curve" smooth="yes"/>
      <point x="205" y="400"/>
      <point x="176" y="397"/>
      <point x="149" y="394" type="curve"/>
      <point x="191" y="569" type="line"/>
      <point x="304" y="569" type="line"/>
      <point x="311" y="599" type="line"/>
      <point x="199" y="599" type="line"/>
      <point x="220" y="693" type="line"/>
      <point x="190" y="693" type="line"/>
      <point x="169" y="599" type="line"/>
      <point x="96" y="599" type="line"/>
      <point x="89" y="569" type="line"/>
      <point x="162" y="569" type="line"/>
      <point x="26" y="5" type="line"/>
      <point x="71" y="-3"/>
      <point x="116" y="-6"/>
    </contour>
    <contour>
      <point x="164" y="22" type="curve" smooth="yes"/>
      <point x="131" y="22"/>
      <point x="91" y="25"/>
      <point x="60" y="30" type="curve"/>
      <point x="141" y="367" type="line"/>
      <point x="166" y="371"/>
      <point x="197" y="372"/>
      <point x="227" y="372" type="curve" smooth="yes"/>
      <point x="332" y="372"/>
      <point x="376" y="324"/>
      <point x="376" y="244" type="curve" smooth="yes"/>
      <point x="376" y="106"/>
      <point x="280" y="22"/>
    </contour>
  </outline>
</glyph>
<glyph name="semisoftsign-cy" format="2">
  <advance width="404"/>
  <unicode hex="048D"/>
  <outline>
    <contour>
      <point x="154" y="-10" type="curve" smooth="yes"/>
      <point x="287" y="-10"/>
      <point x="357" y="84"/>
      <point x="357" y="200" type="curve" smooth="yes"/>
      <point x="357" y="275"/>
      <point x="313" y="319"/>
      <point x="230" y="319" type="curve" smooth="yes"/>
      <point x="193" y="319"/>
      <point x="155" y="309"/>
      <point x="123" y="296" type="curve"/>
      <point x="157" y="439" type="line"/>
      <point x="283" y="439" type="line"/>
      <point x="290" y="466" type="line"/>
      <point x="164" y="466" type="line"/>
      <point x="184" y="553" type="line"/>
      <point x="156" y="553" type="line"/>
      <point x="135" y="466" type="line"/>
      <point x="69" y="466" type="line"/>
      <point x="63" y="439" type="line"/>
      <point x="130" y="439" type="line"/>
      <point x="27" y="12" type="line"/>
      <point x="56" y="-2"/>
      <point x="114" y="-10"/>
    </contour>
    <contour>
      <point x="160" y="17" type="curve" smooth="yes"/>
      <point x="128" y="17"/>
      <point x="88" y="21"/>
      <point x="58" y="31" type="curve"/>
      <point x="116" y="268" type="line"/>
      <point x="146" y="281"/>
      <point x="183" y="293"/>
      <point x="225" y="293" type="curve" smooth="yes"/>
      <point x="299" y="293"/>
      <point x="328" y="257"/>
      <point x="328" y="198" type="curve" smooth="yes"/>
      <point x="328" y="95"/>
      <point x="273" y="17"/>
    </contour>
  </outline>
</glyph>
<glyph name="gemiddlehook-cy" format="2">
  <advance width="396"/>
  <unicode hex="0495"/>
  <outline>
    <contour>
      <point x="130" y="-187" type="curve" smooth="yes"/>
      <point x="248" y="-187"/>
      <point x="333" y="14"/>
      <point x="333" y="187" type="curve" smooth="yes"/>
      <point x="333" y="272"/>
      <point x="294" y="320"/>
      <point x="223" y="319" type="curve" smooth="yes"/>
      <point x="182" y="317"/>
      <point x="153" y="309"/>
      <point x="118" y="291" type="curve"/>
      <point x="167" y="490" type="line"/>
      <point x="346" y="490" type="line"/>
      <point x="353" y="516" type="line"/>
      <point x="147" y="516" type="line"/>
      <point x="22" y="0" type="line"/>
      <point x="49" y="0" type="line"/>
      <point x="112" y="263" type="line"/>
      <point x="142" y="280"/>
      <point x="182" y="293"/>
      <point x="218" y="293" type="curve" smooth="yes"/>
      <point x="277" y="293"/>
      <point x="303" y="254"/>
      <point x="303" y="180" type="curve" smooth="yes"/>
      <point x="303" y="19"/>
      <point x="221" y="-160"/>
      <point x="138" y="-160" type="curve" smooth="yes"/>
      <point x="124" y="-160"/>
      <point x="114" y="-159"/>
      <point x="103" y="-156" type="curve"/>
      <point x="94" y="-182" type="line"/>
      <point x="106" y="-185"/>
      <point x="118" y="-187"/>
    </contour>
  </outline>
</glyph>
<glyph name="kadescender-cy" format="2">
  <advance width="395"/>
  <unicode hex="049B"/>
  <outline>
    <contour>
      <point x="274" y="-145" type="line"/>
      <point x="302" y="-145" type="line"/>
      <point x="344" y="27" type="line"/>
      <point x="299" y="27" type="line"/>
      <point x="267" y="104"/>
      <point x="216" y="205"/>
      <point x="146" y="278" type="curve"/>
      <point x="212" y="329"/>
      <point x="345" y="463"/>
      <point x="375" y="516" type="curve"/>
      <point x="344" y="516" type="line"/>
      <point x="314" y="469"/>
      <point x="203" y="354"/>
      <point x="116" y="284" type="curve"/>
      <point x="173" y="516" type="line"/>
      <point x="146" y="516" type="line"/>
      <point x="21" y="0" type="line"/>
      <point x="50" y="0" type="line"/>
      <point x="113" y="269" type="line"/>
      <point x="169" y="218"/>
      <point x="232" y="134"/>
      <point x="282" y="0" type="curve"/>
      <point x="309" y="0" type="line"/>
    </contour>
  </outline>
</glyph>
<glyph name="kaverticalstroke-cy" format="2">
  <advance width="414"/>
  <unicode hex="049D"/>
  <outline>
    <contour>
      <point x="21" y="0" type="line"/>
      <point x="50" y="0" type="line"/>
      <point x="111" y="262" type="line"/>
      <point x="150" y="262" type="line"/>
      <point x="118" y="128" type="line"/>
      <point x="144" y="128" type="line"/>
      <point x="176" y="261" type="line"/>
      <point x="225" y="211"/>
      <point x="274" y="125"/>
      <point x="322" y="0" type="curve"/>
      <point x="349" y="0" type="line"/>
      <point x="322" y="71"/>
      <point x="283" y="179"/>
      <point x="200" y="273" type="curve"/>
      <point x="278" y="343"/>
      <point x="388" y="468"/>
      <point x="415" y="516" type="curve"/>
      <point x="384" y="516" type="line"/>
      <point x="355" y="473"/>
      <point x="257" y="361"/>
      <point x="184" y="291" type="curve"/>
      <point x="213" y="416" type="line"/>
      <point x="187" y="416" type="line"/>
      <point x="156" y="289" type="line"/>
      <point x="119" y="289" type="line"/>
      <point x="174" y="516" type="line"/>
      <point x="146" y="516" type="line"/>
    </contour>
  </outline>
</glyph>
<glyph name="Kastroke-cy" format="2">
  <advance width="442"/>
  <unicode hex="049E"/>
  <outline>
    <contour>
      <point x="24" y="0" type="line"/>
      <point x="54" y="0" type="line"/>
      <point x="138" y="349" type="line"/>
      <point x="228" y="263"/>
      <point x="292" y="123"/>
      <point x="325" y="0" type="curve"/>
      <point x="359" y="0" type="line"/>
      <point x="330" y="118"/>
      <point x="265" y="251"/>
      <point x="171" y="359" type="curve"/>
      <point x="295" y="467"/>
      <point x="388" y="568"/>
      <point x="501" y="693" type="curve"/>
      <point x="468" y="693" type="line"/>
      <point x="365" y="579"/>
      <point x="262" y="473"/>
      <point x="142" y="368" type="curve"/>
      <point x="190" y="568" type="line"/>
      <point x="269" y="568" type="line"/>
      <point x="277" y="599" type="line"/>
      <point x="198" y="599" type="line"/>
      <point x="220" y="693" type="line"/>
      <point x="190" y="693" type="line"/>
      <point x="168" y="599" type="line"/>
      <point x="102" y="599" type="line"/>
      <point x="95" y="568" type="line"/>
      <point x="161" y="568" type="line"/>
    </contour>
  </outline>
</glyph>
<glyph name="enge-cy" format="2">
  <advance width="475"/>
  <unicode hex="04A5"/>
  <outline>
    <contour>
      <point x="22" y="0" type="line"/>
      <point x="49" y="0" type="line"/>
      <point x="111" y="257" type="line"/>
      <point x="357" y="257" type="line"/>
      <point x="296" y="0" type="line"/>
      <point x="323" y="0" type="line"/>
      <point x="440" y="490" type="line"/>
      <point x="524" y="490" type="line"/>
      <point x="529" y="516" type="line"/>
      <point x="420" y="516" type="line"/>
      <point x="363" y="283" type="line"/>
      <point x="116" y="283" type="line"/>
      <point x="173" y="516" type="line"/>
      <point x="145" y="516" type="line"/>
    </contour>
  </outline>
</glyph>
<glyph name="Pemiddlehook-cy" format="2">
  <advance width="761"/>
  <unicode hex="04A6"/>
  <outline>
    <contour>
      <point x="484" y="-185" type="curve" smooth="yes"/>
      <point x="604" y="-185"/>
      <point x="720" y="52"/>
      <point x="720" y="265" type="curve" smooth="yes"/>
      <point x="720" y="373"/>
      <point x="677" y="431"/>
      <point x="589" y="431" type="curve" smooth="yes"/>
      <point x="545" y="431"/>
      <point x="508" y="419"/>
      <point x="477" y="402" type="curve"/>
      <point x="546" y="693" type="line"/>
      <point x="192" y="693" type="line"/>
      <point x="26" y="0" type="line"/>
      <point x="56" y="0" type="line"/>
      <point x="215" y="665" type="line"/>
      <point x="509" y="665" type="line"/>
      <point x="350" y="0" type="line"/>
      <point x="380" y="0" type="line"/>
      <point x="468" y="372" type="line"/>
      <point x="498" y="389"/>
      <point x="546" y="403"/>
      <point x="587" y="403" type="curve" smooth="yes"/>
      <point x="656" y="403"/>
      <point x="691" y="353"/>
      <point x="691" y="262" type="curve" smooth="yes"/>
      <point x="691" y="59"/>
      <point x="582" y="-157"/>
      <point x="487" y="-157" type="curve" smooth="yes"/>
      <point x="474" y="-157"/>
      <point x="465" y="-156"/>
      <point x="452" y="-152" type="curve"/>
      <point x="444" y="-178" type="line"/>
      <point x="457" y="-184"/>
      <point x="472" y="-185"/>
    </contour>
  </outline>
</glyph>
<glyph name="Haabkhasian-cy" format="2">
  <advance width="566"/>
  <unicode hex="04A8"/>
  <outline>
    <contour>
      <point x="206" y="-7" type="curve" smooth="yes"/>
      <point x="252" y="-7"/>
      <point x="296" y="4"/>
      <point x="335" y="23" type="curve"/>
      <point x="366" y="2"/>
      <point x="405" y="-7"/>
      <point x="441" y="-7" type="curve" smooth="yes"/>
      <point x="453" y="-7"/>
      <point x="462" y="-7"/>
      <point x="470" y="-6" type="curve"/>
      <point x="477" y="21" type="line"/>
      <point x="468" y="21"/>
      <point x="458" y="20"/>
      <point x="448" y="20" type="curve" smooth="yes"/>
      <point x="419" y="20"/>
      <point x="391" y="26"/>
      <point x="364" y="39" type="curve"/>
      <point x="463" y="104"/>
      <point x="531" y="229"/>
      <point x="531" y="385" type="curve" smooth="yes"/>
      <point x="531" y="471"/>
      <point x="497" y="515"/>
      <point x="433" y="515" type="curve" smooth="yes"/>
      <point x="316" y="515"/>
      <point x="245" y="369"/>
      <point x="245" y="217" type="curve" smooth="yes"/>
      <point x="245" y="135"/>
      <point x="272" y="76"/>
      <point x="312" y="38" type="curve"/>
      <point x="282" y="26"/>
      <point x="251" y="19"/>
      <point x="217" y="21" type="curve" smooth="yes"/>
      <point x="131" y="23"/>
      <point x="80" y="85"/>
      <point x="80" y="206" type="curve" smooth="yes"/>
      <point x="80" y="460"/>
      <point x="231" y="676"/>
      <point x="400" y="676" type="curve" smooth="yes"/>
      <point x="436" y="676"/>
      <point x="464" y="670"/>
      <point x="485" y="659" type="curve"/>
      <point x="498" y="685" type="line"/>
      <point x="474" y="698"/>
      <point x="444" y="703"/>
      <point x="409" y="703" type="curve" smooth="yes"/>
      <point x="212" y="703"/>
      <point x="48" y="478"/>
      <point x="48" y="205" type="curve" smooth="yes"/>
      <point x="48" y="48"/>
      <point x="128" y="-7"/>
    </contour>
    <contour>
      <point x="341" y="54" type="curve"/>
      <point x="302" y="85"/>
      <point x="276" y="139"/>
      <point x="276" y="219" type="curve" smooth="yes"/>
      <point x="276" y="350"/>
      <point x="336" y="487"/>
      <point x="428" y="487" type="curve" smooth="yes"/>
      <point x="477" y="487"/>
      <point x="499" y="451"/>
      <point x="499" y="379" type="curve" smooth="yes"/>
      <point x="499" y="231"/>
      <point x="433" y="111"/>
    </contour>
  </outline>
</glyph>
<glyph name="tedescender-cy" format="2">
  <advance width="611"/>
  <unicode hex="04AD"/>
  <outline>
    <contour>
      <point x="478" y="-145" type="line"/>
      <point x="506" y="-145" type="line"/>
      <point x="548" y="27" type="line"/>
      <point x="517" y="27" type="line"/>
      <point x="587" y="318" type="line" smooth="yes"/>
      <point x="596" y="353"/>
      <point x="600" y="382"/>
      <point x="600" y="407" type="curve" smooth="yes"/>
      <point x="600" y="489"/>
      <point x="559" y="526"/>
      <point x="487" y="526" type="curve" smooth="yes"/>
      <point x="447" y="526"/>
      <point x="399" y="506"/>
      <point x="361" y="473" type="curve"/>
      <point x="343" y="507"/>
      <point x="307" y="526"/>
      <point x="250" y="526" type="curve" smooth="yes"/>
      <point x="218" y="526"/>
      <point x="176" y="517"/>
      <point x="142" y="503" type="curve"/>
      <point x="21" y="0" type="line"/>
      <point x="48" y="0" type="line"/>
      <point x="164" y="486" type="line"/>
      <point x="191" y="496"/>
      <point x="222" y="502"/>
      <point x="248" y="502" type="curve" smooth="yes"/>
      <point x="316" y="502"/>
      <point x="343" y="471"/>
      <point x="343" y="412" type="curve" smooth="yes"/>
      <point x="343" y="389"/>
      <point x="340" y="362"/>
      <point x="332" y="334" type="curve" smooth="yes"/>
      <point x="252" y="0" type="line"/>
      <point x="279" y="0" type="line"/>
      <point x="362" y="341" type="line" smooth="yes"/>
      <point x="369" y="369"/>
      <point x="372" y="392"/>
      <point x="372" y="414" type="curve" smooth="yes"/>
      <point x="372" y="427"/>
      <point x="370" y="438"/>
      <point x="369" y="448" type="curve"/>
      <point x="404" y="481"/>
      <point x="443" y="502"/>
      <point x="486" y="502" type="curve" smooth="yes"/>
      <point x="541" y="502"/>
      <point x="571" y="471"/>
      <point x="571" y="405" type="curve" smooth="yes"/>
      <point x="571" y="378"/>
      <point x="567" y="347"/>
      <point x="558" y="311" type="curve" smooth="yes"/>
      <point x="483" y="0" type="line"/>
      <point x="513" y="0" type="line"/>
    </contour>
  </outline>
</glyph>
<glyph name="Ustraightstroke-cy" format="2">
  <advance width="416"/>
  <unicode hex="04B0"/>
  <outline>
    <contour>
      <point x="133" y="0" type="line"/>
      <point x="162" y="0" type="line"/>
      <point x="220" y="246" type="line"/>
      <point x="334" y="246" type="line"/>
      <point x="341" y="272" type="line"/>
      <point x="227" y="272" type="line"/>
      <point x="312" y="384"/>
      <point x="406" y="531"/>
      <point x="494" y="693" type="curve"/>
      <point x="464" y="693" type="line"/>
      <point x="405" y="580"/>
      <point x="329" y="454"/>
      <point x="218" y="303" type="curve"/>
      <point x="185" y="454"/>
      <point x="167" y="578"/>
      <point x="161" y="693" type="curve"/>
      <point x="131" y="693" type="line"/>
      <point x="142" y="529"/>
      <point x="171" y="386"/>
      <point x="198" y="272" type="curve"/>
      <point x="86" y="272" type="line"/>
      <point x="79" y="246" type="line"/>
      <point x="192" y="246" type="line"/>
    </contour>
  </outline>
</glyph>
<glyph name="ustraightstroke-cy" format="2">
  <advance width="348"/>
  <unicode hex="04B1"/>
  <outline>
    <contour>
      <point x="58" y="-185" type="line"/>
      <point x="86" y="-185" type="line"/>
      <point x="130" y="0" type="line"/>
      <point x="242" y="0" type="line"/>
      <point x="249" y="25" type="line"/>
      <point x="147" y="25" type="line"/>
      <point x="239" y="158"/>
      <point x="339" y="350"/>
      <point x="375" y="517" type="curve"/>
      <point x="349" y="517" type="line"/>
      <point x="308" y="353"/>
      <point x="243" y="211"/>
      <point x="121" y="25" type="curve"/>
      <point x="95" y="213"/>
      <point x="90" y="355"/>
      <point x="107" y="517" type="curve"/>
      <point x="80" y="517" type="line"/>
      <point x="62" y="353"/>
      <point x="73" y="175"/>
      <point x="96" y="25" type="curve"/>
      <point x="-6" y="25" type="line"/>
      <point x="-12" y="0" type="line"/>
      <point x="102" y="0" type="line"/>
    </contour>
  </outline>
</glyph>
<glyph name="Tetse-cy" format="2">
  <advance width="576"/>
  <unicode hex="04B4"/>
  <outline>
    <contour>
      <point x="378" y="-185" type="line"/>
      <point x="408" y="-185" type="line"/>
      <point x="458" y="28" type="line"/>
      <point x="428" y="28" type="line"/>
      <point x="586" y="693" type="line"/>
      <point x="557" y="693" type="line"/>
      <point x="397" y="28" type="line"/>
      <point x="103" y="28" type="line"/>
      <point x="255" y="665" type="line"/>
      <point x="379" y="665" type="line"/>
      <point x="386" y="693" type="line"/>
      <point x="108" y="693" type="line"/>
      <point x="103" y="665" type="line"/>
      <point x="227" y="665" type="line"/>
      <point x="67" y="0" type="line"/>
      <point x="422" y="0" type="line"/>
    </contour>
  </outline>
</glyph>
<glyph name="chedescender-cy" format="2">
  <advance width="358"/>
  <unicode hex="04B7"/>
  <outline>
    <contour>
      <point x="226" y="-145" type="line"/>
      <point x="253" y="-145" type="line"/>
      <point x="294" y="27" type="line"/>
      <point x="265" y="27" type="line"/>
      <point x="382" y="516" type="line"/>
      <point x="355" y="516" type="line"/>
      <point x="289" y="243" type="line"/>
      <point x="259" y="233"/>
      <point x="218" y="224"/>
      <point x="187" y="224" type="curve" smooth="yes"/>
      <point x="111" y="224"/>
      <point x="84" y="251"/>
      <point x="84" y="298" type="curve" smooth="yes"/>
      <point x="84" y="313"/>
      <point x="87" y="332"/>
      <point x="93" y="353" type="curve" smooth="yes"/>
      <point x="131" y="516" type="line"/>
      <point x="104" y="516" type="line"/>
      <point x="63" y="345" type="line" smooth="yes"/>
      <point x="58" y="327"/>
      <point x="56" y="312"/>
      <point x="56" y="297" type="curve" smooth="yes"/>
      <point x="56" y="238"/>
      <point x="93" y="201"/>
      <point x="186" y="201" type="curve" smooth="yes"/>
      <point x="215" y="201"/>
      <point x="250" y="208"/>
      <point x="284" y="219" type="curve"/>
      <point x="232" y="0" type="line"/>
      <point x="261" y="0" type="line"/>
    </contour>
  </outline>
</glyph>
<glyph name="cheabkhasian-cy" format="2">
  <advance width="453"/>
  <unicode hex="04BD"/>
  <outline>
    <contour>
      <point x="230" y="-10" type="curve" smooth="yes"/>
      <point x="275" y="-10"/>
      <point x="324" y="9"/>
      <point x="357" y="37" type="curve"/>
      <point x="350" y="62" type="line"/>
      <point x="318" y="35"/>
      <point x="273" y="16"/>
      <point x="238" y="16" type="curve" smooth="yes"/>
      <point x="168" y="16"/>
      <point x="145" y="46"/>
      <point x="145" y="150" type="curve" smooth="yes"/>
      <point x="145" y="175"/>
      <point x="146" y="205"/>
      <point x="150" y="228" type="curve"/>
      <point x="330" y="235"/>
      <point x="438" y="311"/>
      <point x="438" y="428" type="curve" smooth="yes"/>
      <point x="438" y="488"/>
      <point x="401" y="529"/>
      <point x="345" y="529" type="curve" smooth="yes"/>
      <point x="239" y="529"/>
      <point x="152" y="409"/>
      <point x="125" y="252" type="curve"/>
      <point x="82" y="252"/>
      <point x="64" y="277"/>
      <point x="64" y="311" type="curve" smooth="yes"/>
      <point x="64" y="338"/>
      <point x="71" y="365"/>
      <point x="85" y="387" type="curve"/>
      <point x="59" y="391" type="line"/>
      <point x="42" y="365"/>
      <point x="38" y="338"/>
      <point x="38" y="312" type="curve" smooth="yes"/>
      <point x="38" y="267"/>
      <point x="60" y="231"/>
      <point x="120" y="227" type="curve"/>
      <point x="118" y="201"/>
      <point x="116" y="173"/>
      <point x="116" y="146" type="curve" smooth="yes"/>
      <point x="116" y="34"/>
      <point x="153" y="-10"/>
    </contour>
    <contour>
      <point x="154" y="253" type="curve"/>
      <point x="180" y="396"/>
      <point x="255" y="502"/>
      <point x="343" y="502" type="curve" smooth="yes"/>
      <point x="383" y="502"/>
      <point x="411" y="473"/>
      <point x="411" y="427" type="curve" smooth="yes"/>
      <point x="411" y="323"/>
      <point x="311" y="258"/>
    </contour>
  </outline>
</glyph>
<glyph name="Eltail-cy" format="2">
  <advance width="505"/>
  <unicode hex="04C5"/>
  <outline>
    <contour>
      <point x="261" y="-187" type="line"/>
      <point x="316" y="-146"/>
      <point x="371" y="-78"/>
      <point x="394" y="28" type="curve"/>
      <point x="363" y="28" type="line"/>
      <point x="524" y="693" type="line"/>
      <point x="272" y="693" type="line"/>
      <point x="266" y="666" type="line" smooth="yes"/>
      <point x="220" y="468"/>
      <point x="181" y="324"/>
      <point x="136" y="222" type="curve" smooth="yes"/>
      <point x="86" y="107"/>
      <point x="27" y="44"/>
      <point x="-52" y="20" type="curve"/>
      <point x="-49" y="-6" type="line"/>
      <point x="50" y="18"/>
      <point x="114" y="92"/>
      <point x="170" y="224" type="curve" smooth="yes"/>
      <point x="212" y="325"/>
      <point x="243" y="449"/>
      <point x="289" y="642" type="curve" smooth="yes"/>
      <point x="294" y="665" type="line"/>
      <point x="486" y="665" type="line"/>
      <point x="327" y="0" type="line"/>
      <point x="360" y="0" type="line"/>
      <point x="340" y="-66"/>
      <point x="306" y="-121"/>
      <point x="247" y="-168" type="curve"/>
    </contour>
  </outline>
</glyph>
<glyph name="Enhook-cy" format="2">
  <advance width="536"/>
  <unicode hex="04C7"/>
  <outline>
    <contour>
      <point x="257" y="-187" type="curve" smooth="yes"/>
      <point x="325" y="-187"/>
      <point x="355" y="-133"/>
      <point x="374" y="-55" type="curve" smooth="yes"/>
      <point x="551" y="693" type="line"/>
      <point x="522" y="693" type="line"/>
      <point x="447" y="376" type="line"/>
      <point x="145" y="376" type="line"/>
      <point x="222" y="693" type="line"/>
      <point x="192" y="693" type="line"/>
      <point x="26" y="0" type="line"/>
      <point x="56" y="0" type="line"/>
      <point x="139" y="348" type="line"/>
      <point x="439" y="348" type="line"/>
      <point x="342" y="-59" type="line" smooth="yes"/>
      <point x="327" y="-116"/>
      <point x="311" y="-161"/>
      <point x="262" y="-161" type="curve" smooth="yes"/>
      <point x="248" y="-161"/>
      <point x="229" y="-157"/>
      <point x="219" y="-154" type="curve"/>
      <point x="209" y="-179" type="line"/>
      <point x="219" y="-183"/>
      <point x="243" y="-187"/>
    </contour>
  </outline>
</glyph>
<glyph name="Chekhakassian-cy" format="2">
  <advance width="455"/>
  <unicode hex="04CB"/>
  <outline>
    <contour>
      <point x="202" y="-186" type="line"/>
      <point x="232" y="-186" type="line"/>
      <point x="276" y="0" type="line"/>
      <point x="306" y="0" type="line"/>
      <point x="472" y="693" type="line"/>
      <point x="444" y="693" type="line"/>
      <point x="355" y="320" type="line"/>
      <point x="314" y="305"/>
      <point x="262" y="297"/>
      <point x="220" y="297" type="curve" smooth="yes"/>
      <point x="151" y="297"/>
      <point x="121" y="323"/>
      <point x="121" y="386" type="curve" smooth="yes"/>
      <point x="121" y="408"/>
      <point x="125" y="435"/>
      <point x="134" y="468" type="curve" smooth="yes"/>
      <point x="188" y="693" type="line"/>
      <point x="158" y="693" type="line"/>
      <point x="102" y="460" type="line" smooth="yes"/>
      <point x="94" y="432"/>
      <point x="91" y="406"/>
      <point x="91" y="385" type="curve" smooth="yes"/>
      <point x="91" y="304"/>
      <point x="137" y="267"/>
      <point x="219" y="267" type="curve" smooth="yes"/>
      <point x="259" y="267"/>
      <point x="305" y="275"/>
      <point x="347" y="292" type="curve"/>
      <point x="285" y="29" type="line"/>
      <point x="253" y="29" type="line"/>
    </contour>
  </outline>
</glyph>
<glyph name="emtail-cy" format="2">
  <advance width="544"/>
  <unicode hex="04CE"/>
  <outline>
    <contour>
      <point x="370" y="-166" type="line"/>
      <point x="415" y="-132"/>
      <point x="457" y="-77"/>
      <point x="479" y="26" type="curve"/>
      <point x="446" y="26" type="line"/>
      <point x="483" y="198"/>
      <point x="517" y="365"/>
      <point x="538" y="516" type="curve"/>
      <point x="506" y="516" type="line"/>
      <point x="422" y="396"/>
      <point x="343" y="271"/>
      <point x="252" y="105" type="curve"/>
      <point x="241" y="271"/>
      <point x="224" y="395"/>
      <point x="197" y="516" type="curve"/>
      <point x="162" y="516" type="line"/>
      <point x="111" y="357"/>
      <point x="63" y="181"/>
      <point x="13" y="0" type="curve"/>
      <point x="43" y="0" type="line"/>
      <point x="83" y="155"/>
      <point x="127" y="314"/>
      <point x="177" y="481" type="curve"/>
      <point x="208" y="332"/>
      <point x="219" y="206"/>
      <point x="228" y="78" type="curve"/>
      <point x="266" y="78" type="line"/>
      <point x="335" y="205"/>
      <point x="407" y="329"/>
      <point x="507" y="476" type="curve"/>
      <point x="477" y="310"/>
      <point x="447" y="153"/>
      <point x="411" y="0" type="curve"/>
      <point x="446" y="0" type="line"/>
      <point x="433" y="-57"/>
      <point x="405" y="-108"/>
      <point x="357" y="-148" type="curve"/>
    </contour>
  </outline>
</glyph>
<glyph name="Obarred-cy" format="2">
  <advance width="570"/>
  <unicode hex="04E8"/>
  <anchor x="390" y="672" name="top"/>
  <outline>
    <contour>
      <point x="226" y="-9" type="curve" smooth="yes"/>
      <point x="392" y="-9"/>
      <point x="539" y="222"/>
      <point x="539" y="501" type="curve" smooth="yes"/>
      <point x="539" y="632"/>
      <point x="487" y="703"/>
      <point x="388" y="703" type="curve" smooth="yes"/>
      <point x="223" y="703"/>
      <point x="76" y="476"/>
      <point x="76" y="199" type="curve" smooth="yes"/>
      <point x="76" y="64"/>
      <point x="127" y="-9"/>
    </contour>
    <contour>
      <point x="231" y="18" type="curve" smooth="yes"/>
      <point x="143" y="18"/>
      <point x="107" y="75"/>
      <point x="107" y="206" type="curve" smooth="yes"/>
      <point x="107" y="250"/>
      <point x="111" y="292"/>
      <point x="119" y="332" type="curve"/>
      <point x="490" y="332" type="line"/>
      <point x="450" y="152"/>
      <point x="344" y="18"/>
    </contour>
    <contour>
      <point x="123" y="360" type="line"/>
      <point x="164" y="540"/>
      <point x="270" y="676"/>
      <point x="385" y="676" type="curve" smooth="yes"/>
      <point x="468" y="676"/>
      <point x="508" y="619"/>
      <point x="508" y="493" type="curve" smooth="yes"/>
      <point x="508" y="448"/>
      <point x="503" y="402"/>
      <point x="496" y="360" type="curve"/>
    </contour>
  </outline>
</glyph>
<glyph name="psilivaria" format="2">
  <advance width="320"/>
  <unicode hex="1FCD"/>
  <anchor x="226" y="516" name="_top"/>
  <outline>
    <contour>
      <point x="136" y="614" type="line"/>
      <point x="196" y="652"/>
      <point x="242" y="713"/>
      <point x="242" y="757" type="curve" smooth="yes"/>
      <point x="242" y="772"/>
      <point x="235" y="780"/>
      <point x="222" y="780" type="curve" smooth="yes"/>
      <point x="204" y="780"/>
      <point x="190" y="765"/>
      <point x="190" y="746" type="curve" smooth="yes"/>
      <point x="190" y="737"/>
      <point x="195" y="727"/>
      <point x="209" y="724" type="curve"/>
      <point x="192" y="681"/>
      <point x="153" y="650"/>
      <point x="125" y="628" type="curve"/>
    </contour>
    <contour>
      <point x="353" y="602" type="line"/>
      <point x="369" y="609" type="line"/>
      <point x="304" y="779" type="line"/>
      <point x="276" y="765" type="line"/>
    </contour>
  </outline>
</glyph>
<glyph name="psiliperispomeni" format="2">
  <advance width="324"/>
  <unicode hex="1FCF"/>
  <anchor x="223" y="516" name="_top"/>
  <outline>
    <contour>
      <point x="180" y="765" type="curve"/>
      <point x="204" y="765" type="line"/>
      <point x="218" y="822"/>
      <point x="246" y="853"/>
      <point x="294" y="853" type="curve" smooth="yes"/>
      <point x="333" y="853"/>
      <point x="351" y="832"/>
      <point x="351" y="793" type="curve" smooth="yes"/>
      <point x="351" y="785"/>
      <point x="350" y="775"/>
      <point x="349" y="765" type="curve"/>
      <point x="372" y="765" type="line"/>
      <point x="374" y="778"/>
      <point x="376" y="790"/>
      <point x="376" y="803" type="curve" smooth="yes"/>
      <point x="376" y="851"/>
      <point x="348" y="879"/>
      <point x="297" y="879" type="curve" smooth="yes"/>
      <point x="231" y="879"/>
      <point x="196" y="835"/>
    </contour>
    <contour>
      <point x="206" y="594" type="line"/>
      <point x="255" y="626"/>
      <point x="293" y="681"/>
      <point x="293" y="719" type="curve" smooth="yes"/>
      <point x="293" y="735"/>
      <point x="285" y="743"/>
      <point x="271" y="743" type="curve" smooth="yes"/>
      <point x="254" y="743"/>
      <point x="240" y="727"/>
      <point x="240" y="708" type="curve" smooth="yes"/>
      <point x="240" y="698"/>
      <point x="244" y="688"/>
      <point x="258" y="686" type="curve"/>
      <point x="244" y="651"/>
      <point x="216" y="625"/>
      <point x="194" y="608" type="curve"/>
    </contour>
  </outline>
</glyph>
<glyph name="dasiavaria" format="2">
  <advance width="324"/>
  <unicode hex="1FDD"/>
  <anchor x="259" y="516" name="_top"/>
  <outline>
    <contour>
      <point x="348" y="602" type="line"/>
      <point x="363" y="609" type="line"/>
      <point x="299" y="779" type="line"/>
      <point x="270" y="765" type="line"/>
    </contour>
    <contour>
      <point x="230" y="614" type="curve"/>
      <point x="245" y="628" type="line"/>
      <point x="227" y="648"/>
      <point x="199" y="672"/>
      <point x="198" y="719" type="curve"/>
      <point x="222" y="725"/>
      <point x="231" y="743"/>
      <point x="231" y="759" type="curve" smooth="yes"/>
      <point x="231" y="771"/>
      <point x="224" y="780"/>
      <point x="209" y="780" type="curve" smooth="yes"/>
      <point x="183" y="780"/>
      <point x="175" y="750"/>
      <point x="175" y="719" type="curve" smooth="yes"/>
      <point x="175" y="678"/>
      <point x="197" y="643"/>
    </contour>
  </outline>
</glyph>
<glyph name="dasiaoxia" format="2">
  <advance width="324"/>
  <unicode hex="1FDE"/>
  <anchor x="238" y="516" name="_top"/>
  <outline>
    <contour>
      <point x="275" y="602" type="line"/>
      <point x="391" y="763" type="line"/>
      <point x="365" y="779" type="line"/>
      <point x="261" y="610" type="line"/>
    </contour>
    <contour>
      <point x="233" y="614" type="curve"/>
      <point x="248" y="628" type="line"/>
      <point x="229" y="648"/>
      <point x="200" y="672"/>
      <point x="201" y="719" type="curve"/>
      <point x="225" y="725"/>
      <point x="232" y="743"/>
      <point x="232" y="759" type="curve" smooth="yes"/>
      <point x="232" y="771"/>
      <point x="225" y="780"/>
      <point x="212" y="780" type="curve" smooth="yes"/>
      <point x="186" y="780"/>
      <point x="177" y="750"/>
      <point x="177" y="719" type="curve" smooth="yes"/>
      <point x="177" y="678"/>
      <point x="198" y="643"/>
    </contour>
  </outline>
</glyph>
<glyph name="dasiaperispomeni" format="2">
  <advance width="324"/>
  <unicode hex="1FDF"/>
  <anchor x="229" y="516" name="_top"/>
  <outline>
    <contour>
      <point x="180" y="765" type="curve"/>
      <point x="204" y="765" type="line"/>
      <point x="218" y="822"/>
      <point x="246" y="853"/>
      <point x="294" y="853" type="curve" smooth="yes"/>
      <point x="333" y="853"/>
      <point x="351" y="832"/>
      <point x="351" y="793" type="curve" smooth="yes"/>
      <point x="351" y="785"/>
      <point x="350" y="775"/>
      <point x="349" y="765" type="curve"/>
      <point x="372" y="765" type="line"/>
      <point x="374" y="778"/>
      <point x="376" y="790"/>
      <point x="376" y="803" type="curve" smooth="yes"/>
      <point x="376" y="851"/>
      <point x="348" y="879"/>
      <point x="297" y="879" type="curve" smooth="yes"/>
      <point x="231" y="879"/>
      <point x="196" y="835"/>
    </contour>
    <contour>
      <point x="282" y="594" type="curve"/>
      <point x="297" y="608" type="line"/>
      <point x="282" y="624"/>
      <point x="260" y="643"/>
      <point x="260" y="682" type="curve"/>
      <point x="286" y="686"/>
      <point x="293" y="705"/>
      <point x="293" y="721" type="curve" smooth="yes"/>
      <point x="293" y="735"/>
      <point x="287" y="743"/>
      <point x="271" y="743" type="curve" smooth="yes"/>
      <point x="245" y="743"/>
      <point x="238" y="712"/>
      <point x="238" y="681" type="curve" smooth="yes"/>
      <point x="238" y="648"/>
      <point x="253" y="617"/>
    </contour>
  </outline>
</glyph>
<glyph name="dasia" format="2">
  <advance width="324"/>
  <unicode hex="1FFE"/>
  <anchor x="180" y="516" name="_top"/>
  <outline>
    <contour>
      <point x="229" y="614" type="curve"/>
      <point x="244" y="628" type="line"/>
      <point x="227" y="648"/>
      <point x="198" y="672"/>
      <point x="197" y="719" type="curve"/>
      <point x="223" y="725"/>
      <point x="230" y="743"/>
      <point x="230" y="759" type="curve" smooth="yes"/>
      <point x="230" y="771"/>
      <point x="223" y="780"/>
      <point x="209" y="780" type="curve" smooth="yes"/>
      <point x="182" y="780"/>
      <point x="174" y="750"/>
      <point x="174" y="719" type="curve" smooth="yes"/>
      <point x="174" y="678"/>
      <point x="196" y="643"/>
    </contour>
  </outline>
</glyph>
<glyph name="quoteleft" format="2">
  <advance width="201"/>
  <unicode hex="2018"/>
  <outline>
    <contour>
      <point x="152" y="540" type="curve"/>
      <point x="181" y="540" type="line"/>
      <point x="186" y="579"/>
      <point x="194" y="640"/>
      <point x="264" y="728" type="curve"/>
      <point x="241" y="735" type="line"/>
      <point x="185" y="668"/>
      <point x="160" y="614"/>
    </contour>
  </outline>
</glyph>
<glyph name="quoteright" format="2">
  <advance width="201"/>
  <unicode hex="2019"/>
  <outline>
    <contour>
      <point x="141" y="540" type="line"/>
      <point x="198" y="607"/>
      <point x="223" y="661"/>
      <point x="231" y="735" type="curve"/>
      <point x="201" y="735" type="line"/>
      <point x="195" y="698"/>
      <point x="189" y="635"/>
      <point x="119" y="547" type="curve"/>
    </contour>
  </outline>
</glyph>
